<svg xmlns="http://www.w3.org/2000/svg" viewBox="0 0 431.06 429.48">
  <title>2</title>
  <g id="Character_2" data-name="Character 2">
    <g>
      <path d="M473.48,127.22a10.31,10.31,0,0,0-7.9,1.78,18.2,18.2,0,0,0-5.4,6.25c-2.64,4.68-3.33,10.82-3.19,16.19,5.94-.55,10.79-5.49,13.09-8.15,3.64-4.2,7.66-14,3.4-16.07" transform="translate(-44.25 -42.18)" style="fill: #e0e0e0"/>
      <path d="M447.6,155.52a8.82,8.82,0,0,0,2.6-8.47,11.73,11.73,0,0,0-5.42-7.25,4.91,4.91,0,0,0-4.07-.84,3.74,3.74,0,0,0-2.29,3.06,7.71,7.71,0,0,0,.66,3.92c1.72,4.26,4.18,8.07,8.52,9.58" transform="translate(-44.25 -42.18)" style="fill: #e0e0e0"/>
      <path d="M443,172.75a5.33,5.33,0,0,1,.35-1.08l1.1-2.85a43.35,43.35,0,0,0,2.67-9.66,19.87,19.87,0,0,0-1.07-9.82,23.21,23.21,0,0,0-2-3.63,4.18,4.18,0,0,1,.77.83,12.75,12.75,0,0,1,1.56,2.66,19.12,19.12,0,0,1,1.25,10,38.36,38.36,0,0,1-2.85,9.72c-.51,1.2-.94,2.15-1.25,2.8A4.64,4.64,0,0,1,443,172.75Z" transform="translate(-44.25 -42.18)" style="fill: #ebebeb"/>
      <path d="M469.76,134.42a2.27,2.27,0,0,1-.26.41l-.8,1.12-3,4.07c-2.55,3.43-6.05,8.19-9.85,13.49s-7.18,10.16-9.61,13.68l-2.88,4.16-.8,1.12c-.19.26-.29.38-.31.37a2.08,2.08,0,0,1,.22-.43l.72-1.17c.63-1,1.57-2.47,2.75-4.26,2.35-3.57,5.68-8.46,9.48-13.77s7.36-10,10-13.41c1.32-1.69,2.39-3.05,3.15-4l.88-1.06C469.63,134.53,469.74,134.41,469.76,134.42Z" transform="translate(-44.25 -42.18)" style="fill: #ebebeb"/>
      <path d="M451.92,162a20.66,20.66,0,0,1,18.33-4.43c1.62.41,3.43,1.3,3.66,2.95s-1.26,3-2.72,3.83a17.66,17.66,0,0,1-19.47-1.94" transform="translate(-44.25 -42.18)" style="fill: #e0e0e0"/>
      <path d="M466.44,160.73c0,.11-1.53-.19-4-.13a23.89,23.89,0,0,0-4.26.5,24.19,24.19,0,0,0-9.53,4.28,24.22,24.22,0,0,0-3.21,2.86c-1.67,1.79-2.45,3.12-2.54,3.06a4.31,4.31,0,0,1,.51-1,10.86,10.86,0,0,1,.71-1,14.66,14.66,0,0,1,1.05-1.31,21.83,21.83,0,0,1,3.19-3,23.29,23.29,0,0,1,9.72-4.37,21.69,21.69,0,0,1,4.36-.4,14.08,14.08,0,0,1,1.68.09,8.81,8.81,0,0,1,1.25.17A4.72,4.72,0,0,1,466.44,160.73Z" transform="translate(-44.25 -42.18)" style="fill: #ebebeb"/>
    </g>
    <g>
      <path d="M47.67,66.5a10.31,10.31,0,0,0-1.77,7.9A18.27,18.27,0,0,0,49.24,82c3.1,4.38,8.36,7.64,13.28,9.8,2-5.6-.35-12.09-1.77-15.31-2.25-5.09-9.4-12.92-13.08-9.94" transform="translate(-44.25 -42.18)" style="fill: #e0e0e0"/>
      <path d="M62.19,102a8.82,8.82,0,0,0-6.55-6,11.66,11.66,0,0,0-8.87,1.8,4.91,4.91,0,0,0-2.5,3.32,3.77,3.77,0,0,0,1.79,3.38,7.73,7.73,0,0,0,3.83,1.08c4.59.26,9.08-.33,12.3-3.61" transform="translate(-44.25 -42.18)" style="fill: #e0e0e0"/>
      <path d="M75.78,113.55a5,5,0,0,1-.82-.78l-2.12-2.21A43.23,43.23,0,0,0,65.26,104a20,20,0,0,0-9.33-3.23,23.41,23.41,0,0,0-4.14.25,4.49,4.49,0,0,1,1.08-.34,12.88,12.88,0,0,1,3.07-.27,19,19,0,0,1,9.6,3.16,37.93,37.93,0,0,1,7.57,6.73c.87,1,1.54,1.77,2,2.33A4.12,4.12,0,0,1,75.78,113.55Z" transform="translate(-44.25 -42.18)" style="fill: #ebebeb"/>
      <path d="M52.58,72.94s.11.13.27.4l.66,1.21c.61,1.12,1.42,2.63,2.4,4.46,2,3.78,4.81,9,8,14.68s6.11,10.83,8.26,14.53c1,1.8,1.89,3.28,2.53,4.39l.67,1.2c.15.28.22.43.2.44a2,2,0,0,1-.29-.38c-.21-.32-.45-.7-.76-1.16-.64-1-1.56-2.47-2.67-4.3-2.23-3.66-5.22-8.76-8.4-14.46s-5.92-11-7.85-14.77c-1-1.91-1.73-3.46-2.25-4.54l-.58-1.25A2.63,2.63,0,0,1,52.58,72.94Z" transform="translate(-44.25 -42.18)" style="fill: #ebebeb"/>
      <path d="M69.85,100.83a20.64,20.64,0,0,1,3.83-18.46c1.06-1.29,2.64-2.54,4.23-2.05s2.19,2.43,2.3,4.09a17.63,17.63,0,0,1-10.08,16.78" transform="translate(-44.25 -42.18)" style="fill: #e0e0e0"/>
      <path d="M75,87.19c.09.06-.82,1.3-1.82,3.54a23.83,23.83,0,0,0-1.37,4.07,24.19,24.19,0,0,0-.2,10.44,23.22,23.22,0,0,0,1.21,4.12c.91,2.28,1.77,3.56,1.68,3.61a3.76,3.76,0,0,1-.64-.87,9.26,9.26,0,0,1-.65-1.08,15.35,15.35,0,0,1-.73-1.51,21.55,21.55,0,0,1-1.34-4.17,23.18,23.18,0,0,1,.2-10.65,21.9,21.9,0,0,1,1.51-4.11,14.2,14.2,0,0,1,.79-1.48A8.73,8.73,0,0,1,74.28,88,4.59,4.59,0,0,1,75,87.19Z" transform="translate(-44.25 -42.18)" style="fill: #ebebeb"/>
    </g>
    <g>
      <path d="M159.09,471.09a10.35,10.35,0,0,0,8.08-.6,18.29,18.29,0,0,0,6.26-5.38c3.3-4.24,4.89-10.21,5.54-15.55-6-.33-11.48,3.84-14.15,6.13-4.22,3.62-9.64,12.73-5.73,15.4" transform="translate(-44.25 -42.18)" style="fill: #e0e0e0"/>
      <path d="M188.86,446.91a8.83,8.83,0,0,0-3.82,8,11.72,11.72,0,0,0,4.29,8,5,5,0,0,0,3.91,1.43,3.78,3.78,0,0,0,2.71-2.69,7.64,7.64,0,0,0-.07-4c-1.08-4.47-2.94-8.6-7-10.74" transform="translate(-44.25 -42.18)" style="fill: #e0e0e0"/>
      <path d="M196,430.56a4.7,4.7,0,0,1-.5,1L194,434.23a43.08,43.08,0,0,0-4.07,9.16,19.84,19.84,0,0,0-.39,9.87,24.33,24.33,0,0,0,1.44,3.89,3.86,3.86,0,0,1-.64-.94,12.7,12.7,0,0,1-1.16-2.86,19.09,19.09,0,0,1,.25-10.1,38.33,38.33,0,0,1,4.25-9.2c.68-1.11,1.25-2,1.65-2.59A4.64,4.64,0,0,1,196,430.56Z" transform="translate(-44.25 -42.18)" style="fill: #ebebeb"/>
      <path d="M163.83,464.52s.1-.14.31-.37l1-1c.9-.91,2.11-2.11,3.58-3.58,3-3,7.2-7.21,11.74-11.89s8.59-9,11.51-12.11l3.47-3.7,1-1c.22-.22.34-.33.36-.32a2.11,2.11,0,0,1-.28.39l-.89,1.06c-.78.91-1.92,2.21-3.35,3.81-2.85,3.18-6.86,7.53-11.41,12.22S172,456.89,169,459.84c-1.55,1.48-2.82,2.66-3.7,3.47l-1,.91Q163.86,464.54,163.83,464.52Z" transform="translate(-44.25 -42.18)" style="fill: #ebebeb"/>
      <path d="M185.54,439.91a20.64,20.64,0,0,1-18.79,1.68c-1.54-.64-3.19-1.79-3.18-3.45s1.69-2.8,3.25-3.39a17.65,17.65,0,0,1,19,4.79" transform="translate(-44.25 -42.18)" style="fill: #e0e0e0"/>
      <path d="M171,439c0-.1,1.48.41,3.92.72a24.3,24.3,0,0,0,4.29.13,26,26,0,0,0,5.18-.87,27.27,27.27,0,0,0,4.88-1.95,24.29,24.29,0,0,0,3.59-2.36c1.92-1.53,2.89-2.72,3-2.65a4.44,4.44,0,0,1-.65.86,9.62,9.62,0,0,1-.86.93,14.2,14.2,0,0,1-1.23,1.15,22,22,0,0,1-3.6,2.49,24.69,24.69,0,0,1-5,2,25,25,0,0,1-5.29.85,21,21,0,0,1-4.37-.25,14.12,14.12,0,0,1-1.65-.33,8.81,8.81,0,0,1-1.22-.35A5,5,0,0,1,171,439Z" transform="translate(-44.25 -42.18)" style="fill: #ebebeb"/>
    </g>
    <g>
      <circle cx="361.83" cy="340.84" r="9.99" transform="matrix(0.56, -0.83, 0.83, 0.56, -167.63, 406.64)" style="fill: #ebebeb"/>
      <path d="M399.8,320.8a10,10,0,1,1-10-10A10,10,0,0,1,399.8,320.8Z" transform="translate(-44.25 -42.18)" style="fill: #ebebeb"/>
      <path d="M399.86,363.16c0,6-4.46,10.88-10,10.88s-10-4.85-10-10.86,4.46-10.88,10-10.88S399.85,357.15,399.86,363.16Z" transform="translate(-44.25 -42.18)" style="fill: #ebebeb"/>
      <path d="M386.91,361.89c-.43.63-7.07-3.15-14.84-8.43s-13.73-10.08-13.3-10.71,7.07,3.15,14.84,8.43S387.34,361.26,386.91,361.89Z" transform="translate(-44.25 -42.18)" style="fill: #ebebeb"/>
      <path d="M387.71,320.11c.47.6-4.67,5.36-11.46,10.62s-12.68,9-13.15,8.45,4.67-5.36,11.46-10.62S387.24,319.51,387.71,320.11Z" transform="translate(-44.25 -42.18)" style="fill: #ebebeb"/>
    </g>
    <g>
      <path d="M332.19,224.34a34.12,34.12,0,0,1,.26,6,34,34,0,0,1-.26,6,35.22,35.22,0,0,1-.26-6A35.32,35.32,0,0,1,332.19,224.34Z" transform="translate(-44.25 -42.18)" style="fill: #e0e0e0"/>
      <path d="M332.19,200.34a34.12,34.12,0,0,1,.26,6,34,34,0,0,1-.26,6,35.22,35.22,0,0,1-.26-6A35.32,35.32,0,0,1,332.19,200.34Z" transform="translate(-44.25 -42.18)" style="fill: #e0e0e0"/>
      <path d="M332.19,176.34a34.12,34.12,0,0,1,.26,6,34,34,0,0,1-.26,6,35.22,35.22,0,0,1-.26-6A35.32,35.32,0,0,1,332.19,176.34Z" transform="translate(-44.25 -42.18)" style="fill: #e0e0e0"/>
      <path d="M332.19,152.34a34.12,34.12,0,0,1,.26,6,34,34,0,0,1-.26,6,35.22,35.22,0,0,1-.26-6A35.32,35.32,0,0,1,332.19,152.34Z" transform="translate(-44.25 -42.18)" style="fill: #e0e0e0"/>
      <path d="M332.19,128.34a34.12,34.12,0,0,1,.26,6,34,34,0,0,1-.26,6,35.22,35.22,0,0,1-.26-6A35.32,35.32,0,0,1,332.19,128.34Z" transform="translate(-44.25 -42.18)" style="fill: #e0e0e0"/>
      <path d="M325.36,111.17a35.32,35.32,0,0,1,6-.26h1.09v.25a27.54,27.54,0,0,1-.26,5.17,28.12,28.12,0,0,1-.25-5.17l.25.26h-.83A33.5,33.5,0,0,1,325.36,111.17Z" transform="translate(-44.25 -42.18)" style="fill: #e0e0e0"/>
      <path d="M301.36,111.17a69.36,69.36,0,0,1,12,0,66.8,66.8,0,0,1-12,0Z" transform="translate(-44.25 -42.18)" style="fill: #e0e0e0"/>
      <path d="M290.93,97.61a35.32,35.32,0,0,1,.26,6,35.32,35.32,0,0,1-.26,6,34.12,34.12,0,0,1-.26-6A34.12,34.12,0,0,1,290.93,97.61Z" transform="translate(-44.25 -42.18)" style="fill: #e0e0e0"/>
      <path d="M290.93,78.35a13,13,0,0,1,.26,3.63,13.09,13.09,0,0,1-.26,3.63,12.65,12.65,0,0,1-.26-3.63A12.59,12.59,0,0,1,290.93,78.35Z" transform="translate(-44.25 -42.18)" style="fill: #e0e0e0"/>
    </g>
    <g>
      <path d="M146.19,350.57a8.68,8.68,0,0,1,3-.26,8.72,8.72,0,0,1,3,.26,17.44,17.44,0,0,1-6,0Z" transform="translate(-44.25 -42.18)" style="fill: #e0e0e0"/>
      <path d="M120,350.57a40.48,40.48,0,0,1,6.54-.26,40.48,40.48,0,0,1,6.54.26,41.9,41.9,0,0,1-6.54.26A41.9,41.9,0,0,1,120,350.57Z" transform="translate(-44.25 -42.18)" style="fill: #e0e0e0"/>
      <path d="M93.85,350.57a40.48,40.48,0,0,1,6.54-.26,40.48,40.48,0,0,1,6.54.26,41.9,41.9,0,0,1-6.54.26A41.9,41.9,0,0,1,93.85,350.57Z" transform="translate(-44.25 -42.18)" style="fill: #e0e0e0"/>
      <path d="M74.77,344.57a34,34,0,0,1,.26,6c.06.06-.49-.49-.26-.25H76l1.13,0,1.9.05a5.67,5.67,0,0,1,1.76.19,6.34,6.34,0,0,1-1.76.18l-1.9.06H74.77c.24.23-.31-.32-.26-.27A35.15,35.15,0,0,1,74.77,344.57Z" transform="translate(-44.25 -42.18)" style="fill: #e0e0e0"/>
      <path d="M74.77,321.3a65.16,65.16,0,0,1,0,11.63,65.16,65.16,0,0,1,0-11.63Z" transform="translate(-44.25 -42.18)" style="fill: #e0e0e0"/>
      <path d="M74.77,298a65.16,65.16,0,0,1,0,11.63,65.16,65.16,0,0,1,0-11.63Z" transform="translate(-44.25 -42.18)" style="fill: #e0e0e0"/>
      <path d="M74.77,280.4a17.44,17.44,0,0,1,0,6,17.44,17.44,0,0,1,0-6Z" transform="translate(-44.25 -42.18)" style="fill: #e0e0e0"/>
    </g>
    <path d="M120.25,273.48a10.4,10.4,0,0,0-3.34-11.23,10.16,10.16,0,0,0-5.81-2.07,8.41,8.41,0,0,1-7.38-5,17.63,17.63,0,0,0-31.2-2.6c-1.12,1.77-2,3.83-3.85,4.86-2.33,1.3-5.19.42-7.85.25-7.89-.5-15.36,7.92-15,15.81Z" transform="translate(-44.25 -42.18)" style="fill: #f5f5f5"/>
    <path d="M323.94,78.35a10.4,10.4,0,0,0-3.35-11.23,10.09,10.09,0,0,0-5.81-2.07,8.39,8.39,0,0,1-7.37-5,17.64,17.64,0,0,0-31.21-2.59c-1.12,1.76-2,3.83-3.85,4.85-2.32,1.3-5.19.42-7.85.26-7.89-.5-15.36,7.92-14.95,15.81Z" transform="translate(-44.25 -42.18)" style="fill: #f5f5f5"/>
    <g>
      <circle cx="392.91" cy="210.73" r="66.8" transform="translate(-78.18 297.37) rotate(-45)" style="fill: #e0e0e0"/>
      <path d="M310.36,387.43c-1.58,40.17-31.17,73.42-71.37,74.2a72.8,72.8,0,0,1-74.2-71.37c-.78-40.2,31.28-77.29,71.37-74.2C278.92,319.34,311.81,350.77,310.36,387.43Z" transform="translate(-44.25 -42.18)" style="fill: #e0e0e0"/>
      <circle cx="125.69" cy="147.18" r="68.11" transform="translate(-111.51 89.81) rotate(-45)" style="fill: #e0e0e0"/>
      <path d="M384.28,226.48c1.06,1-24.75,30.68-57.64,66.34s-60.42,63.79-61.48,62.81,24.75-30.67,57.65-66.34S383.22,225.5,384.28,226.48Z" transform="translate(-44.25 -42.18)" style="fill: #e0e0e0"/>
      <path d="M370.59,178c-.3,1.41-45.79-7.3-101.57-19.44s-100.79-23.12-100.48-24.52,45.78,7.29,101.58,19.44S370.9,176.64,370.59,178Z" transform="translate(-44.25 -42.18)" style="fill: #e0e0e0"/>
      <path d="M204.78,342.58c-.59.37-7.67-9.75-18.38-26.57s-25-40.37-40.07-66.8-28-50.78-37-68.57-14.08-29-13.45-29.37,6.89,10.3,16.7,27.63l38.27,67.73,38.69,67.48C199.44,331.39,205.41,342.19,204.78,342.58Z" transform="translate(-44.25 -42.18)" style="fill: #e0e0e0"/>
    </g>
    <g>
      <path d="M418,118.65c.35,5.71.74,7.44,2.85,12,1.26,2.7,3,5.2,3.72,8.09s.31,5.66.82,8.44c.82,4.54,3.84,8.32,6.1,12.34s3.79,9.12,1.54,13.15l-23.14-2.73-1.63-28.72Z" transform="translate(-44.25 -42.18)" style="fill: #263238"/>
      <path d="M372,108.91c-3,6.36,1.17,12.71-1.82,19.06a49.8,49.8,0,0,0-3.78,9.72c-.71,3.05-.85,6.27-2.1,9.15-2,4.59-6.49,7.69-8.58,12.23-3.09,6.73.2,15.16,6.11,19.63s13.75,5.57,21.14,5.06c4.48-.32,9-1.21,12.87-3.51s6.95-6.2,7.43-10.66" transform="translate(-44.25 -42.18)" style="fill: #263238"/>
      <path d="M406.29,97.6c14.89,6.6,17.85,31.05,17.92,34.35.09,3.92,2.18,4.74,4.79,6.79s5.14,4.54,5.86,7.73c.57,2.51,0,5.28,1.17,7.57,1.44,2.73,4.83,3.75,7.47,5.43,5,3.19,7.43,9.19,7.71,15s-1.32,11.49-2.9,17.07c-.62,2.22-1.4,4.64-3.41,5.85-1.55.93-3.49.92-5.31.88l-28.27-.63c-7.21-.16-14.62-.36-21.28-3a26.64,26.64,0,0,1-13.07-11,21.6,21.6,0,0,1-2.35-16.51c1.17-4.24,3.75-8.07,4.49-12.4.92-5.37-3.58-7.66-5.21-12.87s-3-17.68-.74-22.67" transform="translate(-44.25 -42.18)" style="fill: #263238"/>
      <path d="M423.31,232.42l-4.65-14.9L418,240.27s6,15.55,10.62,27.43a69.74,69.74,0,0,1-70.56.49l7.16-25.73-3.41-29.1-9.44,13.51-20.16-19.48s14.75-27.25,16.58-29.74c11.67-15.86,31.82-15.48,31.82-15.48l28.5,1.58s16-.89,26.56,11.79c0,0,10.29,15.71,18.74,54.47Z" transform="translate(-44.25 -42.18)" style="fill: #e8505b"/>
      <path d="M437.56,179.8l-.41.07c-.27,0-.69.06-1.22.16a20,20,0,0,0-4.52,1.31,20.55,20.55,0,0,0-6.21,4.08,19.51,19.51,0,0,0-3,3.59,14,14,0,0,0-2.07,4.76,6.05,6.05,0,0,0,.09,2.74,4.39,4.39,0,0,0,1.64,2.28,3,3,0,0,0,2.77.44,3.39,3.39,0,0,0,1.92-2.24,4.26,4.26,0,0,0-.22-3.11,6.69,6.69,0,0,0-2.17-2.51,13.74,13.74,0,0,0-6.6-2.46,20.38,20.38,0,0,0-7.48.66,27.64,27.64,0,0,0-7.28,3,20.62,20.62,0,0,0-6,5.49,7.26,7.26,0,0,0-1.44,3.79,3.48,3.48,0,0,0,.51,1.92,4.75,4.75,0,0,0,1.46,1.43l-.05,0a2.78,2.78,0,0,0,2,.09,3,3,0,0,0,1.45-1.53,10.66,10.66,0,0,0,.84-4.55,12.91,12.91,0,0,0-.74-4.56,10.37,10.37,0,0,0-2.53-3.76,13.71,13.71,0,0,0-8-3.62,21.86,21.86,0,0,0-8.61,1c-2.71.84-5.42,1.94-7.16,4a5,5,0,0,0-1.28,3.57,4.9,4.9,0,0,0,1.75,3.25,3.11,3.11,0,0,0,1.63.71,2.56,2.56,0,0,0,1.68-.4,3.85,3.85,0,0,0,1.6-3,9,9,0,0,0-.39-3.48c-.18-.55-.42-1.08-.62-1.62-.11-.26-.2-.54-.33-.79l-.4-.75a20,20,0,0,0-3.87-5.15,24,24,0,0,0-9.5-5.69,23,23,0,0,0-8.32-1.1,21.22,21.22,0,0,0-5.24,1l-1.31.47-.46.14.44-.19,1.3-.52a20.27,20.27,0,0,1,5.26-1.08,23.15,23.15,0,0,1,8.42,1,24.32,24.32,0,0,1,9.66,5.7,20.17,20.17,0,0,1,4,5.23l.42.76c.13.26.22.54.34.81.21.55.45,1.09.64,1.66a9.44,9.44,0,0,1,.42,3.64,4.29,4.29,0,0,1-1.79,3.36,3.06,3.06,0,0,1-2,.47,3.57,3.57,0,0,1-1.88-.8,5.3,5.3,0,0,1-1.92-3.56,4.19,4.19,0,0,1,.29-2.1,6.84,6.84,0,0,1,1.08-1.82c1.86-2.21,4.64-3.33,7.38-4.18a22.08,22.08,0,0,1,8.82-1,14.1,14.1,0,0,1,8.33,3.75,10.66,10.66,0,0,1,2.66,3.94,13.41,13.41,0,0,1,.79,4.74,11.2,11.2,0,0,1-.9,4.79,3.51,3.51,0,0,1-1.72,1.78,3.3,3.3,0,0,1-2.42-.08h0l0,0a5.23,5.23,0,0,1-1.62-1.59,4,4,0,0,1-.58-2.19,7.74,7.74,0,0,1,1.53-4.08,21.07,21.07,0,0,1,6.19-5.62,27.91,27.91,0,0,1,7.42-3.08,20.8,20.8,0,0,1,7.65-.66,14.23,14.23,0,0,1,6.82,2.56,7.32,7.32,0,0,1,2.29,2.69,4.67,4.67,0,0,1,.22,3.42,3.77,3.77,0,0,1-2.17,2.48,3.33,3.33,0,0,1-3.13-.5,4.72,4.72,0,0,1-1.77-2.48,6.25,6.25,0,0,1-.08-2.91,14,14,0,0,1,2.15-4.87,20.07,20.07,0,0,1,3-3.62,20.68,20.68,0,0,1,6.33-4.06,18.93,18.93,0,0,1,4.58-1.22A14.15,14.15,0,0,1,437.56,179.8Z" transform="translate(-44.25 -42.18)" style="fill: #fafafa"/>
      <path d="M449.64,212.39a20.07,20.07,0,0,0-2.58,1.24,13.22,13.22,0,0,0-5.12,5.73,12,12,0,0,0-.82,2.43,5,5,0,0,0,0,2.69,2.17,2.17,0,0,0,.73,1.1,1.37,1.37,0,0,0,1.26.14,2.83,2.83,0,0,0,1.52-2.38,5.48,5.48,0,0,0-3-5.41,7,7,0,0,0-6.79.64,9.75,9.75,0,0,0-3.84,5.91,4.42,4.42,0,0,0,.26,3.24,2.06,2.06,0,0,0,2.57,1,2.6,2.6,0,0,0,1.46-2.38,5.24,5.24,0,0,0-.86-2.73,8.06,8.06,0,0,0-4.06-3.27,7.55,7.55,0,0,0-4.32-.26,8.27,8.27,0,0,0-3,1.4,9.8,9.8,0,0,0-2,2s0-.06.08-.17a3.09,3.09,0,0,1,.3-.47,7.08,7.08,0,0,1,1.49-1.56,8.18,8.18,0,0,1,3.06-1.52,7.73,7.73,0,0,1,4.51.2,8.3,8.3,0,0,1,4.3,3.38,5.64,5.64,0,0,1,1,3,3.08,3.08,0,0,1-1.72,2.81,2.26,2.26,0,0,1-1.82,0,2.93,2.93,0,0,1-1.37-1.21,4.87,4.87,0,0,1-.34-3.61,10.23,10.23,0,0,1,4.05-6.23,7.45,7.45,0,0,1,7.31-.66,6,6,0,0,1,3.29,5.92,3.32,3.32,0,0,1-1.83,2.75,1.85,1.85,0,0,1-1.68-.2,2.56,2.56,0,0,1-.89-1.35,5.28,5.28,0,0,1,0-2.9,11.8,11.8,0,0,1,.88-2.49,13.1,13.1,0,0,1,5.34-5.75A8.79,8.79,0,0,1,449.64,212.39Z" transform="translate(-44.25 -42.18)" style="fill: #fafafa"/>
      <path d="M418.09,226.77l-.25-.05-.71-.17a21.71,21.71,0,0,0-2.77-.47,21.16,21.16,0,0,0-10.11,1.41,19.75,19.75,0,0,0-3,1.54,8.62,8.62,0,0,0-2.64,2.47,4,4,0,0,0-.5,3.62,3.11,3.11,0,0,0,1.12,1.55,2.33,2.33,0,0,0,1.85.4,3.51,3.51,0,0,0,2.57-2.95,6.44,6.44,0,0,0-1.16-4.22,12.8,12.8,0,0,0-7.62-5.41,12.49,12.49,0,0,0-9.23,1.39,11.48,11.48,0,0,0-3.41,3,6,6,0,0,0-.88,2,2.82,2.82,0,0,0,.16,2,2,2,0,0,0,1.53,1,2.84,2.84,0,0,0,1.82-.53,3.44,3.44,0,0,0,1.34-3.31,8.32,8.32,0,0,0-1.16-3.42,12.05,12.05,0,0,0-2.09-2.65,13.71,13.71,0,0,0-5-3,12.75,12.75,0,0,0-4.35-.68,14.84,14.84,0,0,0-3.73.6s.07,0,.23-.1l.69-.25a11.58,11.58,0,0,1,2.8-.45,12.58,12.58,0,0,1,4.45.6,13.79,13.79,0,0,1,5.14,3,12.64,12.64,0,0,1,2.18,2.72,8.82,8.82,0,0,1,1.24,3.58,4.71,4.71,0,0,1-.22,2,3.39,3.39,0,0,1-1.29,1.7,3.34,3.34,0,0,1-2.12.62,2.42,2.42,0,0,1-1.91-1.26,3.3,3.3,0,0,1-.22-2.31,6.48,6.48,0,0,1,.95-2.13,11.71,11.71,0,0,1,3.56-3.11A12.93,12.93,0,0,1,395,224a13.24,13.24,0,0,1,7.93,5.64,7,7,0,0,1,1.22,4.56,4,4,0,0,1-3,3.35,2.81,2.81,0,0,1-2.22-.49,3.64,3.64,0,0,1-1.28-1.78,4.48,4.48,0,0,1-.19-2.11,5,5,0,0,1,.77-1.9,9.05,9.05,0,0,1,2.79-2.57,19.51,19.51,0,0,1,3.11-1.54,20.75,20.75,0,0,1,10.27-1.27A14.37,14.37,0,0,1,418.09,226.77Z" transform="translate(-44.25 -42.18)" style="fill: #fafafa"/>
      <path d="M306.39,143.42c2.07.11,1.48,11.41,3,9s-.89-13.87,1.28-13.67c2.81.27,2,12.09,2,13.1s1.45,1,1.4.09c-.07-1.3-.51-15,2.26-14.77,1.54.13,1,2.88,1,2.88s-.54,12.87.78,12.93,1.9-7.48,1.91-10,1.22-3.57,2.33-2.67c.76.62.91,8.44.84,11s-.39,9.46,2.54,6.1,6.43-4.87,7.65-4.63,1.27,2,0,2.6a16.64,16.64,0,0,0-3.54,2.79,16.12,16.12,0,0,0-2.16,2.89,12.31,12.31,0,0,0-1.54,3.58l3.93,47.15,2.89-3.61,16.47,15.93L340.84,234c-6.3,7.25-17.7,7.72-24.1.56-.23-.26-.46-.53-.67-.81a13.38,13.38,0,0,1-2.67-7.15L308,165.43h0c-.12-6.79-2-12-2.28-15.46C305,143.45,305.61,143.38,306.39,143.42Z" transform="translate(-44.25 -42.18)" style="fill: #ffbf9d"/>
      <g>
        <g>
          <path d="M382.54,168.61c.06-7.11,0-14.59,0-14.59s-9.14-1.63-10.9-13.6c-1.68-11.42,1.17-36,1.17-36h0c13.24-5.22,28.15-3.2,37.43,7.45h0l-1.45,57.74c-.16,6.7-6.06,11.89-13.24,11.66h0C388.31,181.06,382.49,175.38,382.54,168.61Z" transform="translate(-44.25 -42.18)" style="fill: #ffbf9d"/>
          <g>
            <path d="M375.29,123.3a1.55,1.55,0,0,0,1.46,1.57,1.47,1.47,0,0,0,1.6-1.37,1.53,1.53,0,0,0-1.46-1.56A1.47,1.47,0,0,0,375.29,123.3Z" transform="translate(-44.25 -42.18)" style="fill: #263238"/>
            <path d="M372.83,121.56c.19.2,1.36-.65,3-.62s2.84.86,3,.66-.1-.45-.63-.84a4.18,4.18,0,0,0-2.42-.78,4,4,0,0,0-2.4.75C372.91,121.11,372.74,121.47,372.83,121.56Z" transform="translate(-44.25 -42.18)" style="fill: #263238"/>
          </g>
          <g>
            <path d="M392.17,123.79a1.53,1.53,0,0,0,1.46,1.56,1.47,1.47,0,0,0,1.6-1.36,1.53,1.53,0,0,0-1.46-1.56A1.46,1.46,0,0,0,392.17,123.79Z" transform="translate(-44.25 -42.18)" style="fill: #263238"/>
            <path d="M390,122.36c.19.2,1.36-.65,3-.62s2.84.86,3,.66-.09-.45-.62-.84a4.18,4.18,0,0,0-2.42-.78,4,4,0,0,0-2.4.74C390.11,121.91,389.94,122.27,390,122.36Z" transform="translate(-44.25 -42.18)" style="fill: #263238"/>
          </g>
          <path d="M383.9,134.52a10.22,10.22,0,0,0-2.67-.52c-.42-.05-.82-.13-.89-.42a2.21,2.21,0,0,1,.3-1.25c.41-1,.83-2.08,1.28-3.19,1.78-4.54,3.08-8.28,2.89-8.35s-1.77,3.55-3.55,8.1L380,132.1a2.4,2.4,0,0,0-.24,1.65,1,1,0,0,0,.68.62,2.53,2.53,0,0,0,.72.11A11,11,0,0,0,383.9,134.52Z" transform="translate(-44.25 -42.18)" style="fill: #263238"/>
          <path d="M382.54,154a30.38,30.38,0,0,0,16-4.09s-4,8.17-15.92,6.91Z" transform="translate(-44.25 -42.18)" style="fill: #ff9a6c"/>
          <path d="M384.55,138.5a3,3,0,0,1,2.68-1.07,2.69,2.69,0,0,1,1.86,1,1.72,1.72,0,0,1,.11,2,2,2,0,0,1-2.17.52,6.31,6.31,0,0,1-2.09-1.28,2,2,0,0,1-.47-.49.56.56,0,0,1,0-.62" transform="translate(-44.25 -42.18)" style="fill: #ff9a6c"/>
          <path d="M388.74,135.71c-.27,0-.29,1.77-1.84,3s-3.45,1-3.46,1.28.42.35,1.22.38a4.4,4.4,0,0,0,2.89-1A3.84,3.84,0,0,0,389,136.9C389.06,136.15,388.86,135.7,388.74,135.71Z" transform="translate(-44.25 -42.18)" style="fill: #263238"/>
        </g>
        <path d="M405.05,103.38c-4.38,6.23-15.95,12.64-24.24,14.13,1-1.27,6.06-4.41,7-5.68-3.76,2.8-9.14,6.55-14.12,6.81a3,3,0,0,1-1.72-.27,2.31,2.31,0,0,1-.87-1.88,49.56,49.56,0,0,1,.35-10.82,11.94,11.94,0,0,1,4.31-7.73c3.19-2.47,7.76-3.08,12.07-3.18a27.34,27.34,0,0,1,10.64,1.43c3.3,1.3,6.12,3.88,6.6,7" transform="translate(-44.25 -42.18)" style="fill: #263238"/>
        <path d="M417.58,131.31a67.59,67.59,0,0,0,1.19-8c.36-6.16-1.42-28.92-22.68-27.09l5.11,6.53S397,116.55,406,126.07c0,0,.5,5.57,6.73,12,0,0,3.61-.11,4.9-6.75" transform="translate(-44.25 -42.18)" style="fill: #263238"/>
        <path d="M405.69,125a7.2,7.2,0,0,1,3.85.29,5,5,0,0,1,2.78,2.59,5.15,5.15,0,0,1,0,3.82,8.77,8.77,0,0,1-2.21,3.19,6,6,0,0,1-2.34,1.51,2.86,2.86,0,0,1-2.66-.44" transform="translate(-44.25 -42.18)" style="fill: #ffbf9d"/>
        <path d="M406.31,132.79c-.15,0,.4.82,1.57.52a2.5,2.5,0,0,0,1.46-1.24A5.67,5.67,0,0,0,410,130a3.35,3.35,0,0,0-.51-2.25,2.23,2.23,0,0,0-1.67-1c-1.2,0-1.58.79-1.45.81s.57-.32,1.35-.13a2.17,2.17,0,0,1,1.31,2.49c-.16,1.31-.68,2.51-1.38,2.8S406.39,132.68,406.31,132.79Z" transform="translate(-44.25 -42.18)" style="fill: #ff9a6c"/>
      </g>
      <g>
        <polygon points="376.43 205.1 376.43 199.64 338 199.64 326.72 150.24 269.21 150.72 283.16 205.1 376.43 205.1" style="fill: #263238"/>
        <path d="M340.71,219.88c.85,2.62,3.16,4.21,5.17,3.56s2.94-3.3,2.09-5.91-3.17-4.21-5.17-3.56S339.86,217.27,340.71,219.88Z" transform="translate(-44.25 -42.18)" style="fill: #fafafa"/>
      </g>
      <path d="M368.34,247a35.64,35.64,0,0,1-2.4-5.75,3.52,3.52,0,0,1-.23-1.46,1.25,1.25,0,0,1,.89-1.09c.89-.18,1.45.91,1.8,1.75a10.89,10.89,0,0,0,7.54,6.33l2.33-.06v-.1l50.26-4.48-2.39-10,26.61-2,2.42,9.82a20.24,20.24,0,0,1-20.88,22.37H376.62c-18.35,1.2-21.8-15-21.8-15Z" transform="translate(-44.25 -42.18)" style="fill: #ffbf9d"/>
    </g>
    <g>
      <g>
        <path d="M301.51,408.11l-22.72,14,8.33,20.05A72.93,72.93,0,0,0,305,416.43Z" transform="translate(-44.25 -42.18)" style="fill: #b78876"/>
        <g>
          <path d="M307.67,408.57c-2.94-7-13-30.24-21.45-38.92-12.63-13-34.86-11.24-34.86-11.24l-28.87,1A67.54,67.54,0,0,0,201.22,366l-.71.22v.14c-8.09,4.39-19.53,14.92-30.43,25.14l13,12.1,14.44,12.82a.44.44,0,0,0,0,.26c.15.78-2.35,16.29-4.56,29.69a72.84,72.84,0,0,0,76.7,7.8l1.07-12.39c1-11.23,1.74-25.13,1.74-25.13l4.15,10.51,30.12-15.66C307.09,410.54,307.39,409.56,307.67,408.57Z" transform="translate(-44.25 -42.18)" style="fill: #e8505b"/>
          <path d="M252.16,357.31a2.18,2.18,0,0,1,.13.52,10.82,10.82,0,0,1,.19,1.51,15.09,15.09,0,0,1-.75,5.55,15.17,15.17,0,0,1-14,10.58A15.53,15.53,0,0,1,228,372.7a15.69,15.69,0,0,1-5.2-6.45,15,15,0,0,1-1.27-5.45,12.88,12.88,0,0,1,0-1.52,2.26,2.26,0,0,1,.08-.53c.06,0,0,.73.08,2a16,16,0,0,0,1.4,5.31,15.79,15.79,0,0,0,5.14,6.21,15.51,15.51,0,0,0,18.54-.88,15.59,15.59,0,0,0,4.53-6.66,16,16,0,0,0,.9-5.42C252.25,358,252.1,357.32,252.16,357.31Z" transform="translate(-44.25 -42.18)" style="fill: #263238"/>
          <path d="M279.66,363.58a13.32,13.32,0,0,0-2.05.48,9.93,9.93,0,0,0-4.47,3.4,15.8,15.8,0,0,0-2.84,7.85c-.2,1.59-.29,3.28-.35,5s-.1,3.56-.12,5.42a182.32,182.32,0,0,0,.86,19c.22,2.42.47,4.38.62,5.74.07.63.13,1.14.17,1.56a1.92,1.92,0,0,1,0,.55,2.21,2.21,0,0,1-.13-.54c-.07-.41-.16-.92-.28-1.55-.21-1.34-.51-3.3-.78-5.73a156.63,156.63,0,0,1-1-19.05c0-1.86.05-3.68.13-5.44s.17-3.46.38-5.07a16,16,0,0,1,3-8,9.76,9.76,0,0,1,4.7-3.36A5.45,5.45,0,0,1,279.66,363.58Z" transform="translate(-44.25 -42.18)" style="fill: #263238"/>
          <path d="M210.93,361.7a1.92,1.92,0,0,1-.12.56l-.45,1.58c-.42,1.44-1,3.41-1.69,5.8-1.42,4.9-3.29,11.69-5.12,19.25s-3.26,14.46-4.23,19.47c-.47,2.45-.86,4.46-1.14,5.93-.13.65-.24,1.18-.32,1.61a2.1,2.1,0,0,1-.15.55,2.45,2.45,0,0,1,0-.57c.06-.43.14-1,.23-1.63.2-1.41.53-3.45,1-6,.88-5,2.26-12,4.09-19.52s3.76-14.36,5.26-19.23c.76-2.44,1.39-4.41,1.86-5.76l.54-1.55A2.61,2.61,0,0,1,210.93,361.7Z" transform="translate(-44.25 -42.18)" style="fill: #263238"/>
          <path d="M307.1,403.74a8,8,0,0,1-1.18.88c-.77.54-1.91,1.3-3.33,2.21-2.83,1.84-6.81,4.29-11.28,6.85s-8.59,4.75-11.61,6.27c-1.51.76-2.73,1.36-3.59,1.76a8.36,8.36,0,0,1-1.35.57,7.46,7.46,0,0,1,1.26-.75l3.51-1.91c3-1.6,7.06-3.83,11.52-6.39s8.46-5,11.35-6.71l3.41-2.07A9.1,9.1,0,0,1,307.1,403.74Z" transform="translate(-44.25 -42.18)" style="fill: #263238"/>
          <path d="M199.07,408.13c-.09.11-5.77-4.36-12.68-10s-12.45-10.29-12.35-10.4,5.76,4.36,12.68,10S199.16,408,199.07,408.13Z" transform="translate(-44.25 -42.18)" style="fill: #263238"/>
          <path d="M269.55,387.81,280.85,425l-4.2,2.18-4.15-10.51S268.24,394.57,269.55,387.81Z" transform="translate(-44.25 -42.18)" style="opacity: 0.2"/>
          <g style="opacity: 0.2">
            <path d="M212.16,361.72c-6.1,3.22,9.17,10.95,16.07,10.74l-5-13.22S214.2,360.65,212.16,361.72Z" transform="translate(-44.25 -42.18)"/>
          </g>
          <polygon points="206.79 373.47 170.61 373.61 172.99 360.29 209.47 359.58 206.79 373.47" style="fill: #fff;opacity: 0.2"/>
        </g>
        <g>
          <path d="M247.58,314.41a2.67,2.67,0,0,0,3.83,3.09c1.74-.93,1.92-3.37,1.54-5.3s-1.09-4-.31-5.82c.6-1.39,1.93-2.29,3-3.4a8.55,8.55,0,0,0,2.23-7.28,7.18,7.18,0,0,0-5-5.55c-2.6-.67-5.78.19-7.74-1.65-1.43-1.33-1.56-3.56-2.67-5.16-1.73-2.48-5.28-2.81-8.27-2.35s-6,1.49-9,.82c-2.46-.56-4.51-2.24-6.83-3.24a13.25,13.25,0,0,0-16.9,18.52,8.5,8.5,0,0,0,4.19,4" transform="translate(-44.25 -42.18)" style="fill: #263238"/>
          <g>
            <g>
              <g>
                <path d="M237.09,375.16h0a14.82,14.82,0,0,1-14.9-14c-.33-6.56-.6-12.87-.6-12.87s-12.17-.88-13.29-12.77S207,296.1,207,296.1h0a42.18,42.18,0,0,1,42.37,1.84l1.16.74L252,360.23A14.84,14.84,0,0,1,237.09,375.16Z" transform="translate(-44.25 -42.18)" style="fill: #b78876"/>
                <g>
                  <path d="M230.11,314.4a1.72,1.72,0,0,0-1.11,2.19,1.75,1.75,0,1,0,1.11-2.19Z" transform="translate(-44.25 -42.18)" style="fill: #263238"/>
                  <path d="M226.77,315c.21.2,1.33-.77,3-.88s2.91.67,3.08.45-.13-.46-.68-.82a4,4,0,0,0-2.47-.62,4.13,4.13,0,0,0-2.37,1C226.83,314.54,226.68,314.93,226.77,315Z" transform="translate(-44.25 -42.18)" style="fill: #263238"/>
                </g>
                <g>
                  <path d="M212,314.4a1.73,1.73,0,0,0-1.11,2.19,1.75,1.75,0,0,0,2.21,1.1,1.73,1.73,0,1,0-1.1-3.29Z" transform="translate(-44.25 -42.18)" style="fill: #263238"/>
                  <path d="M208.39,315.05c.21.2,1.33-.78,3-.88s2.91.67,3.08.45-.13-.46-.68-.83a4.14,4.14,0,0,0-4.84.35C208.45,314.58,208.3,315,208.39,315.05Z" transform="translate(-44.25 -42.18)" style="fill: #263238"/>
                </g>
                <path d="M220.89,327.91a8.08,8.08,0,0,0-2.72-.34c-.44,0-.78-.09-.84-.31a2.52,2.52,0,0,1,.21-1.26l1-3.43c1.42-4.9,2.37-8.92,2.12-9s-1.61,3.83-3,8.73l-1,3.45a2.75,2.75,0,0,0-.09,1.81,1.14,1.14,0,0,0,.8.62,3.37,3.37,0,0,0,.75,0A8.13,8.13,0,0,0,220.89,327.91Z" transform="translate(-44.25 -42.18)" style="fill: #263238"/>
                <path d="M226.41,329.29a40.61,40.61,0,0,1-7.92,3,4.61,4.61,0,0,0,5.54,1.37C227.52,332.05,226.41,329.29,226.41,329.29Z" transform="translate(-44.25 -42.18)" style="fill: #fff"/>
                <path d="M221.56,348.1a28.22,28.22,0,0,0,15.3-5.67s-3,8.87-15.08,8.76Z" transform="translate(-44.25 -42.18)" style="fill: #a36957"/>
              </g>
              <g>
                <path d="M250.85,310.71a1.81,1.81,0,0,1,1.7-1.84c2.25-.1,5.93.71,6.4,6.84.66,8.76-7.89,6.74-7.92,6.49S250.9,314.12,250.85,310.71Z" transform="translate(-44.25 -42.18)" style="fill: #b78876"/>
                <path d="M252.91,318.71s.16.1.43.2a1.61,1.61,0,0,0,1.15-.06c.91-.41,1.58-1.94,1.51-3.52a5.13,5.13,0,0,0-.6-2.16,1.78,1.78,0,0,0-1.25-1.08.78.78,0,0,0-.87.49c-.1.25,0,.42-.08.44s-.2-.13-.16-.5a1.07,1.07,0,0,1,.31-.58,1.19,1.19,0,0,1,.83-.28,2.16,2.16,0,0,1,1.72,1.24,5.12,5.12,0,0,1,.71,2.4c.08,1.77-.71,3.49-2,3.95a1.69,1.69,0,0,1-1.43-.13C252.94,318.92,252.88,318.73,252.91,318.71Z" transform="translate(-44.25 -42.18)" style="fill: #a36957"/>
              </g>
            </g>
            <path d="M232.68,310.13c-.38.48-1.68.26-3.38.19s-3-.07-3.32-.6,1.28-1.79,3.47-1.62S233.09,309.63,232.68,310.13Z" transform="translate(-44.25 -42.18)" style="fill: #263238"/>
            <path d="M213.56,309.83c-.12.6-1.22.89-2.46,1s-2.37,0-2.6-.57.8-1.5,2.4-1.64S213.69,309.24,213.56,309.83Z" transform="translate(-44.25 -42.18)" style="fill: #263238"/>
          </g>
          <path d="M205.34,299.87s7.21,3.49,16.6-1.2c6.17-3.07,13.35-4.58,14.94-3.34s1.91,7.59,8,9.45c0,0-.42,12.11,4.41,11.68s1.81-19.2,1.81-19.2l-11.82-5.77-12.89-2.44-12.15,1.72-9.41,2.57Z" transform="translate(-44.25 -42.18)" style="fill: #263238"/>
        </g>
      </g>
      <g>
        <g>
          <path d="M162.16,320.61c.43.69,14.33,48.86,14.33,48.86l-27.58,3.76-12.69-39.31Z" transform="translate(-44.25 -42.18)" style="fill: #455a64"/>
          <polygon points="132.24 327.29 134.72 325.97 120.28 277.17 117.61 278.59 132.24 327.29" style="fill: #263238"/>
          <path d="M150.61,333.4a1.18,1.18,0,0,1-.9,1.39,1.17,1.17,0,0,1-.49-2.29A1.18,1.18,0,0,1,150.61,333.4Z" transform="translate(-44.25 -42.18)" style="fill: #263238"/>
        </g>
        <path d="M171.29,391.45l-18.1,11.79-3.33-42.17h0l.29-2.11,12.25-4.68-3.52-9a7.77,7.77,0,0,0-10.73-4l-3.92,2a11.09,11.09,0,0,0-5.68,7c-1.39,5.22-2.63,10.87-2.5,10.38h0l-7.75,54.28s-3.69,15.65,7,23.1c8.09,5.62,21.71-.35,29-4.44L195.6,414.7Z" transform="translate(-44.25 -42.18)" style="fill: #b78876"/>
      </g>
    </g>
    <g>
      <g>
        <path d="M189.78,170.08,177.5,151.41l-20.69,13,18.76,28.93S185.89,182.14,189.78,170.08Z" transform="translate(-44.25 -42.18)" style="fill: #ff9a6c"/>
        <g>
          <path d="M112.87,76.69c1-1.12-.36-2.86-1.77-3.38s-3.18-.75-3.86-2.09c-.82-1.63.63-3.46.89-5.27s-.83-3.77-1.16-5.7a7.18,7.18,0,0,1,9.44-8A9.36,9.36,0,0,1,133,46.7,26.41,26.41,0,0,1,138.94,43a8.9,8.9,0,0,1,6.83-.2,5.43,5.43,0,0,1,3.32,5.61A5.93,5.93,0,0,1,156,47.16a8.84,8.84,0,0,1,4.49,5.78c.92,3.4.12,7.4-2.59,9.64s-7.34,2-9.34-.85" transform="translate(-44.25 -42.18)" style="fill: #263238"/>
          <g>
            <g>
              <g>
                <g>
                  <path d="M126.15,134.16h0A13.89,13.89,0,0,0,140.09,121c.3-6.13.56-12,.56-12s11.38-.83,12.43-12,1.2-36.87,1.2-36.87h0a39.48,39.48,0,0,0-39.65,1.73l-1.09.69-1.31,57.59A13.88,13.88,0,0,0,126.15,134.16Z" transform="translate(-44.25 -42.18)" style="fill: #ffbf9d"/>
                  <g>
                    <path d="M132.68,77.3a1.62,1.62,0,1,1-2.07,1A1.65,1.65,0,0,1,132.68,77.3Z" transform="translate(-44.25 -42.18)" style="fill: #263238"/>
                    <path d="M135.8,77.88c-.19.18-1.24-.72-2.79-.82s-2.73.62-2.88.42.11-.43.63-.78a3.87,3.87,0,0,1,4.53.33C135.74,77.44,135.89,77.8,135.8,77.88Z" transform="translate(-44.25 -42.18)" style="fill: #263238"/>
                  </g>
                  <g>
                    <path d="M149.67,77.3a1.62,1.62,0,1,1-2.07,1A1.64,1.64,0,0,1,149.67,77.3Z" transform="translate(-44.25 -42.18)" style="fill: #263238"/>
                    <path d="M153,77.92c-.19.18-1.25-.73-2.8-.83s-2.72.63-2.88.42.12-.43.63-.77a3.85,3.85,0,0,1,4.53.32C152.94,77.47,153.09,77.83,153,77.92Z" transform="translate(-44.25 -42.18)" style="fill: #263238"/>
                  </g>
                  <path d="M141.3,90a7.64,7.64,0,0,1,2.55-.33c.41,0,.73-.07.78-.29a2.26,2.26,0,0,0-.19-1.17c-.32-1-.64-2.1-1-3.21-1.33-4.58-2.22-8.35-2-8.41s1.5,3.59,2.82,8.16c.32,1.12.61,2.19.91,3.24a2.52,2.52,0,0,1,.08,1.69,1.06,1.06,0,0,1-.75.58,2.44,2.44,0,0,1-.7,0A7.74,7.74,0,0,1,141.3,90Z" transform="translate(-44.25 -42.18)" style="fill: #263238"/>
                  <path d="M136.14,91.24a39,39,0,0,0,7.41,2.8,4.32,4.32,0,0,1-5.19,1.28C135.1,93.82,136.14,91.24,136.14,91.24Z" transform="translate(-44.25 -42.18)" style="fill: #fff"/>
                  <path d="M140.68,108.84a26.36,26.36,0,0,1-14.31-5.31s2.8,8.3,14.1,8.2Z" transform="translate(-44.25 -42.18)" style="fill: #ff9a6c"/>
                </g>
                <g>
                  <path d="M113.27,79a1.69,1.69,0,0,0-1.59-1.72c-2.1-.1-5.55.66-6,6.39-.62,8.2,7.38,6.31,7.41,6.07S113.23,82.14,113.27,79Z" transform="translate(-44.25 -42.18)" style="fill: #ffbf9d"/>
                  <path d="M111.35,86.43s-.15.09-.4.19a1.47,1.47,0,0,1-1.08-.06c-.85-.39-1.48-1.82-1.41-3.3a4.66,4.66,0,0,1,.56-2,1.63,1.63,0,0,1,1.16-1,.72.72,0,0,1,.82.45c.1.24,0,.4.07.41s.19-.12.15-.46a.89.89,0,0,0-.28-.54,1.15,1.15,0,0,0-.79-.27,2.06,2.06,0,0,0-1.6,1.16,4.91,4.91,0,0,0-.67,2.25c-.07,1.65.66,3.26,1.83,3.69a1.54,1.54,0,0,0,1.34-.12C111.32,86.63,111.38,86.45,111.35,86.43Z" transform="translate(-44.25 -42.18)" style="fill: #ff9a6c"/>
                </g>
              </g>
              <path d="M130.28,73.31c.35.45,1.57.24,3.16.18s2.82-.07,3.11-.56-1.21-1.68-3.25-1.51S129.89,72.85,130.28,73.31Z" transform="translate(-44.25 -42.18)" style="fill: #263238"/>
              <path d="M148.16,73c.12.57,1.15.84,2.31,1s2.22,0,2.43-.54-.76-1.4-2.25-1.53S148,72.48,148.16,73Z" transform="translate(-44.25 -42.18)" style="fill: #263238"/>
            </g>
            <path d="M155.86,63.71s-6.75,3.27-15.54-1.12c-5.77-2.88-12.49-4.28-14-3.12s-1.8,7.1-7.51,8.83c0,0,.39,11.34-4.13,10.93s-1.69-18-1.69-18l11.06-5.4,12.06-2.28,11.37,1.6,8.8,2.41Z" transform="translate(-44.25 -42.18)" style="fill: #263238"/>
          </g>
        </g>
        <g>
          <g>
            <path d="M80.18,129.31C92,117.16,112.8,118.48,112.8,118.48l27,1a63.38,63.38,0,0,1,19.9,6.16l.67.21v.13c7.56,4.11,18.27,14,28.47,23.52l-12.21,11.32-13.51,12a.35.35,0,0,1,0,.24c-.14.72,2.2,15.24,4.27,27.77a68.18,68.18,0,0,1-71.76,7.31l-1-11.59C93.72,186,93,173,93,173" transform="translate(-44.25 -42.18)" style="fill: #e8505b"/>
            <path d="M150.62,121.56a2.15,2.15,0,0,1,.21.5c.14.38.31.86.51,1.45.44,1.26,1,3.1,1.74,5.38,1.42,4.56,3.22,10.91,4.94,18s3,13.56,3.82,18.27c.41,2.35.72,4.26.91,5.58.08.61.15,1.11.2,1.52a1.7,1.7,0,0,1,0,.54,2.46,2.46,0,0,1-.14-.52l-.3-1.51c-.27-1.38-.63-3.26-1.07-5.55-.92-4.68-2.26-11.13-4-18.21s-3.46-13.42-4.78-18c-.65-2.23-1.19-4.07-1.58-5.42-.17-.6-.3-1.09-.42-1.48A1.86,1.86,0,0,1,150.62,121.56Z" transform="translate(-44.25 -42.18)" style="fill: #263238"/>
            <path d="M161.72,165c-.09-.11,5.08-4.47,11.55-9.74s11.78-9.45,11.87-9.34-5.08,4.47-11.54,9.74S161.81,165.11,161.72,165Z" transform="translate(-44.25 -42.18)" style="fill: #263238"/>
            <path d="M95.78,146,85.2,180.78l3.94,2.05L93,173S97,152.32,95.78,146Z" transform="translate(-44.25 -42.18)" style="opacity: 0.2"/>
            <g style="opacity: 0.2">
              <path d="M149.48,121.58c5.7,3-8.59,10.24-15,10l4.68-12.37S147.56,120.58,149.48,121.58Z" transform="translate(-44.25 -42.18)"/>
            </g>
          </g>
          <path d="M111.1,119.26v-9.21s18,4.63,18.64,15.4c0,0,2.29-11.9,11.56-12.48l1.31,16.75-10.78,9.38H120.89l-8.66-7.47L111.1,120" transform="translate(-44.25 -42.18)" style="fill: #e8505b"/>
          <path d="M133.79,177.09a3.45,3.45,0,0,1,0-.51c0-.4,0-.88,0-1.47,0-1.27.07-3.12.08-5.39,0-4.55-.12-10.84-.69-17.76s-1.48-13.14-2.25-17.63c-.39-2.24-.72-4.05-1-5.3-.1-.58-.19-1.06-.26-1.44a1.85,1.85,0,0,1-.05-.52,2.1,2.1,0,0,1,.16.49c.09.39.21.86.35,1.43.31,1.24.7,3,1.13,5.28a168.57,168.57,0,0,1,2.41,17.65,166.56,166.56,0,0,1,.53,17.8c-.05,2.28-.14,4.13-.23,5.4-.05.58-.09,1.07-.12,1.46A1.59,1.59,0,0,1,133.79,177.09Z" transform="translate(-44.25 -42.18)" style="fill: #263238"/>
          <path d="M128.92,122.35a2.07,2.07,0,0,0-1.08.08,2.33,2.33,0,0,0-1,.77,8.27,8.27,0,0,0-.84,1.53,51.41,51.41,0,0,0-3.44,10l-.08.34-.3-.18c-1.08-.65-2.18-1.35-3.29-2.1a68.66,68.66,0,0,1-5.83-4.43,7.36,7.36,0,0,1-2-2.58,8.36,8.36,0,0,1-.61-2.77,16.45,16.45,0,0,1,.39-4,7.22,7.22,0,0,1,.37-1.43,9.1,9.1,0,0,1-.17,1.47,18.38,18.38,0,0,0-.22,4,7.85,7.85,0,0,0,.64,2.61,6.89,6.89,0,0,0,1.9,2.4,70.27,70.27,0,0,0,5.81,4.35c1.1.75,2.19,1.45,3.25,2.1l-.38.16a46.16,46.16,0,0,1,3.64-10,8.05,8.05,0,0,1,.94-1.55,2.41,2.41,0,0,1,1.14-.78A1.2,1.2,0,0,1,128.92,122.35Z" transform="translate(-44.25 -42.18)" style="fill: #263238"/>
          <path d="M141.3,113a7.19,7.19,0,0,1,.15,1.44c.07,1,.16,2.35.27,3.93s.33,3.61.67,5.78a9.6,9.6,0,0,1,.21,3.51,6.06,6.06,0,0,1-2.35,3,26.62,26.62,0,0,0-4,3l-.4.45,0-.6a21.62,21.62,0,0,0-2.68-9c-1.16-2.05-2.11-3.1-2-3.15a4,4,0,0,1,.69.72,17.51,17.51,0,0,1,1.62,2.27,20.72,20.72,0,0,1,2.91,9.11l-.44-.15a25.75,25.75,0,0,1,4-3.1,5.68,5.68,0,0,0,2.17-2.7,9.81,9.81,0,0,0-.2-3.32c-.31-2.19-.47-4.17-.55-5.83s-.11-3-.11-3.94A8.83,8.83,0,0,1,141.3,113Z" transform="translate(-44.25 -42.18)" style="fill: #263238"/>
        </g>
      </g>
      <g>
        <g>
          <path d="M199.22,115.29c-.73.86-27.22,36.28-27.22,36.28l3.73,2.11,27.18-35Z" transform="translate(-44.25 -42.18)" style="fill: #263238"/>
          <path d="M92.8,143.29s27.87,40.12,29.55,40.91c3.31,1.55,41.43-31.4,45.07-34.55.5-.67,1.53-2.08,3.56-4.89,0,0,3-13.77,6.22-12.71s-1.76,7,.33,12.23,11.67-7.25,12.05-8.37l2.47-3.23s2.59,7.35,2.42,10.41c-.57,9.82-9.86,21.5-9.86,21.5s-41.72,51.69-70.3,53.29c-8.24.46-22.87-22.89-32.65-40.41a24,24,0,0,1,6.83-31Z" transform="translate(-44.25 -42.18)" style="fill: #ffbf9d"/>
          <path d="M189.78,144.84c-.08-.05.82-1.62,1.81-3.62s1.69-3.67,1.78-3.64a24.94,24.94,0,0,1-3.59,7.26Z" transform="translate(-44.25 -42.18)" style="fill: #ff9a6c"/>
        </g>
        <g>
          <path d="M88.08,123.71s-29.91,10.64-7.67,60.94l34.53-20.84L110,152.05Z" transform="translate(-44.25 -42.18)" style="fill: #e8505b"/>
          <path d="M85.79,124.59a.75.75,0,0,1,.24,0h.7a11.83,11.83,0,0,1,2.66.35,14.27,14.27,0,0,1,3.91,1.66,21,21,0,0,1,4.35,3.58,52,52,0,0,1,8.1,12.13c2.53,4.89,4.89,10.46,7.31,16.31l2.12,5.12.09.22-.2.11c-10,5.45-18.69,10.55-24.84,14.38-3.07,1.91-5.52,3.48-7.2,4.57l-1.93,1.25a4.29,4.29,0,0,1-.69.41,5.93,5.93,0,0,1,.63-.49c.43-.3,1.06-.76,1.89-1.33,1.64-1.14,4.06-2.76,7.12-4.71,6.1-3.9,14.78-9.07,24.77-14.54l-.12.33-2.12-5.12c-2.42-5.85-4.76-11.41-7.25-16.29a53.5,53.5,0,0,0-8-12.1,21.48,21.48,0,0,0-4.23-3.58,14.85,14.85,0,0,0-3.81-1.72A20,20,0,0,0,85.79,124.59Z" transform="translate(-44.25 -42.18)" style="fill: #263238"/>
        </g>
      </g>
    </g>
    <g>
      <g>
        <path d="M253.61,261.75a6.27,6.27,0,1,1-6.23-6.29A6.25,6.25,0,0,1,253.61,261.75Z" transform="translate(-44.25 -42.18)" style="fill: #263238"/>
        <path d="M234.82,253.7a17.36,17.36,0,0,1,25.13-.33c3.19,3.22,8.2-1.74,5-5a24.49,24.49,0,0,0-35.09.28c-3.13,3.29,1.83,8.3,5,5Z" transform="translate(-44.25 -42.18)" style="fill: #263238"/>
        <path d="M213.54,224.53c9.53-8.24,20.9-13.42,33.64-13.45a49.94,49.94,0,0,1,34.32,13.13c3.3,3.1,8.32-1.84,5-5A57.2,57.2,0,0,0,247.21,204c-14.66,0-27.68,6-38.63,15.5-3.44,3,1.54,8,5,5Z" transform="translate(-44.25 -42.18)" style="fill: #263238"/>
        <path d="M221.94,240.7A34.47,34.47,0,0,1,272.6,240c3.17,3.26,8.17-1.7,5-5a41.51,41.51,0,0,0-60.63.68c-3.08,3.32,1.87,8.34,5,5Z" transform="translate(-44.25 -42.18)" style="fill: #263238"/>
      </g>
      <g>
        <path d="M253.74,257.27A6.27,6.27,0,1,1,247.5,251,6.27,6.27,0,0,1,253.74,257.27Z" transform="translate(-44.25 -42.18)" style="fill: #455a64"/>
        <path d="M235,249.22a17.35,17.35,0,0,1,25.12-.33c3.2,3.22,8.21-1.74,5-5a24.49,24.49,0,0,0-35.09.29c-3.13,3.28,1.82,8.3,5,5Z" transform="translate(-44.25 -42.18)" style="fill: #455a64"/>
        <path d="M213.67,220.05c9.52-8.24,20.9-13.42,33.64-13.45a49.9,49.9,0,0,1,34.32,13.13c3.3,3.1,8.32-1.85,5-5a57.22,57.22,0,0,0-39.3-15.22c-14.66,0-27.68,6-38.63,15.49-3.44,3,1.54,8,5,5Z" transform="translate(-44.25 -42.18)" style="fill: #455a64"/>
        <path d="M222.07,236.21a34.48,34.48,0,0,1,50.66-.72c3.17,3.26,8.17-1.71,5-5a41.51,41.51,0,0,0-60.63.68c-3.07,3.32,1.88,8.34,5,5Z" transform="translate(-44.25 -42.18)" style="fill: #455a64"/>
      </g>
    </g>
  </g>
</svg>
