<svg xmlns="http://www.w3.org/2000/svg" viewBox="0 0 445.48 442.44">
  <title>3</title>
  <g id="Character_2" data-name="Character 2">
    <path d="M442.72,54.26c.62-4.47-5.7-8.15-10.44-8.53-2.26-.18-4.61.16-6.75-.58-4.65-1.62-6.5-7.62-11-9.53-3.39-1.43-7.29-.16-10.57,1.49s-6.53,3.74-10.19,4c-3.19.21-6.66-1-9.45.58-2.08,1.16-3.17,3.56-5.09,5s-4.32,1.68-6.65,1.81-4.73.15-6.85,1.12-3.87,3.21-3.43,5.5Z" transform="translate(-25.93 -33.89)" style="fill: #f5f5f5"/>
    <g>
      <path d="M426.2,98.33a9,9,0,1,1-11.53-5.42A9,9,0,0,1,426.2,98.33Z" transform="translate(-25.93 -33.89)" style="fill: #ebebeb"/>
      <path d="M443.83,72.8a9,9,0,1,1-11.54-5.41A9,9,0,0,1,443.83,72.8Z" transform="translate(-25.93 -33.89)" style="fill: #ebebeb"/>
      <path d="M456.8,108.72c1.84,5.09-.47,10.59-5.15,12.28s-10-1.06-11.8-6.16.46-10.59,5.14-12.28S455,103.63,456.8,108.72Z" transform="translate(-25.93 -33.89)" style="fill: #ebebeb"/>
      <path d="M445.43,111.6c-.17.66-7-.52-15.17-2.63s-14.72-4.36-14.54-5,7,.51,15.16,2.62S445.6,110.93,445.43,111.6Z" transform="translate(-25.93 -33.89)" style="fill: #ebebeb"/>
      <path d="M433.36,75.91c.58.37-2.32,6-6.48,12.51s-8,11.54-8.58,11.17,2.33-6,6.49-12.51S432.78,75.54,433.36,75.91Z" transform="translate(-25.93 -33.89)" style="fill: #ebebeb"/>
    </g>
    <g>
      <path d="M76,116a4.5,4.5,0,1,1-4.48-4.52A4.5,4.5,0,0,1,76,116Z" transform="translate(-25.93 -33.89)" style="fill: #e0e0e0"/>
      <path d="M62.5,110.19a12.45,12.45,0,0,1,18-.24c2.29,2.31,5.89-1.24,3.59-3.56a17.56,17.56,0,0,0-25.17.21c-2.24,2.35,1.31,6,3.56,3.59Z" transform="translate(-25.93 -33.89)" style="fill: #e0e0e0"/>
      <path d="M47.23,89.27c6.84-5.91,15-9.63,24.13-9.66A35.81,35.81,0,0,1,96,89c2.37,2.22,6-1.33,3.59-3.56A41,41,0,0,0,71.39,74.56c-10.52,0-19.86,4.32-27.72,11.11-2.46,2.14,1.11,5.72,3.56,3.6Z" transform="translate(-25.93 -33.89)" style="fill: #e0e0e0"/>
      <path d="M53.26,100.86a24.73,24.73,0,0,1,36.34-.52c2.27,2.34,5.86-1.22,3.59-3.56a29.77,29.77,0,0,0-43.49.49c-2.21,2.38,1.34,6,3.56,3.59Z" transform="translate(-25.93 -33.89)" style="fill: #e0e0e0"/>
    </g>
    <g>
      <path d="M125.88,456c2.93-6.84,1.15-14-3.66-19.66A20.65,20.65,0,0,0,102,429.75a22.55,22.55,0,0,0-44.73,2.91,16.88,16.88,0,0,0-12.9,22.91Z" transform="translate(-25.93 -33.89)" style="fill: #ebebeb"/>
      <polygon points="52.79 421.83 52.79 410.36 47.04 410.36 55.69 398.15 64.34 410.27 58.71 410.27 58.71 421.83 52.79 421.83" style="fill: #fff"/>
    </g>
    <g>
      <path d="M458.88,439.57A15.16,15.16,0,0,1,447.14,438a26.78,26.78,0,0,1-8.64-8.44c-4.42-6.49-6.2-15.36-6.66-23.21,8.73.06,16.41,6.66,20.1,10.25,5.82,5.68,12.9,19.48,6.94,23" transform="translate(-25.93 -33.89)" style="fill: #ebebeb"/>
      <path d="M417.64,401.52a12.91,12.91,0,0,1,4.85,12,17.15,17.15,0,0,1-7,11.24c-1.69,1.25-3.8,2.26-5.83,1.74a5.54,5.54,0,0,1-3.72-4.19,11.27,11.27,0,0,1,.48-5.8c2-6.42,5.09-12.28,11.23-15" transform="translate(-25.93 -33.89)" style="fill: #ebebeb"/>
      <path d="M411.75,382.76a24.73,24.73,0,0,1,2.67,4.45,24.05,24.05,0,0,1,2,5.33,53.81,53.81,0,0,1,1.38,6.79,25.93,25.93,0,0,1-1.43,12.48,19.72,19.72,0,0,1-1.79,3.39c-.54.73-.86,1.1-.91,1.07s1.06-1.7,2.12-4.68a27.77,27.77,0,0,0,1.13-12.16,59.76,59.76,0,0,0-1.29-6.69,26.33,26.33,0,0,0-1.74-5.26A38.65,38.65,0,0,1,411.75,382.76Z" transform="translate(-25.93 -33.89)" style="fill: #e0e0e0"/>
      <path d="M452.57,429.54a14.31,14.31,0,0,1-1.91-1.82c-1.18-1.2-2.87-3-4.94-5.17-4.14-4.41-9.79-10.55-15.86-17.5s-11.39-13.39-15.14-18.13c-1.88-2.37-3.37-4.3-4.38-5.66a15,15,0,0,1-1.49-2.16,15.13,15.13,0,0,1,1.76,1.94l4.59,5.49c3.87,4.64,9.26,11,15.32,17.94l15.66,17.66,4.73,5.36A15,15,0,0,1,452.57,429.54Z" transform="translate(-25.93 -33.89)" style="fill: #e0e0e0"/>
      <path d="M423.2,392.77A30.23,30.23,0,0,0,450.71,395c2.24-1,4.65-2.65,4.62-5.09s-2.51-4.08-4.8-4.92a25.81,25.81,0,0,0-27.71,7.22" transform="translate(-25.93 -33.89)" style="fill: #ebebeb"/>
      <path d="M444.46,391.58a4.16,4.16,0,0,1-1.29.5c-.85.29-2.09.61-3.64,1a34,34,0,0,1-12.4.64,21.22,21.22,0,0,1-6.55-2.18,20.32,20.32,0,0,1-4.54-3.34,19.63,19.63,0,0,1-2.46-2.86c-.51-.73-.77-1.14-.72-1.18s1.28,1.5,3.6,3.59a22.63,22.63,0,0,0,4.49,3.07,22,22,0,0,0,6.32,2,38.31,38.31,0,0,0,12.14-.38A44.16,44.16,0,0,1,444.46,391.58Z" transform="translate(-25.93 -33.89)" style="fill: #e0e0e0"/>
    </g>
    <path d="M143.13,50.94c.4-2.86-3.65-5.22-6.68-5.46-1.45-.12-3,.1-4.33-.38-3-1-4.16-4.87-7.06-6.1-2.17-.91-4.67-.1-6.77,1s-4.18,2.39-6.53,2.54c-2.05.13-4.27-.63-6.05.37-1.34.75-2,2.28-3.26,3.19a7.81,7.81,0,0,1-4.26,1.15,12,12,0,0,0-4.39.72,3.47,3.47,0,0,0-2.2,3.52Z" transform="translate(-25.93 -33.89)" style="fill: #f5f5f5"/>
    <path d="M428.25,461.87c.4-2.87-3.64-5.22-6.68-5.47-1.45-.11-3,.11-4.33-.37-3-1-4.16-4.88-7.06-6.1-2.17-.92-4.67-.1-6.77,1s-4.18,2.39-6.53,2.54c-2,.13-4.26-.63-6.05.37-1.33.74-2,2.28-3.26,3.18a7.74,7.74,0,0,1-4.26,1.16,11.81,11.81,0,0,0-4.39.72,3.46,3.46,0,0,0-2.2,3.52Z" transform="translate(-25.93 -33.89)" style="fill: #ebebeb"/>
    <path d="M77.51,152.4c.39-2.87-3.65-5.22-6.69-5.47-1.45-.12-2.95.11-4.33-.37-3-1-4.16-4.88-7.06-6.1-2.17-.92-4.67-.11-6.77.95s-4.18,2.39-6.53,2.54c-2,.13-4.26-.62-6.05.38-1.33.74-2,2.27-3.26,3.18a7.82,7.82,0,0,1-4.26,1.16,12,12,0,0,0-4.39.71,3.48,3.48,0,0,0-2.2,3.53Z" transform="translate(-25.93 -33.89)" style="fill: #f5f5f5"/>
    <path d="M186.86,475.83c.39-2.87-3.65-5.23-6.69-5.47-1.45-.12-2.95.1-4.32-.37-3-1-4.16-4.88-7.07-6.11-2.17-.91-4.66-.1-6.77,1s-4.18,2.39-6.53,2.54c-2,.13-4.26-.62-6,.37-1.33.75-2,2.28-3.26,3.19a7.79,7.79,0,0,1-4.26,1.15,12,12,0,0,0-4.39.72,3.48,3.48,0,0,0-2.2,3.52Z" transform="translate(-25.93 -33.89)" style="fill: #f5f5f5"/>
    <g>
      <path d="M453.22,242.37c-.21-2.16-.45-4.28-.75-6.4s-.63-4.48-1-6.7c.38,2.22.71,4.45,1,6.7S453,240.21,453.22,242.37Z" transform="translate(-25.93 -33.89)" style="fill: #ff725e"/>
      <path d="M435.87,268.9c-1.88-4.19-2.3-8.83-3.54-13.22-.67-2.37-1.79-4.88-4-5.93-1.48-.68-3.24-.59-4.81-1.07-5.65-1.68-7.2-9.48-12.55-11.91a18.6,18.6,0,0,0-5.38-1.1c-7.17-.84-14.58-3.29-19.08-8.86-1.48-1.79-2.6-3.92-4.41-5.38s-4.69-2.09-6.48-.6c1.52,3,3,6,4.48,8.94,1.36,2.7,2.75,5.48,5,7.45s5.68,3.05,8.43,1.8c.91-.42,1.82-1.11,2.85-1a3.07,3.07,0,0,1,1.84,1.17c3.9,4.27,2.63,11.36-1.18,15.73s-9.4,6.61-14.81,8.73c-1.94.75-4,1.53-6.05,1.17-3.75-.69-5.75-4.73-6.83-8.35-2.45-8-3.63-16.72-8.65-23.48-1.6-2.12-3.6-4.06-4.57-6.55-1-2.69-.78-5.83-2.42-8.19s-5.29-3.92-5.53-6.91c-.15-2.09,1.6-3.95,3.54-4.85s4.11-1.19,6.11-2c.78-.33,1.66-.9,1.69-1.73,0-1.26-1.76-1.77-2.21-2.94s.88-2.54,1.45-3.82c1.24-2.94-1.84-5.9-4.84-7.09s-6.56-2.07-7.95-4.94a17.42,17.42,0,0,1-1-4.28c-.69-3.61-3.38-7.11-7.07-7.71s-7.83,2.66-7.23,6.31c.37,2,1.88,3.56,2.69,5.41s.61,4.61-1.33,5.21c-3.17,1-6.23-4.79-8.89-2.81,1.09,3.67,2.15,7.35,3.24,11.06-4.17,2.1-9.16-1.7-11-6s-1.84-9.18-4-13.31-7.83-7.24-11.46-4.31c-.18,5.33,6.93,7.48,10.07,11.79,2.27,3.11,1.94,8.16-1.42,10.14s-8.62-1.47-7.35-5.09c.46-1.25,1.51-2.3,1.64-3.65.12-1.67-1.31-3-2.6-4.09-2-1.71-4.06-3.38-6.08-5.06a12.7,12.7,0,0,0-4.33-2.69c-4.17-1.2-8.34,2.15-10.55,5.83s-3.45,8.05-6.5,11.13c-4.38,4.48-12.7,4.75-16.81.06s-2-13.49,4.05-15.2c2.3-.62,5.2-.56,6.41-2.57,2.12-3.56-3.93-8.11-1.84-11.69,1.6-2.76,5.83-1.5,8.92-2.43s4.77-4,6.59-6.61,4.59-5.23,7.74-4.54c-.24-1.83-.49-3.8.33-5.45s3.11-2.75,4.63-1.67c-1.55,2.51.3,6,3,7.27s5.84.95,8.8.62,6.68-1.43,6.92-4.36c.09-1-.27-2,.09-2.87,1.3-3.5,7.84,1.31,10.35-1.5,1.45-1.47-.16-4.07-2.18-4.55s-4.08.24-6.14.3-4.57-1-4.66-3,2.18-3.44,2.42-5.41c.4-3.35-5.35-4.22-7.38-1.5s-1.3,6.46-.69,9.78.94,7.24-1.54,9.58c-1.06,1.58-3.81.74-4.72-.93s-.73-3.71-.88-5.6-1-4.06-2.87-4.57c-1.3-.36-2.69.27-4,.45-5.26.63-8.92-6.1-7.26-11.07s6.41-8.2,11-10.74c3.39-1.85,7.59-3.59,10.94-1.7,1.58.86,2.67,2.36,4.21,3.26,2.66,1.55,5.95,1,9,1a21.12,21.12,0,0,1,13.15,5.06c1.36,1.23,2.63,3.26,1.57,4.73s-4.44,1.88-3.87,3.7a6.55,6.55,0,0,0,8.23-5.23,5.44,5.44,0,0,1,3.17,4.43c3.84-3.86,11.22-3.29,14.36,1.16.85,1.17,1.46,2.58,2.67,3.38s3.32.39,3.47-1a2.87,2.87,0,0,0-.24-1.32c-.72-2-1.48-4-2.21-6,2.82-1.5,6.14.84,8.05,3.35,7.07,9.36,12.12,3.74,22.1,5.26,6.74,1,9.71,5.3,13.52,10.47,11.67,15.91,27.09,29,37.7,45.58,1.12,1.74,2.15,3.5,3.12,5.3-.19-.45-.34-.9-.52-1.35a183.25,183.25,0,0,0-15.42-31c-1.3-2.1-2.63-4.16-4-6.2-.85-1.25-1.72-2.54-2.6-3.76-1.12-1.62-2.3-3.17-3.48-4.73-.94-1.26-1.87-2.48-2.84-3.68-.67-.84-1.36-1.67-2.06-2.51s-1.51-1.89-2.35-2.81l-2.55-2.9a11,11,0,0,0-.81-.9c-.88-1-1.82-2-2.75-3a.8.8,0,0,0-.28-.3c-.24-.27-.51-.54-.78-.81-.76-.84-1.57-1.65-2.36-2.45-1.3-1.32-2.63-2.63-4-3.89-1.12-1.11-2.27-2.15-3.45-3.2s-2.05-1.86-3.11-2.75-2.06-1.77-3.12-2.64c-1.27-1.07-2.57-2.12-3.9-3.17h0q-5.49-4.35-11.31-8.22c-1-.66-1.9-1.29-2.87-1.92s-2-1.25-2.93-1.85-2-1.23-3-1.79-2-1.2-3-1.77c-.82-.48-1.6-.93-2.42-1.35a13.71,13.71,0,0,0-1.24-.68c-1.72-1-3.47-1.89-5.23-2.75-.87-.45-1.75-.9-2.66-1.32-1.12-.57-2.27-1.11-3.42-1.62a2.66,2.66,0,0,0-.51-.24c-1-.47-2.06-.95-3.11-1.4-1.49-.63-3-1.26-4.45-1.86-1.69-.68-3.39-1.37-5.11-2-1.9-.72-3.81-1.41-5.74-2s-3.9-1.29-5.87-1.89S315,79.18,313,78.64c-3.93-1-7.92-2-11.94-2.78-.06,0-.15,0-.21-.06-1.54-.3-3.09-.6-4.63-.84a1.32,1.32,0,0,0-.3-.06c-.66-.12-1.36-.24-2.06-.33-2.87-.48-5.77-.87-8.7-1.2-.34-.06-.7-.09-1.06-.12-.85-.12-1.7-.18-2.57-.27-1.94-.18-3.87-.33-5.84-.44s-4.08-.24-6.14-.3-4.29-.12-6.44-.12q-8.52,0-16.87.74c-1.33.09-2.63.21-3.93.36s-2.72.3-4.08.48-2.72.36-4.05.57-2.69.42-4.06.66c-1.14.18-2.32.39-3.47.63-2.84.53-5.66,1.13-8.44,1.79q-2,.45-3.9,1c-1.3.33-2.6.69-3.87,1-2.15.59-4.23,1.25-6.32,1.91h0L199,83a.23.23,0,0,0-.12.06c-1.72.6-3.39,1.23-5.08,1.89l-.27.09c-1.54.6-3.09,1.22-4.6,1.85-1.9.78-3.78,1.62-5.62,2.46-1.57.71-3.12,1.43-4.63,2.18s-3.26,1.61-4.87,2.45l-.18.09c-1.54.81-3.08,1.65-4.59,2.51s-3.12,1.77-4.66,2.73h0c-1.45.86-2.87,1.73-4.29,2.63-.55.33-1.06.69-1.61,1-1.51,1-3,2-4.44,3-1.82,1.22-3.57,2.51-5.32,3.79-1.55,1.14-3.06,2.31-4.54,3.47a188.59,188.59,0,0,0-23.76,22.29c-2.57,2.81-5,5.68-7.35,8.61-2,2.51-3.93,5.06-5.78,7.69q-2.49,3.44-4.81,7,2.32-3.56,4.81-7c.49-.06,1-.12,1.45-.15,2.72-.21,5.6-.12,8-1.29,2.26-1.1,3.87-3.11,5.92-4.54,5.26-3.71,13.88-4.4,15.3-10.62.49-2.1-.09-4.37.7-6.37,1.48-3.74,6.53-4.28,10.58-4.22,1.72,0,3.75.24,4.54,1.73a4.26,4.26,0,0,1-.18,3.47,32.6,32.6,0,0,1-13.88,16.87c-5.26,3.17-12.13,5.63-13.58,11.55.73,2,4.41,1.85,4.72,4,.21,1.67-2,2.54-2.75,4-1.15,2.18,1.48,4.84,4,4.72s4.59-1.91,6.44-3.59c5.5-5,11.28-10.5,13.27-17.68.85-3,1.15-6.43,3.57-8.4,2.87-2.33,8-.72,9,2.84,2.39-1.31,6.11-2.3,7.35.15a12.55,12.55,0,0,1,.51,2.81c.79,3.83,6.08,5.57,6.62,9.42.64,4.46-5.14,6.76-9.64,7.45-4.08.63-8.17,1.26-12.25,1.92a11.26,11.26,0,0,0-5.08,1.61c-1.45,1.08-2.36,3.11-1.51,4.7a12,12,0,0,0,2.12,2.15c3.38,3.35.6,10.26-4.18,10.41-1.63.06-3.23-.54-4.86-.6-4.84-.21-8.68,4-11,8.23s-4,9-7.89,11.9c-6.23,4.64-17,3.56-20,10.68-1.21,2.87-.57,6.1-.09,9.18s.7,6.46-1.12,9-6.44,3.06-7.77.24a6.87,6.87,0,0,1-.18-4c.73-4.43,1.42-8.86,2.12-13.28.51-3.3,1-7-1-9.67-2.75-3.76-8.92-3.41-12.49-.38s-5,7.74-6,12.26c-.72,3.35-1.57,8.07-3.44,11.9h0c-.64,3.71-1.15,7.48-1.55,11.28s-.66,7.75-.81,11.69a14.92,14.92,0,0,0,1.54-1.43c1.91-1.95,5.75-10.17,9.19-6.13a3,3,0,0,1,.06,3.74c-1.06,1.34-3.17,1.64-4,3.11-1,1.73.39,3.88,2,5s3.63,1.89,4.77,3.53c2.21,3.14.1,7.9,2.24,11.1,1.85,2.75,5.78,2.93,9.13,3.29l1.15.18c.94-6.58,4-11.94,13.13-14,12.51-2.81,29,7.45,36,16.78,7.86,10.44,11.58,25.21,23.61,30.45,8.62,3.74,20.87,2.39,25.07,10.74,3.75,7.47-2.78,15.88-3.78,24.16-.64,5.48,1.18,10.92,1.6,16.39s-1.24,11.91-6.29,14.21c-2.81,1.26-6.35,1.11-8.61,3.2-4,3.77-.73,11.55-4.75,15.32-1.42,1.31-3.39,1.79-5.11,2.66-9,4.51-8.8,17.67-4.6,26.8.15.33.3.63.46,1a188.89,188.89,0,0,0,43,18.76A193.09,193.09,0,0,0,352.77,428h0a191.64,191.64,0,0,0,16.9-10.08,187.57,187.57,0,0,0,23.73-18.66,185.06,185.06,0,0,0,14.52-15c3.2-3.65,6.23-7.45,9.13-11.33,1.48-2,2.93-4,4.29-6.08a184.85,184.85,0,0,0,23.77-48.36,182.46,182.46,0,0,0,7.29-32c.57-4.24,1-8.55,1.33-12.89a11,11,0,0,1-7.68,3.38C441.49,276.88,437.71,273.08,435.87,268.9Z" transform="translate(-25.93 -33.89)" style="fill: #ebebeb"/>
      <path d="M217.5,121.58c-3.79,2.23-5.8,6.46-8.72,9.73s-8.16,5.6-11.61,2.88a7.9,7.9,0,0,1-2.59-5.56,14.11,14.11,0,0,1,2.06-8.66c1.65-2.66,4.16-4.74,5.55-7.53s1.11-6.88-1.75-8.19c-1.54-.71-3.48-.43-4.85-1.43-2.47-1.8-.7-6,2.16-7.11s6-.24,9.09,0c11.07.7,19.22-6.47,27.54-12.43,6.48-4.64,20.27-10.11,27.77-5.37,3,1.89,4.15,6.74,1.34,8.87-1.26,1-3,1.17-4.17,2.23-1.41,1.27-1.61,3.35-2.42,5.06-2.09,4.43-8.14,6-10.09,10.54-1.17,2.71-.64,6.08-2.44,8.43-1.44,1.85-3.92,2.51-6.22,3.05l-14.44,3.4A21.67,21.67,0,0,0,217.5,121.58Z" transform="translate(-25.93 -33.89)" style="fill: #e0e0e0"/>
      <path d="M346.61,354.22c-4.79,7.14-5.66,16.07-7,24.54s-3.61,17.47-10.19,23.05-18.66,5.24-22.28-2.54c-2-4.23-1-9.21-2-13.75-1.4-5.9-6.15-10.45-8.4-16.09-1.93-4.81-1.93-10.12-2.09-15.29-.85-28.24-7.82-57.72-27.26-78.42-2.38-2.55-5.09-5-8.49-5.92a10.93,10.93,0,0,0-11.15,3.81c-1.56,2-2.37,4.65-4.28,6.38-4.15,3.75-11.41,1.06-14.18-3.78s-2.39-10.77-1.93-16.32q.87-10.3,1.73-20.63c.3-3.59.71-7.45,3.09-10.18,3.4-3.88,9.48-4.07,13.64-7.14,5.44-4,6.16-11.73,9.6-17.54s14.17-8.27,15.76-1.72c11.37-24.06,36.48,11.68,51.41,9,4.34-.78,8.57-2.84,12.94-2.23,7.71,1.06,11.69,9.46,14.31,16.71q6.53,18.06,13.06,36.1c1.66,4.59,3.8,9.68,8.39,11.44,3.52,1.35,7.6.32,11.15,1.6,9.37,3.37,6.32,18-1.22,24.41s-18.12,10.53-21.71,19.73c-2.7,6.94-.54,15.06-3.45,21.91C354,346.25,349.59,349.79,346.61,354.22Z" transform="translate(-25.93 -33.89)" style="fill: #e0e0e0"/>
      <path d="M382.19,362.06c-3.08.43-6.72-1.07-9.06.95-1.36,1.18-1.67,3.12-2.21,4.84a10.3,10.3,0,0,1-4.36,5.89,6.6,6.6,0,0,1-7.12-.13c-2-1.5-2.62-4.71-1-6.6.75-.85,1.82-1.36,2.66-2.14,4.08-3.83,1.28-10.91,4.39-15.45,1.84-2.68,4.72-5.4,6.73-8.11,1.55-2.09,2.12-3.75,5-4.3C389.66,334.59,395.29,360.25,382.19,362.06Z" transform="translate(-25.93 -33.89)" style="fill: #e0e0e0"/>
      <path d="M97,310.77c-.6-5.41,1.21-10.83,1.3-16.3.06-3.77-.21-7.75-.27-11.54a52.92,52.92,0,0,1-9.71-1.35,2.91,2.91,0,0,1-1.78-.9,3.49,3.49,0,0,1-.39-2c-.24-4.25-4.39-7.06-8.11-9.18a32.41,32.41,0,0,0-5.89-2.88c0,.45,0,.87,0,1.32a186.54,186.54,0,0,0,12.15,60A181.76,181.76,0,0,0,96,352.68c1.88,3.44,3.94,6.82,6.08,10.14,2.66,4.09,5.44,8.1,8.44,12,2.78,3.71,5.74,7.33,8.86,10.8a190.59,190.59,0,0,0,13.51,13.76q6.32,5.82,13.16,11.06c-10.44-27.69-20.26-56-38.1-79.53C103.29,324.71,97.91,318.43,97,310.77Z" transform="translate(-25.93 -33.89)" style="fill: #e0e0e0"/>
      <path d="M98.42,275.6l-1.14-.18c-3.36-.36-7.29-.54-9.14-3.29-2.14-3.2,0-8-2.23-11.1-1.15-1.64-3.15-2.36-4.78-3.53s-3-3.29-2-5c.82-1.47,2.94-1.77,4-3.11a3,3,0,0,0-.06-3.74c-3.44-4-7.28,4.18-9.19,6.13a14.92,14.92,0,0,1-1.54,1.43v0c0,.36-.06.69-.06,1.05,0,1.12,0,2.27-.06,3.41s-.06,2.27-.06,3.41c0,.93,0,1.84,0,2.77s0,1.85,0,2.76a32.5,32.5,0,0,1,5.9,2.88c3.71,2.12,7.86,4.93,8.1,9.18a3.49,3.49,0,0,0,.39,2,2.93,2.93,0,0,0,1.79.9,52.81,52.81,0,0,0,9.7,1.35" transform="translate(-25.93 -33.89)" style="fill: #e0e0e0"/>
      <path d="M98.13,283c.05,3.8.33,7.78.27,11.55-.09,5.47-1.91,10.88-1.3,16.3.87,7.65,6.26,13.94,10.94,20.1,17.84,23.57,27.67,51.83,38.1,79.53h0c1.94,1.52,3.9,3,5.9,4.37q2.35,1.68,4.76,3.29t4.88,3.14c1.15.72,2.3,1.4,3.48,2.09-.15-.33-.3-.63-.45-1-4.21-9.12-4.45-22.28,4.59-26.8,1.73-.86,3.69-1.34,5.11-2.66,4-3.77.73-11.54,4.75-15.31,2.27-2.1,5.81-1.95,8.62-3.2,5.05-2.31,6.68-8.71,6.29-14.21s-2.24-10.92-1.61-16.39c1-8.29,7.53-16.69,3.78-24.17-4.2-8.34-16.45-7-25.06-10.74-12-5.23-15.76-20-23.62-30.44-7-9.34-23.49-19.6-36-16.78-9.07,2-12.19,7.38-13.12,14" transform="translate(-25.93 -33.89)" style="fill: #e0e0e0"/>
      <path d="M84.09,206.06c3.57-3,9.74-3.38,12.49.38,2,2.7,1.51,6.37,1,9.67-.7,4.42-1.39,8.85-2.12,13.28a6.87,6.87,0,0,0,.18,4c1.33,2.82,6,2.28,7.77-.24s1.6-6,1.12-9-1.12-6.31.09-9.18c3-7.12,13.76-6,20-10.68,3.87-2.87,5.59-7.69,7.89-11.9s6.14-8.44,11-8.23c1.63.06,3.23.66,4.86.6,4.78-.15,7.56-7.06,4.18-10.41a12,12,0,0,1-2.12-2.15c-.85-1.59.06-3.62,1.51-4.7a11.26,11.26,0,0,1,5.08-1.61c4.08-.66,8.17-1.29,12.25-1.92,4.5-.69,10.28-3,9.64-7.45-.54-3.85-5.83-5.59-6.62-9.42a12.55,12.55,0,0,0-.51-2.81c-1.24-2.45-5-1.46-7.35-.15-1-3.56-6.11-5.17-9-2.84-2.42,2-2.72,5.44-3.57,8.4-2,7.18-7.77,12.63-13.27,17.68-1.85,1.68-3.93,3.47-6.44,3.59s-5.14-2.54-4-4.72c.78-1.5,3-2.37,2.75-4-.31-2.1-4-2-4.72-4,1.45-5.92,8.32-8.38,13.58-11.55a32.6,32.6,0,0,0,13.88-16.87,4.26,4.26,0,0,0,.18-3.47c-.79-1.49-2.82-1.73-4.54-1.73-4.05-.06-9.1.48-10.58,4.22-.79,2-.21,4.27-.7,6.37-1.42,6.22-10,6.91-15.3,10.62-2,1.43-3.66,3.44-5.92,4.54-2.45,1.17-5.33,1.08-8,1.29-.48,0-1,.09-1.45.15q-2.49,3.44-4.81,7c-1.55,2.37-3,4.78-4.47,7.22a185.67,185.67,0,0,0-16.57,36.55q-2.22,6.7-3.92,13.63t-2.88,14c1.87-3.83,2.72-8.55,3.44-11.9C79.07,213.8,80.55,209.08,84.09,206.06Z" transform="translate(-25.93 -33.89)" style="fill: #e0e0e0"/>
      <path d="M454.09,258.51c0-2.72-.1-5.42-.24-8.1s-.36-5.36-.63-8c-.22-2.15-.46-4.28-.76-6.4s-.63-4.48-1-6.7A183,183,0,0,0,447,209.67c-.71-2.47-1.28-4.93-2.09-7.35s-1.84-4.83-2.75-7.22v0h0c-1-1.79-2-3.56-3.12-5.29-10.61-16.63-26-29.67-37.7-45.59-3.81-5.17-6.77-9.45-13.52-10.47-10-1.52-15,4.1-22.1-5.26-1.9-2.51-5.23-4.84-8-3.35.72,2,1.48,4,2.2,6a2.75,2.75,0,0,1,.25,1.32c-.16,1.4-2.27,1.79-3.48,1s-1.82-2.22-2.66-3.38c-3.15-4.46-10.52-5-14.36-1.17a5.48,5.48,0,0,0-3.18-4.43,6.56,6.56,0,0,1-8.22,5.24c-.58-1.83,2.72-2.16,3.87-3.71s-.22-3.5-1.58-4.73a21.09,21.09,0,0,0-13.15-5c-3.05-.06-6.35.51-9-1.05-1.54-.9-2.63-2.39-4.2-3.26-3.36-1.88-7.56-.15-10.95,1.71-4.62,2.54-9.4,5.74-11,10.73s2,11.7,7.26,11.07c1.33-.18,2.72-.81,4-.45,1.88.51,2.73,2.66,2.88,4.58s-.06,3.92.87,5.59,3.66,2.51,4.72.93c2.48-2.34,2.18-6.25,1.54-9.57s-1.3-7.06.7-9.78,7.77-1.86,7.38,1.49c-.25,2-2.51,3.41-2.42,5.41s2.6,3.12,4.65,3,4.15-.81,6.14-.3,3.63,3.08,2.18,4.54c-2.51,2.81-9-2-10.34,1.5-.37.9,0,1.91-.09,2.87-.25,2.93-4,4-6.93,4.37s-6.11.63-8.8-.63-4.53-4.76-3-7.27c-1.51-1.08-3.81,0-4.63,1.68s-.57,3.61-.33,5.44c-3.14-.69-6,1.94-7.74,4.55s-3.54,5.68-6.59,6.61-7.32-.33-8.92,2.42c-2.09,3.59,4,8.13,1.84,11.69-1.21,2-4.11,2-6.41,2.58-6.07,1.7-8.19,10.49-4,15.19s12.43,4.43,16.81-.06c3.06-3.08,4.3-7.42,6.5-11.13s6.38-7,10.56-5.83a12.91,12.91,0,0,1,4.32,2.69c2,1.68,4,3.35,6.08,5.06,1.3,1.07,2.72,2.42,2.6,4.1-.12,1.34-1.18,2.39-1.63,3.64-1.27,3.62,4,7.06,7.34,5.09s3.69-7,1.42-10.14C307,181,299.85,178.89,300,173.57c3.63-2.94,9.35.15,11.47,4.3s2.17,9,4,13.31,6.77,8.11,10.94,6c-1.09-3.7-2.15-7.38-3.23-11.06,2.66-2,5.71,3.77,8.89,2.81,1.93-.6,2.17-3.35,1.33-5.21s-2.33-3.4-2.69-5.41c-.61-3.65,3.5-6.91,7.22-6.31s6.38,4.1,7.08,7.72a17,17,0,0,0,1,4.27c1.4,2.88,5,3.74,8,4.94s6.08,4.16,4.84,7.09c-.58,1.28-1.94,2.51-1.46,3.83.46,1.16,2.21,1.67,2.21,2.93,0,.84-.91,1.4-1.69,1.73-2,.81-4.17,1.08-6.11,2s-3.69,2.75-3.54,4.84c.24,3,3.84,4.43,5.54,6.91s1.39,5.51,2.42,8.2c1,2.48,3,4.42,4.56,6.55,5,6.76,6.2,15.46,8.65,23.48,1.09,3.62,3.08,7.65,6.83,8.34,2.06.36,4.11-.42,6.05-1.16,5.41-2.13,11-4.4,14.81-8.74s5.08-11.45,1.18-15.73a3,3,0,0,0-1.84-1.17c-1-.12-1.94.57-2.84,1-2.75,1.26-6.14.21-8.44-1.8s-3.66-4.75-5-7.44c-1.48-3-3-6-4.47-9,1.78-1.49,4.62-.86,6.47.6s2.93,3.59,4.41,5.39c4.51,5.56,11.92,8,19.08,8.85a18.22,18.22,0,0,1,5.38,1.11c5.36,2.42,6.9,10.23,12.55,11.9,1.57.48,3.33.39,4.81,1.08,2.24,1,3.36,3.56,4,5.92,1.24,4.4,1.66,9,3.54,13.22s5.62,8,10.22,8.05a11.08,11.08,0,0,0,7.68-3.38v0c.24-4.13.39-8.26.39-12.45C454.15,260.25,454.15,259.38,454.09,258.51Z" transform="translate(-25.93 -33.89)" style="fill: #e0e0e0"/>
    </g>
    <g>
      <path d="M55.11,277.16a35.79,35.79,0,0,1-.43-6,35,35,0,0,1,.08-6,35.38,35.38,0,0,1,.44,6A33.36,33.36,0,0,1,55.11,277.16Z" transform="translate(-25.93 -33.89)" style="fill: #263238"/>
      <path d="M58,301a34.28,34.28,0,0,1-1.15-5.88,35.18,35.18,0,0,1-.63-6A34.81,34.81,0,0,1,57.33,295,34.94,34.94,0,0,1,58,301Z" transform="translate(-25.93 -33.89)" style="fill: #263238"/>
      <path d="M63.64,324.25a33.86,33.86,0,0,1-1.85-5.71,34.56,34.56,0,0,1-1.34-5.85,35.68,35.68,0,0,1,1.84,5.71A36.25,36.25,0,0,1,63.64,324.25Z" transform="translate(-25.93 -33.89)" style="fill: #263238"/>
      <path d="M72.07,346.68a34.79,34.79,0,0,1-2.52-5.44,33.66,33.66,0,0,1-2-5.65A35.21,35.21,0,0,1,70,341,34.8,34.8,0,0,1,72.07,346.68Z" transform="translate(-25.93 -33.89)" style="fill: #263238"/>
      <path d="M83.12,367.94a33,33,0,0,1-3.15-5.1,34.25,34.25,0,0,1-2.69-5.36,34.75,34.75,0,0,1,3.14,5.1A36.14,36.14,0,0,1,83.12,367.94Z" transform="translate(-25.93 -33.89)" style="fill: #263238"/>
      <path d="M96.6,387.76a34.56,34.56,0,0,1-3.73-4.7,35,35,0,0,1-3.3-5,35.81,35.81,0,0,1,3.72,4.7A35.4,35.4,0,0,1,96.6,387.76Z" transform="translate(-25.93 -33.89)" style="fill: #263238"/>
      <path d="M112.3,405.87a34.81,34.81,0,0,1-4.25-4.24,34.07,34.07,0,0,1-3.86-4.59,35.25,35.25,0,0,1,4.24,4.24A34.86,34.86,0,0,1,112.3,405.87Z" transform="translate(-25.93 -33.89)" style="fill: #263238"/>
      <path d="M130,422a34.47,34.47,0,0,1-4.71-3.72,35.51,35.51,0,0,1-4.37-4.11,34,34,0,0,1,4.71,3.72A35.52,35.52,0,0,1,130,422Z" transform="translate(-25.93 -33.89)" style="fill: #263238"/>
      <path d="M149.42,436.07a35.08,35.08,0,0,1-5.11-3.15,34.17,34.17,0,0,1-4.81-3.59,35.58,35.58,0,0,1,5.11,3.16A35.37,35.37,0,0,1,149.42,436.07Z" transform="translate(-25.93 -33.89)" style="fill: #263238"/>
      <path d="M170.33,447.79a33.72,33.72,0,0,1-5.43-2.55,34.77,34.77,0,0,1-5.2-3,34.19,34.19,0,0,1,5.44,2.55A34.58,34.58,0,0,1,170.33,447.79Z" transform="translate(-25.93 -33.89)" style="fill: #263238"/>
      <path d="M192.44,457a35.16,35.16,0,0,1-5.69-1.91,34.58,34.58,0,0,1-5.5-2.4,34.81,34.81,0,0,1,5.69,1.91A34.54,34.54,0,0,1,192.44,457Z" transform="translate(-25.93 -33.89)" style="fill: #263238"/>
      <path d="M215.46,463.7a34.61,34.61,0,0,1-5.87-1.25,34.65,34.65,0,0,1-5.74-1.75,34.4,34.4,0,0,1,5.87,1.25A35.45,35.45,0,0,1,215.46,463.7Z" transform="translate(-25.93 -33.89)" style="fill: #263238"/>
      <path d="M239.08,467.71a33.58,33.58,0,0,1-6-.57,35.59,35.59,0,0,1-5.9-1.1,35.2,35.2,0,0,1,6,.58A35,35,0,0,1,239.08,467.71Z" transform="translate(-25.93 -33.89)" style="fill: #263238"/>
      <path d="M263,469a33.81,33.81,0,0,1-6,.1,33.47,33.47,0,0,1-6-.43,35.73,35.73,0,0,1,6-.09A35.54,35.54,0,0,1,263,469Z" transform="translate(-25.93 -33.89)" style="fill: #263238"/>
      <path d="M287,467.71a35.57,35.57,0,0,1-6,.76,33.42,33.42,0,0,1-6,.24A35.55,35.55,0,0,1,281,468,35.92,35.92,0,0,1,287,467.71Z" transform="translate(-25.93 -33.89)" style="fill: #263238"/>
      <path d="M310.59,463.7a34.9,34.9,0,0,1-5.83,1.43,35.45,35.45,0,0,1-5.93.91,35,35,0,0,1,5.83-1.42A34.63,34.63,0,0,1,310.59,463.7Z" transform="translate(-25.93 -33.89)" style="fill: #263238"/>
      <path d="M333.62,457a68.62,68.62,0,0,1-11.42,3.66A71.19,71.19,0,0,1,333.62,457Z" transform="translate(-25.93 -33.89)" style="fill: #263238"/>
      <path d="M355.73,447.78a35.3,35.3,0,0,1-5.36,2.71,33.05,33.05,0,0,1-5.57,2.23,36.54,36.54,0,0,1,5.36-2.71A34.42,34.42,0,0,1,355.73,447.78Z" transform="translate(-25.93 -33.89)" style="fill: #263238"/>
      <path d="M376.63,436.06a69,69,0,0,1-10.28,6.16,34.48,34.48,0,0,1,5-3.3A35.21,35.21,0,0,1,376.63,436.06Z" transform="translate(-25.93 -33.89)" style="fill: #263238"/>
      <path d="M396.06,422a35.43,35.43,0,0,1-4.6,3.85,34.34,34.34,0,0,1-4.91,3.44,70,70,0,0,1,9.51-7.29Z" transform="translate(-25.93 -33.89)" style="fill: #263238"/>
      <path d="M413.75,405.86a35.13,35.13,0,0,1-4.13,4.35,36,36,0,0,1-4.48,4,34.31,34.31,0,0,1,4.12-4.36A33.69,33.69,0,0,1,413.75,405.86Z" transform="translate(-25.93 -33.89)" style="fill: #263238"/>
      <path d="M429.44,387.75a33.71,33.71,0,0,1-3.59,4.81,34.65,34.65,0,0,1-4,4.47,35.27,35.27,0,0,1,3.59-4.8A36,36,0,0,1,429.44,387.75Z" transform="translate(-25.93 -33.89)" style="fill: #263238"/>
      <path d="M442.92,367.94a67.88,67.88,0,0,1-6.45,10.1,35.15,35.15,0,0,1,3-5.19A34.66,34.66,0,0,1,442.92,367.94Z" transform="translate(-25.93 -33.89)" style="fill: #263238"/>
      <path d="M454,346.67a35,35,0,0,1-2.37,5.51,34.62,34.62,0,0,1-2.84,5.29,36.3,36.3,0,0,1,2.37-5.52A35.42,35.42,0,0,1,454,346.67Z" transform="translate(-25.93 -33.89)" style="fill: #263238"/>
      <path d="M462.4,324.23a34.3,34.3,0,0,1-1.69,5.76,33.54,33.54,0,0,1-2.19,5.59,35.87,35.87,0,0,1,1.7-5.76A35,35,0,0,1,462.4,324.23Z" transform="translate(-25.93 -33.89)" style="fill: #263238"/>
      <path d="M468.08,301a34.66,34.66,0,0,1-1,5.91,34.34,34.34,0,0,1-1.5,5.81,34.53,34.53,0,0,1,1-5.92A35.07,35.07,0,0,1,468.08,301Z" transform="translate(-25.93 -33.89)" style="fill: #263238"/>
      <path d="M470.92,277.16a35.38,35.38,0,0,1-.27,6,35.61,35.61,0,0,1-.79,6,34.15,34.15,0,0,1,.27-6A34.8,34.8,0,0,1,470.92,277.16Z" transform="translate(-25.93 -33.89)" style="fill: #263238"/>
      <path d="M470.92,253.19a35.17,35.17,0,0,1,.44,6,33.3,33.3,0,0,1-.09,6,34.87,34.87,0,0,1-.43-6A35.22,35.22,0,0,1,470.92,253.19Z" transform="translate(-25.93 -33.89)" style="fill: #263238"/>
      <path d="M468.08,229.39a34.89,34.89,0,0,1,1.14,5.89,32.81,32.81,0,0,1,.63,6,35.73,35.73,0,0,1-1.14-5.89A33.76,33.76,0,0,1,468.08,229.39Z" transform="translate(-25.93 -33.89)" style="fill: #263238"/>
      <path d="M462.4,206.11a35.23,35.23,0,0,1,1.84,5.7,34.28,34.28,0,0,1,1.35,5.85,34.26,34.26,0,0,1-1.85-5.71A34.12,34.12,0,0,1,462.4,206.11Z" transform="translate(-25.93 -33.89)" style="fill: #263238"/>
      <path d="M454,183.67a33.62,33.62,0,0,1,2.52,5.45,35.56,35.56,0,0,1,2,5.64,34.81,34.81,0,0,1-2.52-5.44A34.71,34.71,0,0,1,454,183.67Z" transform="translate(-25.93 -33.89)" style="fill: #263238"/>
      <path d="M442.92,162.41a35.41,35.41,0,0,1,3.15,5.11,34.34,34.34,0,0,1,2.69,5.36,34.73,34.73,0,0,1-3.15-5.11A34.43,34.43,0,0,1,442.92,162.41Z" transform="translate(-25.93 -33.89)" style="fill: #263238"/>
      <path d="M429.44,142.6a34.22,34.22,0,0,1,3.72,4.7,34,34,0,0,1,3.31,5,35,35,0,0,1-3.73-4.71A34,34,0,0,1,429.44,142.6Z" transform="translate(-25.93 -33.89)" style="fill: #263238"/>
      <path d="M413.74,124.49a34.61,34.61,0,0,1,4.24,4.23,35.2,35.2,0,0,1,3.87,4.59,34.32,34.32,0,0,1-4.25-4.23A34.07,34.07,0,0,1,413.74,124.49Z" transform="translate(-25.93 -33.89)" style="fill: #263238"/>
      <path d="M396.05,108.32a34.17,34.17,0,0,1,4.7,3.71,33.45,33.45,0,0,1,4.37,4.12,36.5,36.5,0,0,1-4.71-3.72A35,35,0,0,1,396.05,108.32Z" transform="translate(-25.93 -33.89)" style="fill: #263238"/>
      <path d="M376.62,94.28a34.9,34.9,0,0,1,5.1,3.16,33.87,33.87,0,0,1,4.81,3.58,34.12,34.12,0,0,1-5.1-3.15A34.17,34.17,0,0,1,376.62,94.28Z" transform="translate(-25.93 -33.89)" style="fill: #263238"/>
      <path d="M355.71,82.57a35.09,35.09,0,0,1,5.43,2.54,33.84,33.84,0,0,1,5.19,3,36,36,0,0,1-5.43-2.55A35.62,35.62,0,0,1,355.71,82.57Z" transform="translate(-25.93 -33.89)" style="fill: #263238"/>
      <path d="M333.6,73.32a34.43,34.43,0,0,1,5.68,1.91,34.61,34.61,0,0,1,5.5,2.39,33.76,33.76,0,0,1-5.68-1.91A34.57,34.57,0,0,1,333.6,73.32Z" transform="translate(-25.93 -33.89)" style="fill: #263238"/>
      <path d="M310.58,66.65a34.61,34.61,0,0,1,5.86,1.25,35.82,35.82,0,0,1,5.74,1.75,34.91,34.91,0,0,1-5.87-1.24A34.91,34.91,0,0,1,310.58,66.65Z" transform="translate(-25.93 -33.89)" style="fill: #263238"/>
      <path d="M287,62.64a35.35,35.35,0,0,1,6,.58,34.5,34.5,0,0,1,5.9,1.09,34.67,34.67,0,0,1-6-.57A33.77,33.77,0,0,1,287,62.64Z" transform="translate(-25.93 -33.89)" style="fill: #263238"/>
      <path d="M263,61.31a34.38,34.38,0,0,1,6-.09,35.54,35.54,0,0,1,6,.42,34,34,0,0,1-6,.1A34.82,34.82,0,0,1,263,61.31Z" transform="translate(-25.93 -33.89)" style="fill: #263238"/>
      <path d="M239.08,62.64a35.34,35.34,0,0,1,5.95-.76,35.93,35.93,0,0,1,6-.24,33.43,33.43,0,0,1-6,.76A33.41,33.41,0,0,1,239.08,62.64Z" transform="translate(-25.93 -33.89)" style="fill: #263238"/>
      <path d="M215.44,66.65a35.52,35.52,0,0,1,5.83-1.42,35.06,35.06,0,0,1,5.93-.92,33.77,33.77,0,0,1-5.83,1.43A35,35,0,0,1,215.44,66.65Z" transform="translate(-25.93 -33.89)" style="fill: #263238"/>
      <path d="M192.42,73.32a35.89,35.89,0,0,1,5.63-2.08,34.61,34.61,0,0,1,5.79-1.58,34.54,34.54,0,0,1-5.63,2.08A34.08,34.08,0,0,1,192.42,73.32Z" transform="translate(-25.93 -33.89)" style="fill: #263238"/>
      <path d="M170.31,82.58a33.29,33.29,0,0,1,5.35-2.71,35.18,35.18,0,0,1,5.57-2.24,33.4,33.4,0,0,1-5.35,2.71A36.72,36.72,0,0,1,170.31,82.58Z" transform="translate(-25.93 -33.89)" style="fill: #263238"/>
      <path d="M149.4,94.29a34.76,34.76,0,0,1,5-3.3,33.85,33.85,0,0,1,5.28-2.85,36.22,36.22,0,0,1-5,3.3A33.35,33.35,0,0,1,149.4,94.29Z" transform="translate(-25.93 -33.89)" style="fill: #263238"/>
      <path d="M130,108.33a35,35,0,0,1,4.6-3.86,35.45,35.45,0,0,1,4.92-3.44,34.82,34.82,0,0,1-4.6,3.86A34.78,34.78,0,0,1,130,108.33Z" transform="translate(-25.93 -33.89)" style="fill: #263238"/>
      <path d="M112.29,124.5a35,35,0,0,1,4.12-4.36,34.27,34.27,0,0,1,4.49-4,34.88,34.88,0,0,1-4.13,4.36A34.76,34.76,0,0,1,112.29,124.5Z" transform="translate(-25.93 -33.89)" style="fill: #263238"/>
      <path d="M96.59,142.6a35.27,35.27,0,0,1,3.59-4.8,34.79,34.79,0,0,1,4-4.48,34.3,34.3,0,0,1-3.59,4.81A34.19,34.19,0,0,1,96.59,142.6Z" transform="translate(-25.93 -33.89)" style="fill: #263238"/>
      <path d="M83.11,162.42a34.44,34.44,0,0,1,3-5.2,34.66,34.66,0,0,1,3.44-4.91,34,34,0,0,1-3,5.19A34.46,34.46,0,0,1,83.11,162.42Z" transform="translate(-25.93 -33.89)" style="fill: #263238"/>
      <path d="M72.06,183.69a34.86,34.86,0,0,1,2.37-5.52,34.19,34.19,0,0,1,2.84-5.28,34.56,34.56,0,0,1-2.37,5.51A33.79,33.79,0,0,1,72.06,183.69Z" transform="translate(-25.93 -33.89)" style="fill: #263238"/>
      <path d="M63.63,206.12a33.87,33.87,0,0,1,1.7-5.75,35.17,35.17,0,0,1,2.18-5.59,33.78,33.78,0,0,1-1.69,5.75A34.45,34.45,0,0,1,63.63,206.12Z" transform="translate(-25.93 -33.89)" style="fill: #263238"/>
      <path d="M58,229.4a34.69,34.69,0,0,1,1-5.92,34.47,34.47,0,0,1,1.49-5.81,34.74,34.74,0,0,1-1,5.92A35.73,35.73,0,0,1,58,229.4Z" transform="translate(-25.93 -33.89)" style="fill: #263238"/>
      <path d="M55.11,253.2a34.94,34.94,0,0,1,.28-6,34.8,34.8,0,0,1,.79-5.95,35.46,35.46,0,0,1-.27,6A34.58,34.58,0,0,1,55.11,253.2Z" transform="translate(-25.93 -33.89)" style="fill: #263238"/>
    </g>
    <g>
      <path d="M285.9,265.74s0-.42,0-1.24.05-2.05.23-3.64a75.09,75.09,0,0,1,5.95-23.31,73.86,73.86,0,0,1,5.65-10.65,77.45,77.45,0,0,1,20.13-21.21,76.56,76.56,0,0,1,32.73-13.34,76,76,0,0,1,19.82-.49,77,77,0,0,1,10.24,1.76,82.1,82.1,0,0,1,10.17,3.24,77,77,0,0,1,34.84,27.88A75,75,0,0,1,431.64,235c.89,1.79,1.64,3.65,2.4,5.51s1.39,3.79,1.94,5.74a77.21,77.21,0,0,1,3.16,24.35,82.8,82.8,0,0,1-1.4,12.33,74.73,74.73,0,0,1-3.3,11.78c-.67,1.92-1.5,3.76-2.3,5.61s-1.75,3.62-2.75,5.35a75.61,75.61,0,0,1-6.58,9.87,76.94,76.94,0,0,1-36.56,25.61,82,82,0,0,1-10.35,2.59,78,78,0,0,1-30.08-.64A76.53,76.53,0,0,1,314,327.7a77.69,77.69,0,0,1-18.73-22.45,72.94,72.94,0,0,1-5-11,76.66,76.66,0,0,1-2.8-9.73,75.67,75.67,0,0,1-1.65-13.91c-.08-1.6,0-2.82,0-3.64s0-1.24,0-1.24,0,.42,0,1.24-.05,2,.05,3.64a75.79,75.79,0,0,0,4.57,23.56,74.58,74.58,0,0,0,5,10.92,77.3,77.3,0,0,0,18.72,22.31,76,76,0,0,0,31.67,15.27,77.77,77.77,0,0,0,29.91.61,82,82,0,0,0,10.29-2.59,76.49,76.49,0,0,0,36.3-25.46,75.41,75.41,0,0,0,6.53-9.82c1-1.71,1.85-3.51,2.73-5.31s1.62-3.66,2.29-5.57a74.47,74.47,0,0,0,3.27-11.7,81.75,81.75,0,0,0,1.39-12.24,76.74,76.74,0,0,0-3.13-24.19c-.55-1.94-1.25-3.82-1.93-5.7s-1.5-3.7-2.39-5.47A75.05,75.05,0,0,0,425.28,225a76.52,76.52,0,0,0-34.6-27.72,79.42,79.42,0,0,0-10.1-3.23,77.56,77.56,0,0,0-29.88-1.31A76.33,76.33,0,0,0,318.11,206,77.18,77.18,0,0,0,298,227.06a73.59,73.59,0,0,0-5.67,10.59,75.26,75.26,0,0,0-6.07,23.22c-.2,1.59-.21,2.81-.29,3.63S285.9,265.74,285.9,265.74Z" transform="translate(-25.93 -33.89)" style="fill: #263238"/>
      <g>
        <circle cx="363.44" cy="269.5" r="63.16" transform="translate(-110.04 302.03) rotate(-45)" style="fill: #fafafa"/>
        <path d="M300.31,267.48s0-1.39.22-4a61.89,61.89,0,0,1,2.08-11.37,63.15,63.15,0,0,1,7.48-16.67A64,64,0,0,1,326.7,217.9a63.23,63.23,0,0,1,43.39-11.42,61.35,61.35,0,0,1,8.46,1.45,67.54,67.54,0,0,1,8.4,2.67,63.56,63.56,0,0,1,28.77,23,61.9,61.9,0,0,1,4.91,8.49,59.14,59.14,0,0,1,3.59,9.29,63.44,63.44,0,0,1-1.28,40,58.43,58.43,0,0,1-4.17,9,62.18,62.18,0,0,1-5.43,8.16,63.6,63.6,0,0,1-30.19,21.14,66.12,66.12,0,0,1-8.56,2.14,62.41,62.41,0,0,1-8.53.91,63.28,63.28,0,0,1-16.3-1.44,63.13,63.13,0,0,1-26.27-12.73A63.88,63.88,0,0,1,308,300.1a62.31,62.31,0,0,1-7.76-28.59c0-2.64,0-4,0-4s0,.35,0,1,0,1.68.05,3a63.1,63.1,0,0,0,23.34,46.84A62.87,62.87,0,0,0,349.85,331a62.92,62.92,0,0,0,16.19,1.4,61.39,61.39,0,0,0,8.47-.91,66.73,66.73,0,0,0,8.49-2.13,63,63,0,0,0,40.72-77.77,57.91,57.91,0,0,0-3.56-9.21,61.42,61.42,0,0,0-4.86-8.42,63,63,0,0,0-28.53-22.86,66.56,66.56,0,0,0-8.33-2.67,64,64,0,0,0-24.64-1.08,62.81,62.81,0,0,0-26.88,10.9,63.73,63.73,0,0,0-16.58,17.38,63,63,0,0,0-7.53,16.56,64.37,64.37,0,0,0-2.18,11.33c-.16,1.31-.17,2.32-.23,3S300.31,267.48,300.31,267.48Z" transform="translate(-25.93 -33.89)" style="fill: #263238"/>
      </g>
      <g>
        <path d="M342.8,167.82a7.38,7.38,0,0,0-4.67-6,6.93,6.93,0,0,0-7.32,1.76A6.53,6.53,0,0,0,330,171a7.53,7.53,0,0,0,5.43,3.46,12.4,12.4,0,0,0,6.51-1" transform="translate(-25.93 -33.89)" style="fill: #263238"/>
        <path d="M357.12,179.67a32.39,32.39,0,0,1,3.13,15.6c-.44,5.35-2.9,10.67-7.24,13.8a4.1,4.1,0,0,1-2.85,1c-1-.16-1.89-1.34-1.38-2.23a13.35,13.35,0,0,1-3.66,3.9,2.42,2.42,0,0,1-1.64.59,1.81,1.81,0,0,1-1.35-1.91A5.13,5.13,0,0,1,343,208c-1-.09-2,.61-2.9,1.07s-2.3.55-2.82-.35.07-1.81.6-2.58c2.41-3.52,4.84-7.24,5.36-11.48.37-3-.27-6.13.45-9.08a10.38,10.38,0,0,1,7.48-7.45c2.07-.49,4.55-.19,5.86,1.49" transform="translate(-25.93 -33.89)" style="fill: #263238"/>
        <g>
          <g>
            <path d="M378.93,204.15c2.14-2.74,6.08-3.53,7.81-6.54,3.06-5.29,2.84-10.29,2.83-16.4,0-4.18.59-10.1-1.87-13.48-1.73-2.39-3-3.85-4.51-6.36-1.68-2.76-3.43-6-1.62-8.71" transform="translate(-25.93 -33.89)" style="fill: #263238"/>
            <path d="M378.09,204.19a6,6,0,0,1,7.16-.94L381.6,152c2.32-.24,7.66,3.05,9.14,4.86a21.48,21.48,0,0,1,3.14,6.23c3.36,9,.48,19.62-3.8,27.55h0c2.48,6.89,2.36,13.28-1.85,17.19l-.06.07-.61.56a5.84,5.84,0,0,0-1.78,4.95v.07a5.45,5.45,0,0,1,.08,1.61,1.49,1.49,0,0,1-.9,1.23c-.82.29-1.65-.48-2-1.28a10.39,10.39,0,0,0-1-2.41,28.18,28.18,0,0,0-1.42,2.86c-.56.91-1.82,1.59-2.67.95a2.41,2.41,0,0,1-.7-1.13,15.67,15.67,0,0,1-1.21-5.75A7.65,7.65,0,0,1,378.09,204.19Z" transform="translate(-25.93 -33.89)" style="fill: #263238"/>
          </g>
          <path d="M351.42,173.14l.23,44.41a13.21,13.21,0,0,0,13.93,13.12h0a12.8,12.8,0,0,0,12.08-13.2c0-3.34.18-7.29.2-7.63,0,0,11.19-2.15,11.95-13.34.36-5.41.52-14.51.27-24.65a20.89,20.89,0,0,0-19.74-20.32l-1.08-.06C357.56,151.5,351.06,161.45,351.42,173.14Z" transform="translate(-25.93 -33.89)" style="fill: #ffd5be"/>
          <path d="M377.9,209.89a26,26,0,0,1-14.37-4.95s3,8.25,14.24,7.86Z" transform="translate(-25.93 -33.89)" style="fill: #ffb194"/>
          <path d="M384.06,180.3a1.61,1.61,0,0,1-1.63,1.53,1.53,1.53,0,0,1-1.57-1.54,1.61,1.61,0,0,1,1.63-1.53A1.54,1.54,0,0,1,384.06,180.3Z" transform="translate(-25.93 -33.89)" style="fill: #263238"/>
          <path d="M386.94,176.79c-.18.15-1.43-.13-3.13.18s-2.89,1-3.08.9.07-.28.59-.59a7.61,7.61,0,0,1,2.45-.86,6.62,6.62,0,0,1,2.51,0C386.83,176.55,387,176.72,386.94,176.79Z" transform="translate(-25.93 -33.89)" style="fill: #263238"/>
          <path d="M366.76,179.16a1.61,1.61,0,0,1-1.63,1.53,1.53,1.53,0,0,1-1.57-1.53,1.61,1.61,0,0,1,1.63-1.53A1.52,1.52,0,0,1,366.76,179.16Z" transform="translate(-25.93 -33.89)" style="fill: #263238"/>
          <path d="M370.21,177.87c-.24,0-1.18-.83-2.79-1.44s-3-.61-3.11-.78.2-.2.81-.2a7.37,7.37,0,0,1,2.55.5,6.78,6.78,0,0,1,2.16,1.27C370.23,177.61,370.32,177.86,370.21,177.87Z" transform="translate(-25.93 -33.89)" style="fill: #263238"/>
          <path d="M376,189.71a12.24,12.24,0,0,1,2.82-.35c.45,0,.87-.08,1-.38a2.3,2.3,0,0,0-.22-1.32c-.36-1.08-.73-2.22-1.12-3.41-1.54-4.87-2.63-8.86-2.43-8.92s1.6,3.83,3.14,8.7c.37,1.2.73,2.34,1.06,3.43a2.5,2.5,0,0,1,.13,1.74,1.09,1.09,0,0,1-.75.6,2.65,2.65,0,0,1-.76.07A11.24,11.24,0,0,1,376,189.71Z" transform="translate(-25.93 -33.89)" style="fill: #263238"/>
          <path d="M370.84,190.62c.28,0,.18,1.87,1.7,3.29s3.53,1.32,3.53,1.58-.46.34-1.3.31a4.63,4.63,0,0,1-2.95-1.21,4.13,4.13,0,0,1-1.32-2.75C370.48,191.06,370.71,190.61,370.84,190.62Z" transform="translate(-25.93 -33.89)" style="fill: #263238"/>
          <path d="M370.41,171.09c-.2.46-1.91.14-3.94.27s-3.7.59-3.94.16c-.11-.21.2-.63.88-1.05a6.84,6.84,0,0,1,6-.33C370.14,170.48,370.49,170.87,370.41,171.09Z" transform="translate(-25.93 -33.89)" style="fill: #263238"/>
          <path d="M387,172.2c-.32.38-1.49-.1-2.91-.19s-2.65.11-2.91-.31c-.11-.21.11-.59.65-.93a4.08,4.08,0,0,1,2.41-.51,4,4,0,0,1,2.28.92C387,171.61,387.15,172,387,172.2Z" transform="translate(-25.93 -33.89)" style="fill: #263238"/>
          <path d="M334.44,188.32c.41-2.13.7-4.28,1-6.44.52-3.74,8.9-17,8.9-17,2.69-5.24,5.86-10.35,10.25-14.22s10.21-6.39,16-5.75,11.28,4.94,12.4,10.75l-.93-1.49c.15,2-2.07,3.53-4.08,3.62s-4-.68-6-.81c-3.93-.24-7.71,2.09-10.06,5.3s-3.47,7.2-4.09,11.15-.8,8-1.51,11.93c-.77,4.22-3.21,5.61-6.49,8.31a63.18,63.18,0,0,0-8.58,8.65,5.51,5.51,0,0,1-4.46,1.75c-1.26-.32-1.55-2.21-1.68-3.53s.83-2.84.95-4.81a4.1,4.1,0,0,1-2-3.33A13.63,13.63,0,0,1,334.44,188.32Z" transform="translate(-25.93 -33.89)" style="fill: #263238"/>
          <g>
            <path d="M352.79,184c-.19-.09-7.57-2.7-7.75,5s7.56,6.27,7.57,6.05S352.79,184,352.79,184Z" transform="translate(-25.93 -33.89)" style="fill: #ffd5be"/>
            <path d="M350.34,192.06s-.14.09-.37.18a1.29,1.29,0,0,1-1,0c-.81-.31-1.46-1.62-1.47-3a4.5,4.5,0,0,1,.42-1.91,1.57,1.57,0,0,1,1-1,.69.69,0,0,1,.78.39c.1.21.05.37.09.38s.17-.12.11-.44a.82.82,0,0,0-.29-.49,1,1,0,0,0-.73-.21,1.87,1.87,0,0,0-1.43,1.15,4.59,4.59,0,0,0-.51,2.13c0,1.55.77,3,1.87,3.36a1.43,1.43,0,0,0,1.23-.18C350.32,192.24,350.37,192.07,350.34,192.06Z" transform="translate(-25.93 -33.89)" style="fill: #ffb194"/>
          </g>
        </g>
        <path d="M342.27,168.55a16.07,16.07,0,0,0,4.61-.39,19.41,19.41,0,0,0,4.64-1.92,51.56,51.56,0,0,0,5.16-3.42,55.1,55.1,0,0,1,5.19-3.5,20,20,0,0,1,4.71-2,11.62,11.62,0,0,1,3.43-.45,6,6,0,0,1,.93.08c.22,0,.33.05.33.07a16.94,16.94,0,0,0-4.59.65,20.78,20.78,0,0,0-4.57,2.1c-1.63,1-3.34,2.19-5.12,3.5a46.14,46.14,0,0,1-5.24,3.42,18.64,18.64,0,0,1-4.78,1.86,11.19,11.19,0,0,1-3.45.26,7.26,7.26,0,0,1-.93-.14C342.38,168.6,342.27,168.57,342.27,168.55Z" transform="translate(-25.93 -33.89)" style="fill: #455a64"/>
        <path d="M340.29,171.59c0-.09,1.12.29,2.94.55a18.8,18.8,0,0,0,10.8-1.66,18.12,18.12,0,0,0,2.75-1.65c1.47-1.1,2.23-2,2.3-1.9s-.14.25-.48.65a11.49,11.49,0,0,1-1.6,1.54,16.1,16.1,0,0,1-2.76,1.79,18.91,18.91,0,0,1-3.79,1.4,17.44,17.44,0,0,1-7.28.19,12.22,12.22,0,0,1-2.14-.58A2.55,2.55,0,0,1,340.29,171.59Z" transform="translate(-25.93 -33.89)" style="fill: #455a64"/>
        <path d="M343.09,167.14a31.1,31.1,0,0,1-2.2,3.83,30.72,30.72,0,0,1-2.31,3.77,21.35,21.35,0,0,1,4.51-7.6Z" transform="translate(-25.93 -33.89)" style="fill: #ff725e"/>
        <path d="M395.53,169a6.13,6.13,0,0,1-6.22-2.17,27.46,27.46,0,0,0,3,1.5A29.74,29.74,0,0,0,395.53,169Z" transform="translate(-25.93 -33.89)" style="fill: #455a64"/>
        <path d="M395.36,172.58a3.54,3.54,0,0,1-2.57.72,3.59,3.59,0,0,1-2.54-.82c.07-.14,1.15.28,2.55.3S395.31,172.44,395.36,172.58Z" transform="translate(-25.93 -33.89)" style="fill: #455a64"/>
      </g>
      <g>
        <path d="M411,272.1,392,287.46l.81,5.29,4.1,12.14s4.94.64,11.45-7.34,14.24-23.33,14.24-23.33Z" transform="translate(-25.93 -33.89)" style="fill: #ffd5be"/>
        <g>
          <path d="M447.19,236.54a1.9,1.9,0,0,0-1.58-1l-11.29-.47a3.48,3.48,0,0,0-2.63,1.09l-29.21,31,1.58,1.3,12.25,1.81L447.46,237Z" transform="translate(-25.93 -33.89)" style="fill: #263238"/>
          <path d="M438.57,239.7a.8.8,0,1,0,.24-.92A.69.69,0,0,0,438.57,239.7Z" transform="translate(-25.93 -33.89)" style="fill: #fff"/>
          <path d="M447.46,237a15.69,15.69,0,0,1-2.2,0l-6-.15-4.14-.13a2.3,2.3,0,0,0-1.89.69l-1.66,1.79-7.47,7.94c-5.31,5.63-10.14,10.7-13.67,14.34-1.71,1.75-3.12,3.2-4.2,4.29a12.62,12.62,0,0,1-1.6,1.51,13.38,13.38,0,0,1,1.41-1.69l4-4.44c3.43-3.72,8.21-8.84,13.52-14.47l7.51-7.91c.57-.61,1.14-1.2,1.69-1.77a2.86,2.86,0,0,1,2.32-.84l4.14.22,6,.36A12.79,12.79,0,0,1,447.46,237Z" transform="translate(-25.93 -33.89)" style="fill: #455a64"/>
        </g>
        <g>
          <path d="M433,247.39s-1-.35-2,2.24-4.15,10-4.15,10l-4.65-3.66-6.58-.32s-1.64,1-.74,1.93,4.84,2.35,4.84,2.35l2.22,4.86-7.86-5.71s-3,.23-2.48,2.14,5.34,8.44,5.34,8.44l-4.25-1.11-4.57-4s-1.59-.21-1.24,1.23,4.8,7.25,4.8,7.25l5.9,4.31s3.58.36,4.11-.62a12.67,12.67,0,0,0,.88-2.43s2-.17,2.48-1a5.71,5.71,0,0,0,.54-2.32s2.85,1.05,3.51-.53a18.94,18.94,0,0,0,.87-6.17c-.07-1.32,3.6-12.76,3.54-13.13S435,247,433,247.39Z" transform="translate(-25.93 -33.89)" style="fill: #ffd5be"/>
          <path d="M421.92,276.71a3.64,3.64,0,0,1-1.78.22,11.65,11.65,0,0,1-7.8-3.41c-.78-.81-1.12-1.41-1-1.46s1.88,2,4.89,3.29S421.92,276.5,421.92,276.71Z" transform="translate(-25.93 -33.89)" style="fill: #ffb194"/>
          <path d="M420.81,274.11c-.13.13-1.17-.67-2.21-1.9s-1.67-2.38-1.52-2.48,1,.85,2,2S420.94,274,420.81,274.11Z" transform="translate(-25.93 -33.89)" style="fill: #ffb194"/>
          <path d="M425.22,269.15c-.13.13-1.16-.66-2.11-1.93s-1.44-2.48-1.28-2.56.89.93,1.81,2.15S425.35,269,425.22,269.15Z" transform="translate(-25.93 -33.89)" style="fill: #ffb194"/>
          <path d="M429.61,265.3c-.19,0-.62-1.29-1.41-2.8s-1.61-2.63-1.46-2.76,1.24.85,2.06,2.46S429.78,265.27,429.61,265.3Z" transform="translate(-25.93 -33.89)" style="fill: #ffb194"/>
        </g>
      </g>
      <g>
        <g>
          <path d="M401,313.23c-4.34-6.45-8.22-20.48-8.22-20.48S391.1,279.9,389,275.11s-1.52-6.75-1.52-6.75,1.77-12.75.59-19.16-4.17-21.22-9.43-27.56L351,213s-15,7.11-16.35,8.7-11,9.57-11.2,21.22c-.14,7.28,5.3,33.74,5.3,33.74l6,49.67s20,9.32,39.19,5.34S404.16,318,404.16,318Z" transform="translate(-25.93 -33.89)" style="fill: #ff725e"/>
          <path d="M393,292.76a3.25,3.25,0,0,0-.05-.69c-.05-.45-.13-1.12-.26-2-.25-1.7-.64-4.17-1.31-7.18a83,83,0,0,0-3.07-10.43,13.46,13.46,0,0,1-.77-6.17c.15-2.19.6-4.44.8-6.8a62.66,62.66,0,0,0-2.84-23.83,59.42,59.42,0,0,0-2.67-6.84c-.36-.8-.69-1.39-.89-1.8a3.62,3.62,0,0,0-.35-.6,2.86,2.86,0,0,0,.24.65c.17.42.47,1,.79,1.83a69.42,69.42,0,0,1,2.48,6.87,64.73,64.73,0,0,1,2.65,23.68c-.19,2.31-.64,4.57-.79,6.8a14,14,0,0,0,.84,6.38A87.82,87.82,0,0,1,391,283c.72,3,1.17,5.44,1.49,7.14.16.79.28,1.44.37,1.94A3,3,0,0,0,393,292.76Z" transform="translate(-25.93 -33.89)" style="fill: #263238"/>
        </g>
        <path d="M384.41,243.54a64,64,0,0,1,.74,21.07,53.39,53.39,0,0,0-13,3.59q-.27-10.8-.55-21.61a1.66,1.66,0,0,1,.36-1.33,1.68,1.68,0,0,1,.94-.31l11.72-1.37" transform="translate(-25.93 -33.89)" style="fill: #263238"/>
        <g style="opacity: 0.30000000000000004">
          <path d="M389.83,279.4q-28.11,8.27-55.3,19.27l-.93,16.54c.85,2.41,3.52,3.79,6.06,3.87a17.36,17.36,0,0,0,7.34-1.9,124.29,124.29,0,0,0,37-24.82C387.55,288.88,391.18,284.2,389.83,279.4Z" transform="translate(-25.93 -33.89)"/>
        </g>
        <g>
          <path d="M341.9,222.77a7.11,7.11,0,0,0-9.48.21c-4.91,4.6-12.07,12.36-12.48,18.83-.64,9.9-3.07,36.06-3.07,36.06l36.48-.12s1.11-34.84-1.83-42.94C349.86,230.24,345.43,225.78,341.9,222.77Z" transform="translate(-25.93 -33.89)" style="fill: #ff725e"/>
          <path d="M321.24,278.27s.2,20.16,3.54,29c3.45,9.19,8.12,8.52,12.1,8.35s62.52-39.88,62.52-39.88l-8.3-11.48-45.27,19.45-.37-5.62Z" transform="translate(-25.93 -33.89)" style="fill: #ffd5be"/>
          <g>
            <g>
              <path d="M390.75,264.71l9.64-15.35,9.87-3.5,12.52-.05a2.52,2.52,0,0,1-1.16,3l4.36-.25a2.48,2.48,0,0,1-1.25,3.4l3.16.19a4.47,4.47,0,0,1-4.53,3.1,68.71,68.71,0,0,0-9.23.42l-5.67,4,9-1.4,6.69.5s1.06,1.57-.38,2.14-7.17.82-7.17.82l-8.4,3.24s-1.22,5.77-2.19,7.13-7,3.68-7,3.68Z" transform="translate(-25.93 -33.89)" style="fill: #ffd5be"/>
              <path d="M426,248.57a15.92,15.92,0,0,1-3.38.26c-2.09.08-5,.13-8.16.15h-3.05l.12,0c-2.27.93-4.24,1.71-5.65,2.24a9.33,9.33,0,0,1-2.29.73,10,10,0,0,1,2.13-1.11c1.37-.64,3.31-1.49,5.56-2.46l.06,0h.06l3.06,0c3.19,0,6.07,0,8.16.05A17.91,17.91,0,0,1,426,248.57Z" transform="translate(-25.93 -33.89)" style="fill: #ffb194"/>
              <path d="M427.14,252.12a14.3,14.3,0,0,1-3.08.14c-1.89,0-4.51,0-7.39-.14l-2.88-.11.16,0c-3.88,2-6.76,3.45-6.83,3.31a53.66,53.66,0,0,1,6.53-3.88l.07,0h.09l2.88.08c2.88.09,5.5.21,7.39.33A14,14,0,0,1,427.14,252.12Z" transform="translate(-25.93 -33.89)" style="fill: #ffb194"/>
            </g>
            <path d="M399,275.82a7.17,7.17,0,0,1,1-.45c.63-.28,1.56-.69,2.74-1.28.59-.3,1.25-.63,1.93-1.06a6.15,6.15,0,0,0,1-.73,3,3,0,0,0,.65-1.11A43.14,43.14,0,0,0,408,265l0-.11.11-.05,8.39-3.28h.08c1.48-.08,3.05-.18,4.67-.37a13.17,13.17,0,0,0,2.38-.44.79.79,0,0,0,.59-.68,2,2,0,0,0-.32-1l.22.13-6.69-.47h.07l-9,1.42-1.38.21,1.14-.8,5.67-4,.07,0h.09c2.29-.24,4.71-.44,7.19-.47.68,0,1.36,0,2,0a4.47,4.47,0,0,0,1.83-.25,4.36,4.36,0,0,0,2.41-2.6l.3.43-3.16-.2-1.16-.07,1-.55a2.52,2.52,0,0,0,1.21-1.27,2.23,2.23,0,0,0-.1-1.68l.3.17-4.35.24-1.19.07,1-.66a2.5,2.5,0,0,0,1-1.16,2.25,2.25,0,0,0,0-1.47l.29.2H410.35l-9.88,3.46.12-.1-7.15,11.19c-.83,1.28-1.49,2.28-2,3l-.52.78a1.31,1.31,0,0,1-.2.25,1.08,1.08,0,0,1,.14-.29c.13-.21.28-.48.47-.81l1.86-3.07,7-11.31,0-.06.08,0,9.86-3.55h.09l12.52-.08H423l.06.2a2.78,2.78,0,0,1,0,1.93,3.15,3.15,0,0,1-1.25,1.47l-.19-.59,4.36-.25h.22l.09.18a2.9,2.9,0,0,1,.14,2.22,3.13,3.13,0,0,1-1.52,1.62l-.14-.62,3.16.19.44,0-.14.4a5,5,0,0,1-2.81,3,5.09,5.09,0,0,1-2.11.31c-.66,0-1.33,0-2,0-2.43,0-4.85.23-7.12.47l.16-.06-5.68,4-.24-.59,9-1.38h.07l6.7.51h.15l.07.12a2.47,2.47,0,0,1,.42,1.42,1.38,1.38,0,0,1-1,1.17,12.41,12.41,0,0,1-2.53.46c-1.64.18-3.21.27-4.71.34l.09,0-8.42,3.2.13-.16a42.57,42.57,0,0,1-1.79,6.27,3.24,3.24,0,0,1-.75,1.21,6.89,6.89,0,0,1-1.06.75c-.71.42-1.37.74-2,1-1.21.56-2.16.94-2.81,1.18l-.73.27A.77.77,0,0,1,399,275.82Z" transform="translate(-25.93 -33.89)" style="fill: #ffb194"/>
          </g>
          <path d="M316.24,277.85a2.45,2.45,0,0,1,.61-.06l1.77-.05,6.61-.11,22.62-.14-.32.3c.18-3.16.24-6.54.17-10-.11-5.74-.43-11.22-.59-16.2-.1-2.5-.09-4.87-.22-7.07a42.62,42.62,0,0,0-.75-6.08,22.81,22.81,0,0,0-3.27-8.17c-1.17-1.74-2.06-2.52-2-2.57a3.26,3.26,0,0,1,.64.56,14.94,14.94,0,0,1,1.59,1.86,22.42,22.42,0,0,1,3.52,8.22,40.34,40.34,0,0,1,.83,6.14c.16,2.23.17,4.6.29,7.08.19,5,.54,10.45.64,16.22.07,3.49,0,6.89-.19,10.07l0,.31h-.31l-22.62-.09-6.61-.09-1.77,0A2.45,2.45,0,0,1,316.24,277.85Z" transform="translate(-25.93 -33.89)" style="fill: #263238"/>
        </g>
      </g>
    </g>
    <path d="M168.26,111.18s.92-1.21,2.79-3.4A82.49,82.49,0,0,1,180,99a78.49,78.49,0,0,1,16.74-10.8,71.49,71.49,0,0,1,25.41-6.89,66.25,66.25,0,0,1,15.36.63,60.17,60.17,0,0,1,15.9,5A57.79,57.79,0,0,1,279.55,112c6.11,11.48,8.54,25.53,6.78,39.54a81.64,81.64,0,0,1-51.74,65.31c-13.25,4.93-27.48,5.77-40.06,2.45a57.81,57.81,0,0,1-30.47-19.67,59.93,59.93,0,0,1-8.47-14.34,65.18,65.18,0,0,1-4.12-14.8,71.44,71.44,0,0,1,.9-26.31,78,78,0,0,1,6.68-18.77,82.65,82.65,0,0,1,6.54-10.77c1.71-2.32,2.67-3.49,2.67-3.49s-.21.31-.65.91-1.12,1.45-1.94,2.64a84.92,84.92,0,0,0-6.44,10.81,78.59,78.59,0,0,0-6.58,18.73,71.58,71.58,0,0,0-.82,26.19A65.8,65.8,0,0,0,156,185.17a59.78,59.78,0,0,0,8.44,14.22,57.46,57.46,0,0,0,30.25,19.48c12.48,3.28,26.61,2.43,39.76-2.47a81.21,81.21,0,0,0,51.41-64.89c1.76-13.92-.64-27.86-6.69-39.26a57.37,57.37,0,0,0-25.87-25,59.61,59.61,0,0,0-15.78-5,66,66,0,0,0-15.26-.66,71.12,71.12,0,0,0-25.31,6.79,78.25,78.25,0,0,0-16.74,10.69,83.9,83.9,0,0,0-9,8.74c-1,1.07-1.65,1.93-2.14,2.49S168.26,111.18,168.26,111.18Z" transform="translate(-25.93 -33.89)" style="fill: #263238"/>
    <g>
      <ellipse cx="216.38" cy="146.56" rx="60.61" ry="53.34" transform="translate(-58.8 191.24) rotate(-51.61)" style="fill: #fff"/>
      <path d="M174.57,113.43s.76-1,2.31-2.82a67.36,67.36,0,0,1,7.44-7.32,64.53,64.53,0,0,1,13.87-9,59.21,59.21,0,0,1,21.05-5.72,55.07,55.07,0,0,1,12.73.52,50.08,50.08,0,0,1,13.18,4.12,48,48,0,0,1,21.64,20.86,55.62,55.62,0,0,1,5.62,32.78A67.67,67.67,0,0,1,229.52,201a55.45,55.45,0,0,1-33.2,2,48,48,0,0,1-25.25-16.3,49.86,49.86,0,0,1-7-11.89,54.56,54.56,0,0,1-3.42-12.27,59.34,59.34,0,0,1,.75-21.81,64.86,64.86,0,0,1,5.55-15.54,67.87,67.87,0,0,1,5.42-8.92c1.42-1.92,2.22-2.89,2.22-2.89s-.17.26-.53.76-.93,1.21-1.6,2.19a70.87,70.87,0,0,0-5.33,9,65.26,65.26,0,0,0-5.44,15.52,59,59,0,0,0-.67,21.68,54,54,0,0,0,3.42,12.17,49,49,0,0,0,7,11.77,47.5,47.5,0,0,0,25,16.12,55.15,55.15,0,0,0,32.91-2.05,67.25,67.25,0,0,0,42.55-53.71,55.12,55.12,0,0,0-5.53-32.49A47.64,47.64,0,0,0,245,93.65a49.4,49.4,0,0,0-13.06-4.11A54.24,54.24,0,0,0,219.27,89a59.17,59.17,0,0,0-21,5.61,64.83,64.83,0,0,0-13.86,8.85,71,71,0,0,0-7.5,7.23c-.8.88-1.36,1.6-1.77,2.06S174.57,113.43,174.57,113.43Z" transform="translate(-25.93 -33.89)" style="fill: #263238"/>
    </g>
    <g>
      <g>
        <g>
          <g>
            <path d="M180.81,44.33a5.83,5.83,0,0,0-10.46.91,10.83,10.83,0,0,1-1,2.57c-1.5,2-5.2,1.43-6.39,3.64s1.66,5.16,1,7.74c-.57,2.05-3.21,3-3.82,5-.79,2.72,2.47,5.4,1.69,8.12-.67,2.34-4,3.21-4.49,5.59-.58,2.63,2.65,4.77,2.6,7.45-.07,3.45-5.32,5.34-4.83,8.75.26,1.88,2.27,3.14,2.6,5,.63,3.52-4.82,6-4.17,9.49.31,1.65,1.87,2.71,3.23,3.71s2.74,2.44,2.47,4.1-2.19,2.65-3.24,4.07c-1.6,2.18.95,7.83,3.42,8.92l10.3-7.69s-2.95-2.46-.64-4.72.82-3.28.73-5c0,0,2.3,1.94,1.46,4a5,5,0,0,0,.53,4.8l15.71-7.05,1.69-14.9Z" transform="translate(-25.93 -33.89)" style="fill: #263238"/>
            <path d="M157.9,113.72a3.89,3.89,0,0,1-1,0,6.31,6.31,0,0,1-2.75-.81,6.23,6.23,0,0,1-2.85-3.48,6.6,6.6,0,0,1-.29-2.84,9.05,9.05,0,0,1,1.06-3c.51-1,1.15-2,1.63-3.07a6.28,6.28,0,0,0,.6-3.58c-.22-1.26-1.18-2.27-1.94-3.45a3.54,3.54,0,0,1-.67-2.08,2.52,2.52,0,0,1,1.15-1.92,15.38,15.38,0,0,1,2-1.09A3.83,3.83,0,0,0,156.45,87a2.72,2.72,0,0,0,.15-2.12,7,7,0,0,0-1-2.06c-.45-.64-1-1.27-1.42-2a5.32,5.32,0,0,1-.92-2.35,3.37,3.37,0,0,1,.77-2.45A9.73,9.73,0,0,1,156,74.4a13,13,0,0,0,1.93-1.57,3.22,3.22,0,0,0,.94-2.09,5.09,5.09,0,0,0-.66-2.25c-.37-.71-.8-1.4-1.16-2.13a4.4,4.4,0,0,1-.53-2.39,3.19,3.19,0,0,1,.37-1.18,4.87,4.87,0,0,1,.73-1c1.09-1.12,2.49-1.87,3.08-3.17a3.7,3.7,0,0,0,.25-2,11.75,11.75,0,0,0-.52-2,8.88,8.88,0,0,1-.76-4,3.08,3.08,0,0,1,.84-1.8,3.81,3.81,0,0,1,1.66-.95c1.19-.36,2.36-.41,3.43-.66a3.93,3.93,0,0,0,2.55-1.57c.55-.81.85-1.73,1.38-2.46a5.64,5.64,0,0,1,3.87-2.26,5.56,5.56,0,0,1,2.83.33,3.66,3.66,0,0,1,.67.34l.21.14s-.29-.18-.9-.41a5.73,5.73,0,0,0-2.79-.25,5.47,5.47,0,0,0-3.71,2.23c-.5.71-.79,1.62-1.36,2.48a4.13,4.13,0,0,1-2.69,1.69c-1.09.27-2.27.33-3.4.68a3.45,3.45,0,0,0-1.52.89,2.66,2.66,0,0,0-.75,1.62,8.69,8.69,0,0,0,.76,3.86,11,11,0,0,1,.54,2.08,4,4,0,0,1-.27,2.23c-.67,1.45-2.11,2.2-3.14,3.28a4.76,4.76,0,0,0-.67.88,2.93,2.93,0,0,0-.32,1,4,4,0,0,0,.51,2.18c.34.71.77,1.39,1.15,2.12a5.44,5.44,0,0,1,.7,2.43,3.56,3.56,0,0,1-1,2.36,13.8,13.8,0,0,1-2,1.61,9.82,9.82,0,0,0-1.87,1.62,3,3,0,0,0-.69,2.17,5.2,5.2,0,0,0,.86,2.18c.43.68.94,1.29,1.41,2A7.4,7.4,0,0,1,157,84.82a3.09,3.09,0,0,1-.2,2.4A4.15,4.15,0,0,1,155,88.75a17.72,17.72,0,0,0-1.94,1,2.2,2.2,0,0,0-1,1.66,3.25,3.25,0,0,0,.62,1.88c.72,1.14,1.73,2.19,2,3.57a6.52,6.52,0,0,1-.64,3.76c-.51,1.12-1.15,2.1-1.67,3.07a8.78,8.78,0,0,0-1.05,2.93,6.21,6.21,0,0,0,.25,2.74,6.06,6.06,0,0,0,2.72,3.41,6.61,6.61,0,0,0,2.67.87C157.55,113.74,157.89,113.7,157.9,113.72Z" transform="translate(-25.93 -33.89)" style="fill: #263238"/>
            <path d="M158.38,125a.62.62,0,0,1-.21-.15,1.06,1.06,0,0,1-.33-.68,1.9,1.9,0,0,1,.28-1.2,2.31,2.31,0,0,1,1.34-1c.61-.22,1.31-.3,2-.48a3,3,0,0,0,2-1.27,1.48,1.48,0,0,0,.08-1.24,5.72,5.72,0,0,0-.75-1.23,3.18,3.18,0,0,1-.65-1.47,2.84,2.84,0,0,1,.41-1.65c.28-.5.61-1,.91-1.47a3,3,0,0,0,.53-1.61,2.38,2.38,0,0,0-.75-1.55c-.41-.47-.92-.87-1.37-1.38a2.29,2.29,0,0,1-.7-2,1.74,1.74,0,0,1,.52-1,3.43,3.43,0,0,1,.89-.63c.65-.32,1.33-.55,2-.84a3.88,3.88,0,0,0,1.69-1.2,2.39,2.39,0,0,0,.3-2,13.13,13.13,0,0,0-.79-2.13,8.62,8.62,0,0,1-.72-2.29,4.66,4.66,0,0,1,.4-2.44c.65-1.52,1.75-2.82,2.09-4.4a3.73,3.73,0,0,0-.32-2.34,22.46,22.46,0,0,0-1.26-2.2,5.38,5.38,0,0,1-.89-2.47,3.86,3.86,0,0,1,.88-2.44c.51-.69,1.11-1.27,1.63-1.9a4,4,0,0,0,1-2.06,3.63,3.63,0,0,0-.55-2.18c-.37-.68-.83-1.32-1.21-2a4.34,4.34,0,0,1-.67-2.28,4.56,4.56,0,0,1,.79-2.18c.39-.64.83-1.23,1.13-1.86a3,3,0,0,0,.3-2c-.29-1.32-1.33-2.38-1.58-3.77a2.64,2.64,0,0,1,.43-2,9.19,9.19,0,0,1,1.28-1.41,6.2,6.2,0,0,0,1.14-1.34,3.29,3.29,0,0,0,.43-1.58c0-1.1-.2-2.17-.14-3.2a6,6,0,0,1,.87-2.75,5.69,5.69,0,0,1,3.68-2.64,5.91,5.91,0,0,1,2.89.08,3.78,3.78,0,0,1,.94.39s-.32-.15-1-.31a6,6,0,0,0-2.84,0,5.73,5.73,0,0,0-4.33,5.26c-.06,1,.2,2,.16,3.2a3.59,3.59,0,0,1-.45,1.72,6.85,6.85,0,0,1-1.18,1.4,9.41,9.41,0,0,0-1.23,1.37,2.32,2.32,0,0,0-.37,1.74c.22,1.26,1.25,2.3,1.59,3.75a3.28,3.28,0,0,1-.32,2.19c-.32.67-.76,1.27-1.14,1.9a4.27,4.27,0,0,0-.73,2,4,4,0,0,0,.63,2.08c.37.67.84,1.31,1.22,2a4.06,4.06,0,0,1,.6,2.4,4.42,4.42,0,0,1-1.11,2.27c-.53.64-1.12,1.22-1.61,1.88a3.46,3.46,0,0,0-.8,2.2A4.94,4.94,0,0,0,166.3,85a21.38,21.38,0,0,1,1.29,2.24,4.06,4.06,0,0,1,.33,2.57c-.38,1.72-1.5,3-2.11,4.48a4.28,4.28,0,0,0-.38,2.24,8.58,8.58,0,0,0,.69,2.19,14.13,14.13,0,0,1,.81,2.2,2.8,2.8,0,0,1-.37,2.3,4.26,4.26,0,0,1-1.84,1.31c-.68.3-1.36.52-2,.83a2,2,0,0,0-1.24,1.37,1.94,1.94,0,0,0,.61,1.69c.42.48.93.89,1.36,1.38a2.67,2.67,0,0,1,.82,1.76,3.39,3.39,0,0,1-.58,1.76c-.31.51-.65,1-.92,1.46a2.54,2.54,0,0,0-.39,1.48,2.87,2.87,0,0,0,.6,1.36,6.43,6.43,0,0,1,.76,1.29,1.7,1.7,0,0,1-.11,1.43,3.2,3.2,0,0,1-2.11,1.34c-.75.17-1.45.24-2,.44a2.25,2.25,0,0,0-1.29.92,1.85,1.85,0,0,0-.3,1.13A1.14,1.14,0,0,0,158.38,125Z" transform="translate(-25.93 -33.89)" style="fill: #455a64"/>
          </g>
          <g>
            <path d="M176.79,192.43c4.67,5,19.85,10.47,19.85,10.47l-6.81-11.38-8.45-38.18-5.58-35.9c-.46.57-14,9.19-16,14.74s1.42,31.19,2,35.11A49,49,0,0,0,176.79,192.43Z" transform="translate(-25.93 -33.89)" style="fill: #ff725e"/>
            <path d="M184,105.09l-1.07,6.67-10,8a115,115,0,0,0-.11,30.38s14.63,39.65,15,41.38c.67,3.21,8.88,11.36,8.88,11.36s11.13,3.89,28.18-.6c15.94-4.2,28.19-17.42,29.94-19s6.91-8.81,6.91-8.81L242.35,135l-.76-26.85L221.22,103,214.3,97.6Z" transform="translate(-25.93 -33.89)" style="fill: #ff725e"/>
            <path d="M241.25,108.21s11.28,3.92,14.23,10.69,13,35.32,13.24,41.21c0,.78-4.09,12.89-7.39,14.88-4.38,2.64-11-3.36-11-3.36l-4.59-7.47.24-7.82-5.21-20.81Z" transform="translate(-25.93 -33.89)" style="fill: #ff725e"/>
            <path d="M184.4,108.36s23.3,28.54,23.3,28.54l3.16-26.4,4.41-13L184.94,105Z" transform="translate(-25.93 -33.89)" style="fill: #ffbf9d"/>
            <path d="M207.59,137.8s-.09-.08-.22-.25l-.6-.77c-.52-.67-1.28-1.65-2.28-2.87a93.1,93.1,0,0,0-8.8-9.36l.34-.14c-.09,3.86-.19,8.2-.3,12.77,0,.4,0,.8,0,1.18l0,.9-.39-.81-9.14-18.77L183.44,114c-.29-.65-.53-1.16-.71-1.55a2.61,2.61,0,0,1-.22-.55,3.94,3.94,0,0,1,.3.51l.78,1.51,2.83,5.61,9.26,18.71-.42.1c0-.38,0-.78,0-1.18.12-4.57.24-8.91.34-12.77V124l.33.31a86.56,86.56,0,0,1,8.71,9.5c1,1.24,1.7,2.25,2.19,3l.55.8A1.12,1.12,0,0,1,207.59,137.8Z" transform="translate(-25.93 -33.89)" style="fill: #263238"/>
            <path d="M240.76,158.41c.09.08-6.71,7.36-15.19,16.25s-15.42,16-15.5,16,6.71-7.36,15.18-16.26S240.67,158.33,240.76,158.41Z" transform="translate(-25.93 -33.89)" style="fill: #263238"/>
            <path d="M228.11,195.09a20.17,20.17,0,0,1-.65-2.64c-.38-1.63-1-3.88-1.75-6.31s-1.64-4.59-2.3-6.13a22.08,22.08,0,0,1-1-2.52,13.11,13.11,0,0,1,1.31,2.39,51.48,51.48,0,0,1,2.43,6.12,49.66,49.66,0,0,1,1.63,6.39A13.51,13.51,0,0,1,228.11,195.09Z" transform="translate(-25.93 -33.89)" style="fill: #263238"/>
            <path d="M171,148.76a49.37,49.37,0,0,1-5.67-3.57,51.14,51.14,0,0,1-5.42-3.93,51.12,51.12,0,0,1,5.67,3.57A51.14,51.14,0,0,1,171,148.76Z" transform="translate(-25.93 -33.89)" style="fill: #263238"/>
            <path d="M261.33,176.53a1.16,1.16,0,0,1-.3,0h-.86a7.4,7.4,0,0,1-1.39-.11,10.91,10.91,0,0,1-1.84-.41,12.22,12.22,0,0,1-4.35-2.52,15.12,15.12,0,0,1-3.73-5.26h0v0c-.79-3.2-1.67-6.76-2.59-10.51-1.72-7.13-3.28-13.59-4.43-18.32-.53-2.32-1-4.2-1.29-5.57-.13-.62-.24-1.13-.33-1.52a3.36,3.36,0,0,1-.09-.54,2.21,2.21,0,0,1,.18.52c.1.39.24.88.41,1.5l1.42,5.53c1.18,4.73,2.78,11.18,4.55,18.3.92,3.75,1.78,7.31,2.56,10.52v0a14.83,14.83,0,0,0,3.58,5.15,12.25,12.25,0,0,0,4.2,2.54A17.27,17.27,0,0,0,261.33,176.53Z" transform="translate(-25.93 -33.89)" style="fill: #263238"/>
            <path d="M178.94,177.05c0,.07-.66.12-1.67.37a11.54,11.54,0,0,0-3.69,1.65,11.8,11.8,0,0,0-2.89,2.83,14.22,14.22,0,0,1-.95,1.42,4.45,4.45,0,0,1,.69-1.59,10.2,10.2,0,0,1,6.77-4.62A4.16,4.16,0,0,1,178.94,177.05Z" transform="translate(-25.93 -33.89)" style="fill: #263238"/>
            <path d="M179.09,176.09a12.76,12.76,0,0,1-4,1.5,12.26,12.26,0,0,1-4.19.52c0-.12,1.85-.38,4.09-.94S179,176,179.09,176.09Z" transform="translate(-25.93 -33.89)" style="fill: #263238"/>
            <path d="M223.3,175.83s-.1-.11-.23-.35l-.59-1c-.51-.9-1.21-2.22-2.06-3.87-1.68-3.29-3.88-7.91-6-13.12s-3.88-10-5-13.55c-.57-1.75-1-3.18-1.29-4.18-.13-.46-.23-.84-.32-1.15s-.1-.4-.08-.41a1.85,1.85,0,0,1,.16.39l.4,1.12c.36,1,.84,2.44,1.43,4.13,1.21,3.49,3,8.28,5.14,13.48s4.31,9.83,5.92,13.15l1.93,3.93.51,1.07A1.57,1.57,0,0,1,223.3,175.83Z" transform="translate(-25.93 -33.89)" style="fill: #263238"/>
            <g style="opacity: 0.30000000000000004">
              <path d="M210.28,190.14c12.24-6.67,23.15-17.41,29.08-30Z" transform="translate(-25.93 -33.89)"/>
            </g>
            <g style="opacity: 0.30000000000000004">
              <path d="M169.74,183.32c2.4-5.15,7.11-6.56,11.69-6.5a1.09,1.09,0,0,0-.78-1.24,3,3,0,0,0-1.61,0,17.89,17.89,0,0,0-6.33,2.17,6.35,6.35,0,0,0-2.9,5.39" transform="translate(-25.93 -33.89)"/>
            </g>
            <g style="opacity: 0.30000000000000004">
              <path d="M182.64,112.05A116.15,116.15,0,0,0,197,144.24a18.59,18.59,0,0,0,2.84-12.34,14.26,14.26,0,0,0,7,4.9A67.67,67.67,0,0,0,196,124.55s-.36,14.32-.35,14c-4.42-8.87-8.7-17.6-13-26.45" transform="translate(-25.93 -33.89)"/>
            </g>
          </g>
        </g>
        <path d="M197,199.84s-.09-.15-.21-.44-.31-.79-.51-1.32c-.42-1.15-1.06-2.79-1.88-4.82-1.62-4-4.09-9.56-6.95-15.58s-5.38-11.52-7-15.59c-.82-2-1.45-3.69-1.83-4.85l-.45-1.33a2,2,0,0,1-.12-.48s.09.14.22.44.32.78.54,1.3c.44,1.14,1.12,2.77,2,4.78,1.71,4,4.29,9.47,7.14,15.51s5.28,11.57,6.83,15.67c.77,2.05,1.36,3.72,1.72,4.89.17.53.3,1,.41,1.34A2.84,2.84,0,0,1,197,199.84Z" transform="translate(-25.93 -33.89)" style="fill: #263238"/>
        <path d="M180.07,160.81c0,.09-1.09-.23-2.85-.52a25.92,25.92,0,0,0-13.65,1.44c-1.66.65-2.64,1.18-2.68,1.11s.21-.2.64-.46a14.31,14.31,0,0,1,1.9-1,22.69,22.69,0,0,1,13.86-1.46,15,15,0,0,1,2.06.57A2.61,2.61,0,0,1,180.07,160.81Z" transform="translate(-25.93 -33.89)" style="fill: #fff"/>
        <path d="M189,181.14a27.58,27.58,0,0,0-15.76,7.69,8.31,8.31,0,0,1,1.75-2,21.82,21.82,0,0,1,11.37-5.55A8.72,8.72,0,0,1,189,181.14Z" transform="translate(-25.93 -33.89)" style="fill: #fff"/>
        <path d="M212.94,155.3c.07.13-6.23,3.49-14.06,7.51s-14.23,7.17-14.3,7,6.23-3.49,14.07-7.51S212.88,155.17,212.94,155.3Z" transform="translate(-25.93 -33.89)" style="fill: #fff"/>
        <path d="M241.8,140c0,.14-6.78,2.12-15.22,4.41s-15.32,4-15.36,3.9,6.78-2.11,15.22-4.4S241.76,139.86,241.8,140Z" transform="translate(-25.93 -33.89)" style="fill: #fff"/>
        <path d="M268.92,159.25s-.21.23-.67.57a13.47,13.47,0,0,1-2,1.26,18.87,18.87,0,0,1-3.29,1.37,20.78,20.78,0,0,1-8.67.82,20,20,0,0,1-3.5-.73,14.78,14.78,0,0,1-2.24-.86,3.05,3.05,0,0,1-.77-.44c0-.09,1.18.44,3.11.94a23,23,0,0,0,3.45.61,22.22,22.22,0,0,0,8.48-.8,22.12,22.12,0,0,0,3.27-1.24C267.85,159.9,268.87,159.17,268.92,159.25Z" transform="translate(-25.93 -33.89)" style="fill: #fff"/>
        <path d="M253.55,174.4a5,5,0,0,1-.83.83c-.55.51-1.38,1.21-2.44,2.05A59.33,59.33,0,0,1,231.74,187c-1.28.4-2.33.69-3.07.85a5.24,5.24,0,0,1-1.15.21,4.88,4.88,0,0,1,1.1-.41c.72-.22,1.75-.56,3-1A70.15,70.15,0,0,0,250.06,177c1.08-.79,1.95-1.44,2.53-1.9A6.32,6.32,0,0,1,253.55,174.4Z" transform="translate(-25.93 -33.89)" style="fill: #fff"/>
        <path d="M226.11,192.17a4.87,4.87,0,0,1-1.05.6c-.68.36-1.7.84-3,1.39a69.12,69.12,0,0,1-10.26,3.48,70.54,70.54,0,0,1-10.67,1.84c-1.38.12-2.5.18-3.28.19a5.9,5.9,0,0,1-1.2,0,4.82,4.82,0,0,1,1.19-.18c.77-.07,1.88-.19,3.25-.36a84.77,84.77,0,0,0,10.58-2A86.11,86.11,0,0,0,222,193.82c1.28-.5,2.32-.93,3-1.23A5.47,5.47,0,0,1,226.11,192.17Z" transform="translate(-25.93 -33.89)" style="fill: #fff"/>
        <path d="M187.58,131.78a30.55,30.55,0,0,1-3.1,1.91c-1.94,1.14-4.61,2.72-7.53,4.51s-5.54,3.47-7.43,4.69a27.81,27.81,0,0,1-3.1,1.9,3.63,3.63,0,0,1,.74-.64c.5-.38,1.24-.92,2.16-1.57,1.84-1.29,4.43-3,7.35-4.82s5.64-3.33,7.63-4.39c1-.53,1.8-.94,2.37-1.22A3.12,3.12,0,0,1,187.58,131.78Z" transform="translate(-25.93 -33.89)" style="fill: #fff"/>
        <path d="M189.48,117.5a5.14,5.14,0,0,1-.55,2.2,5.07,5.07,0,0,1-1,2,5,5,0,0,1,.54-2.19C188.88,118.35,189.34,117.45,189.48,117.5Z" transform="translate(-25.93 -33.89)" style="fill: #fff"/>
        <path d="M236.92,116.07c0,.14-6,2.1-13.53,4.38s-13.64,4-13.68,3.87,6-2.09,13.53-4.37S236.88,115.94,236.92,116.07Z" transform="translate(-25.93 -33.89)" style="fill: #fff"/>
        <g style="opacity: 0.30000000000000004">
          <path d="M179.87,161l17.54,39.54A58.21,58.21,0,0,0,179.87,161Z" transform="translate(-25.93 -33.89)"/>
        </g>
      </g>
      <g>
        <g>
          <g>
            <g>
              <g>
                <path d="M204.72,51.4l-23.37-4.23c-7.41-.27-11.68,9.12-11.64,16.54,0,8.24.42,18.29,1.82,24.35,2.79,12.17,12.34,13.09,12.34,13.09s.53,7.21.53,7.21l24.3.39.19-53.22A4.34,4.34,0,0,0,204.72,51.4Z" transform="translate(-25.93 -33.89)" style="fill: #ffbf9d"/>
                <g>
                  <path d="M174.05,72.47A1.59,1.59,0,0,0,175.68,74a1.51,1.51,0,0,0,1.53-1.53,1.59,1.59,0,0,0-1.63-1.49A1.51,1.51,0,0,0,174.05,72.47Z" transform="translate(-25.93 -33.89)" style="fill: #263238"/>
                  <path d="M172.43,68c.21.19,1.35-.77,3-.88s3,.65,3.17.43-.14-.46-.71-.82a4.45,4.45,0,0,0-2.56-.6,4.1,4.1,0,0,0-2.4,1C172.48,67.51,172.33,67.9,172.43,68Z" transform="translate(-25.93 -33.89)" style="fill: #263238"/>
                </g>
                <g>
                  <path d="M189.56,72.47A1.58,1.58,0,0,0,191.19,74a1.51,1.51,0,0,0,1.53-1.53,1.59,1.59,0,0,0-1.63-1.49A1.51,1.51,0,0,0,189.56,72.47Z" transform="translate(-25.93 -33.89)" style="fill: #263238"/>
                  <path d="M189.21,68c.21.19,1.34-.77,3-.89s3,.66,3.17.44-.14-.46-.71-.82a4.29,4.29,0,0,0-2.55-.6,4.23,4.23,0,0,0-2.41,1C189.26,67.48,189.1,67.87,189.21,68Z" transform="translate(-25.93 -33.89)" style="fill: #263238"/>
                </g>
                <path d="M183.91,81a11,11,0,0,0-2.8-.31c-.43,0-.85-.07-.94-.36a2.14,2.14,0,0,1,.2-1.31c.33-1.08.69-2.2,1-3.39,1.46-4.82,2.49-8.78,2.29-8.84s-1.53,3.81-3,8.64l-1,3.4a2.51,2.51,0,0,0-.11,1.72,1.09,1.09,0,0,0,.76.59,3.28,3.28,0,0,0,.74,0A11.12,11.12,0,0,0,183.91,81Z" transform="translate(-25.93 -33.89)" style="fill: #263238"/>
                <path d="M183.84,101.15A31.34,31.34,0,0,0,200,95.62s-3.58,8.75-16,8.44Z" transform="translate(-25.93 -33.89)" style="fill: #ff9a6c"/>
              </g>
              <path d="M188.1,63.58c.2.45,1.88.12,3.89.22s3.65.54,3.89.1c.1-.2-.21-.62-.89-1a6.46,6.46,0,0,0-2.93-.81,6.56,6.56,0,0,0-3,.56C188.35,63,188,63.37,188.1,63.58Z" transform="translate(-25.93 -33.89)" style="fill: #263238"/>
              <path d="M172.78,63.82c.32.37,1.46-.12,2.87-.23s2.62.08,2.86-.34c.11-.21-.1-.58-.65-.91a4.18,4.18,0,0,0-4.62.46C172.77,63.23,172.63,63.64,172.78,63.82Z" transform="translate(-25.93 -33.89)" style="fill: #263238"/>
            </g>
            <path d="M178.34,47c-.73,1.53,2.26,4.34,3.86,4.89s3.67.25,4.54,1.71c1,1.65-1,4.31,2.32,6.11,1.06.56,2.6-.62,3.48.18,1.09,1-.33,2.73-.28,4.21.09,2.87,5.32,3.1,5.67,6,.22,1.8-1.79,3.51-1.09,5.17s3.58,1.56,4.29,3.26c.91,2.19-2.79,4.08-2.33,6.41s4.31,2.3,5.08,4.52c.67,1.89-1.47,4-.74,5.83.83,2.14,4.44,1.83,5.4,3.9,1.17,2.51-2.79,5.4-1.45,7.81.45.81,1.48,1.09,2.09,1.79,2,2.26,1.78,7.18-.24,9.14l1.45,0a13.18,13.18,0,0,0,10.88-6.09h0l1.21,2.8c3.85-1.22,6.86-3.75,10-6.35a6.19,6.19,0,0,1,5.61-1.23l.85.23c2.59.2,6-1.08,8.13-2.52-2.85-.58-4.38-3.68-5.08-6.5s-1.15-6-3.28-7.93c-2.3-2.14-6.3-2.62-7.36-5.58-.84-2.33.71-5,0-7.33s-3.55-3.55-4.63-5.8c-1.47-3.06.65-7.12-1.21-10-2-3.08-7.47-2.63-9-6-.85-1.85-.16-4.37-1.63-5.79-1.17-1.14-3.17-1-4.4-2-1.81-1.57-.93-4.79-2.5-6.59-2.13-2.44-6.48-.29-9.21-2-1.72-1.09-2.3-3.44-4-4.56-2.3-1.53-5.32-.15-7.93.76-2,.7-4.15,1.11-6.11,2a7.89,7.89,0,0,0-4.5,4.31c-.69,2,.18,4.64,2.2,5.33" transform="translate(-25.93 -33.89)" style="fill: #263238"/>
            <path d="M243.24,94.81l.21.18c.13.12.32.3.56.56a6.65,6.65,0,0,1,.82,1,3.73,3.73,0,0,1,.67,1.64,2.72,2.72,0,0,1-.64,2.1,1.73,1.73,0,0,1-2.47.23,4.25,4.25,0,0,1-1.17-2.79,29.44,29.44,0,0,1,0-3.38c.06-1.19.17-2.43.33-3.71.09-.64.19-1.3.3-2a7.82,7.82,0,0,0,.13-2,2.18,2.18,0,0,0-.92-1.69,3.3,3.3,0,0,0-2-.37,18.56,18.56,0,0,1-2.27.11,2.83,2.83,0,0,1-2.15-1,4.2,4.2,0,0,1-.74-2.32A12.53,12.53,0,0,1,234.1,79a8.56,8.56,0,0,0,.07-2.42,2.89,2.89,0,0,0-1.15-2,15.49,15.49,0,0,0-2.27-1.13,4.26,4.26,0,0,1-2-1.78,10.25,10.25,0,0,1-.85-5.3,15.48,15.48,0,0,0-.14-2.65,5.33,5.33,0,0,0-.92-2.37c-1.05-1.36-2.75-2-4.28-2.66a11.48,11.48,0,0,1-2.25-1.24,4.15,4.15,0,0,1-1.51-2,13.22,13.22,0,0,1-.36-2.43,3,3,0,0,0-.87-2,4.25,4.25,0,0,0-2-.83,10.8,10.8,0,0,1-2.21-.54A3.05,3.05,0,0,1,211.68,48a6.38,6.38,0,0,1-.44-2.12,8.78,8.78,0,0,0-.7-3.86,5.25,5.25,0,0,0-2.77-2.2,10.12,10.12,0,0,0-3.26-.63c-1.06-.05-2.07,0-3-.08a13.83,13.83,0,0,1-2.61-.31,7.27,7.27,0,0,1-2.06-.82,4.88,4.88,0,0,1-2.08-2.2,3,3,0,0,1-.27-1,6.59,6.59,0,0,0,.34,1,5,5,0,0,0,2.08,2.11,7.34,7.34,0,0,0,2,.78,14.39,14.39,0,0,0,2.58.27c.93,0,1.94,0,3,0a10.72,10.72,0,0,1,3.34.62,5.56,5.56,0,0,1,2.93,2.3,9.06,9.06,0,0,1,.75,4,6.29,6.29,0,0,0,.43,2,2.69,2.69,0,0,0,1.47,1.38,11.18,11.18,0,0,0,2.16.51,4.59,4.59,0,0,1,2.2.9,3.36,3.36,0,0,1,1,2.23,13,13,0,0,0,.34,2.36,3.91,3.91,0,0,0,1.4,1.87,10.9,10.9,0,0,0,2.18,1.19c.78.35,1.58.67,2.35,1.09a6.22,6.22,0,0,1,2.07,1.69,5.54,5.54,0,0,1,1,2.52,16.41,16.41,0,0,1,.14,2.71,10.06,10.06,0,0,0,.8,5.12,4,4,0,0,0,1.84,1.64,13.37,13.37,0,0,1,2.33,1.17,3.27,3.27,0,0,1,1.29,2.25,9.13,9.13,0,0,1-.07,2.51,11.5,11.5,0,0,0-.19,2.39,3.71,3.71,0,0,0,.66,2.13,2.5,2.5,0,0,0,1.9.91,18.6,18.6,0,0,0,2.23-.11,3.59,3.59,0,0,1,2.2.43,2.51,2.51,0,0,1,1.05,1.91,8.37,8.37,0,0,1-.14,2.08c-.12.66-.22,1.31-.31,2-.17,1.27-.29,2.5-.35,3.68a29.22,29.22,0,0,0-.05,3.35,4,4,0,0,0,1.07,2.65,1.58,1.58,0,0,0,1.18.37,1.64,1.64,0,0,0,1-.55,2.61,2.61,0,0,0,.63-2,3.78,3.78,0,0,0-.62-1.6,8,8,0,0,0-.78-1c-.23-.25-.4-.44-.54-.58Z" transform="translate(-25.93 -33.89)" style="fill: #263238"/>
            <path d="M216.29,112.64a2.3,2.3,0,0,1,.34-.15,9.24,9.24,0,0,0,1-.44,3.9,3.9,0,0,0,1.32-1,2.14,2.14,0,0,0,.24-2.15,1.73,1.73,0,0,0-1-.75c-.46-.15-1-.21-1.49-.39a1.73,1.73,0,0,1-.73-.44,1.34,1.34,0,0,1-.36-.83,3.45,3.45,0,0,1,.62-1.73,4,4,0,0,0,.61-1.75,3.71,3.71,0,0,0-.37-1.92,3.58,3.58,0,0,0-3.53-1.89l-.14,0,0-.15a5,5,0,0,1,1-3.08,18.59,18.59,0,0,0,1.79-2.84,4.62,4.62,0,0,0,.38-1.64,2.27,2.27,0,0,0-.52-1.56c-.75-.89-2-1.09-3.21-1.62A2.84,2.84,0,0,1,210.67,87a2.74,2.74,0,0,1,0-2c.41-1.26,1.24-2.4,1.19-3.69a2.9,2.9,0,0,0-.74-1.73,6.29,6.29,0,0,0-1.54-1.26,29.48,29.48,0,0,1-3.64-2.11,3.84,3.84,0,0,1-1.42-2.24,5.82,5.82,0,0,1,.25-2.6c.23-.82.52-1.61.68-2.41a4.31,4.31,0,0,0,.09-1.18,2.52,2.52,0,0,0-.36-1.08,3.4,3.4,0,0,0-1.88-1.28,13.74,13.74,0,0,1-2.24-.89,2.85,2.85,0,0,1-1.41-1.94,5.84,5.84,0,0,1,.14-2.33c.15-.75.34-1.46.43-2.17A4.07,4.07,0,0,0,200,56a3.27,3.27,0,0,0-1.3-1.48,6.88,6.88,0,0,0-1.84-.76c-1.27-.34-2.58-.45-3.77-.88a5,5,0,0,1-1.62-.93,4.74,4.74,0,0,1-1.08-1.42c-.54-1-.82-2.08-1.26-3a5.46,5.46,0,0,0-1.74-2.21,5.33,5.33,0,0,0-4.32-.94,5.71,5.71,0,0,0-2.54,1.33c-.48.46-.67.76-.69.75a4,4,0,0,1,.64-.8,5.44,5.44,0,0,1,7-.5,5.62,5.62,0,0,1,1.83,2.27c.45.93.75,2,1.28,3a4.58,4.58,0,0,0,1,1.34,4.74,4.74,0,0,0,1.54.86c1.15.42,2.44.52,3.76.86a6.78,6.78,0,0,1,1.92.79,3.61,3.61,0,0,1,1.44,1.62,4.3,4.3,0,0,1,.2,2.22c-.09.74-.28,1.46-.42,2.19a5.47,5.47,0,0,0-.13,2.2,2.48,2.48,0,0,0,1.25,1.71,13.74,13.74,0,0,0,2.18.86,3.73,3.73,0,0,1,2.06,1.42,2.86,2.86,0,0,1,.42,1.24,4.56,4.56,0,0,1-.1,1.28c-.16.84-.46,1.63-.68,2.44a5.33,5.33,0,0,0-.24,2.43,3.43,3.43,0,0,0,1.29,2,29.6,29.6,0,0,0,3.6,2.08,6.93,6.93,0,0,1,1.62,1.34,3.25,3.25,0,0,1,.83,1.94c0,1.47-.84,2.63-1.22,3.82a2.41,2.41,0,0,0,0,1.77A2.51,2.51,0,0,0,212.29,88c.55.26,1.15.43,1.74.67a3.89,3.89,0,0,1,1.58,1,2.66,2.66,0,0,1,.59,1.78,5,5,0,0,1-.42,1.76A19.09,19.09,0,0,1,214,96.11,4.77,4.77,0,0,0,213,99l-.16-.14a3.84,3.84,0,0,1,3.8,2.06,3.93,3.93,0,0,1-.28,3.9,3.29,3.29,0,0,0-.6,1.61,1.23,1.23,0,0,0,.94,1.09c.49.18,1,.24,1.48.4a1.84,1.84,0,0,1,1.13.86,1.94,1.94,0,0,1,.17,1.26,2.55,2.55,0,0,1-.45,1,3.82,3.82,0,0,1-1.38,1.06A8.68,8.68,0,0,1,216.29,112.64Z" transform="translate(-25.93 -33.89)" style="fill: #455a64"/>
            <path d="M236.11,106.19a4.56,4.56,0,0,0,.51-1,4,4,0,0,0-.2-3,3.48,3.48,0,0,0-1.53-1.56,9.3,9.3,0,0,1-1.12-.7,1.91,1.91,0,0,1-.76-1.22c-.14-1,.58-2,.56-3a1.72,1.72,0,0,0-.73-1.35,7.57,7.57,0,0,0-1.55-.82,6.89,6.89,0,0,1-1.68-.91,2.72,2.72,0,0,1-1-1.74c-.22-1.38.22-2.76.25-4.17a3.32,3.32,0,0,0-.51-2,3.86,3.86,0,0,0-1.76-1.22,20.76,20.76,0,0,1-2.16-.91,2.76,2.76,0,0,1-1.49-2,9.29,9.29,0,0,1,.13-2.48,3,3,0,0,0-.44-2.27,5.07,5.07,0,0,0-2.13-1.2,4.22,4.22,0,0,1-2.22-1.49,4,4,0,0,1-.47-2.69,15.69,15.69,0,0,1,.66-2.64,6.59,6.59,0,0,0,.35-2.63,3,3,0,0,0-1.34-2.15,7.39,7.39,0,0,0-2.54-.89c-.9-.18-1.81-.32-2.7-.58a5.32,5.32,0,0,1-2.42-1.34,6.1,6.1,0,0,1-1.37-2.34c-.55-1.71-.69-3.45-1-5.09a9.48,9.48,0,0,0-.79-2.32A4.48,4.48,0,0,0,205,48.84c-1.39-.74-3-.54-4.54-.47a10.93,10.93,0,0,1-2.29-.07,4.77,4.77,0,0,1-2.07-.87,14.42,14.42,0,0,1-2.61-3.28,8.08,8.08,0,0,0-1.25-1.46,7,7,0,0,0-1.52-1,8.84,8.84,0,0,0-6.35-.38,12.84,12.84,0,0,0-4.28,2.42,21.14,21.14,0,0,0-2.23,2.2l-.53.63a1.69,1.69,0,0,1-.19.21,1.58,1.58,0,0,1,.16-.24l.5-.64a18.12,18.12,0,0,1,2.2-2.27,12.76,12.76,0,0,1,4.31-2.5,9.06,9.06,0,0,1,6.52.33,7.06,7.06,0,0,1,1.59,1.05,8.49,8.49,0,0,1,1.3,1.5,14.24,14.24,0,0,0,2.56,3.2,4.29,4.29,0,0,0,1.94.8,10.22,10.22,0,0,0,2.22.06,22.52,22.52,0,0,1,2.34-.07,5.44,5.44,0,0,1,2.38.57,4.75,4.75,0,0,1,1.75,1.81,9.3,9.3,0,0,1,.83,2.41,49.22,49.22,0,0,0,1,5,5.69,5.69,0,0,0,1.29,2.2,4.92,4.92,0,0,0,2.26,1.24c.86.26,1.76.4,2.67.58a7.81,7.81,0,0,1,2.67.93,3.38,3.38,0,0,1,1.5,2.42,7.15,7.15,0,0,1-.36,2.77,15.63,15.63,0,0,0-.66,2.59,3.6,3.6,0,0,0,.41,2.45,4,4,0,0,0,2.05,1.35,5.27,5.27,0,0,1,2.27,1.31,2.42,2.42,0,0,1,.53,1.23,5.56,5.56,0,0,1,0,1.29,9,9,0,0,0-.14,2.4,2.43,2.43,0,0,0,1.32,1.72,21,21,0,0,0,2.12.89,4.25,4.25,0,0,1,1.9,1.34,3.71,3.71,0,0,1,.55,2.18c0,1.46-.47,2.83-.27,4.11a2.43,2.43,0,0,0,.89,1.58,6.86,6.86,0,0,0,1.61.89,7.21,7.21,0,0,1,1.6.85,2,2,0,0,1,.81,1.54c0,1.17-.72,2.08-.59,3a1.73,1.73,0,0,0,.68,1.11c.35.27.73.47,1.08.69a3.62,3.62,0,0,1,1.58,1.65,4,4,0,0,1,.14,3.1A2.63,2.63,0,0,1,236.11,106.19Z" transform="translate(-25.93 -33.89)" style="fill: #455a64"/>
          </g>
          <path d="M186.08,86.49a2.22,2.22,0,0,1,2.74-3.3,3.56,3.56,0,0,1,1.36,1.28,2.35,2.35,0,0,1,.52,1.83,1.94,1.94,0,0,1-1,1.15,3,3,0,0,1-2.37.21,2.6,2.6,0,0,1-1.6-1.71" transform="translate(-25.93 -33.89)" style="fill: #ff9a6c"/>
          <path d="M190.08,82.86c.14,0,.2.44,0,1.07a4.29,4.29,0,0,1-1.51,2,4.17,4.17,0,0,1-2.38.84c-.66,0-1-.17-1-.31,0-.31,1.46-.42,2.77-1.4S189.78,82.78,190.08,82.86Z" transform="translate(-25.93 -33.89)" style="fill: #263238"/>
        </g>
        <g>
          <path d="M242.9,123.4l-5.63-8.86-.39-8.72,2.21-6s1.76-.42,2,1.68a11.43,11.43,0,0,1-.65,4.64l1.2,4.23s.4.46.77-1.3-.27-14.81-.28-15.71.06-3,1.39-2.83,1.75,2,1.76,2.86,1,9.65,1,9.65.31.78.63.67-.28-9.39-.34-10.86-.39-4.71,1.33-4.72,1.72,1.63,1.82,3.43S251,103.43,251,103.43s.26.63.5-.21.56-11.77.75-12.28,1.19-1.18,2,0,.6,4.12.49,9.21c-.1,4.59-.24,6.49.29,6.85s2.45-2.46,2.45-2.46,2.35-6,4.34-5.83.65,1.76.31,3.16c-.28,1.19-3.76,8.28-3.84,8.35S254.73,123,254.73,123l8.86,17c1.32,2.52,1.16,4.73.74,7.54-.45,3.08-2.62,4.66-7.14,6.07-3.33,1-6.9.07-8.52-1.68a9.91,9.91,0,0,1-2.47-5.3c-1-5.56-3.3-23.14-3.3-23.14Z" transform="translate(-25.93 -33.89)" style="fill: #ffbf9d"/>
          <path d="M248.51,117c-.07,0,0-.67-.17-1.7a7,7,0,0,0-1.84-3.55,4.76,4.76,0,0,0-2.84-1.44,2.93,2.93,0,0,0-1.93.44l-.08,0,0-.08c-.11-.23-.16-.36-.14-.37s.12.08.27.3l-.11,0a2.73,2.73,0,0,1,2.05-.67,4.84,4.84,0,0,1,3.12,1.49,6.55,6.55,0,0,1,1.83,3.8A3.41,3.41,0,0,1,248.51,117Z" transform="translate(-25.93 -33.89)" style="fill: #ff9a6c"/>
          <path d="M253.27,110.34a19.32,19.32,0,0,1-1.44,1.73,19,19,0,0,1-1.31,1.81,3.7,3.7,0,0,1,1-2.08A3.76,3.76,0,0,1,253.27,110.34Z" transform="translate(-25.93 -33.89)" style="fill: #ff9a6c"/>
        </g>
      </g>
    </g>
    <g>
      <g>
        <ellipse cx="184.58" cy="348.79" rx="55.36" ry="59.92" transform="translate(-133.06 49.14) rotate(-19.78)" style="fill: #fafafa"/>
        <path d="M132.48,367.52s-.46-1.18-1.19-3.49a64.46,64.46,0,0,1-2.22-10.32c-.19-1.13-.24-2.34-.37-3.61s-.17-2.61-.15-4a59.8,59.8,0,0,1,.6-9.07,59,59,0,0,1,7-20.9,54.82,54.82,0,0,1,7.59-10.4A51.83,51.83,0,0,1,184,289.17a56.57,56.57,0,0,1,31.57,11.6,64.12,64.12,0,0,1,23.48,65.28,56.64,56.64,0,0,1-16.95,29.05,52.08,52.08,0,0,1-27.62,12.84,53.06,53.06,0,0,1-14,0,55.13,55.13,0,0,1-12.48-3.19,60.48,60.48,0,0,1-25-18.24c-.9-1.07-1.67-2.16-2.43-3.18s-1.44-2-2-3a64,64,0,0,1-4.86-9.37c-.9-2.24-1.3-3.44-1.3-3.44s.13.29.36.86.55,1.44,1,2.54a65.91,65.91,0,0,0,4.93,9.31c.59,1,1.32,1.94,2,3s1.54,2.09,2.44,3.15a60.68,60.68,0,0,0,6.24,6.55,58.87,58.87,0,0,0,18.67,11.5,55.21,55.21,0,0,0,12.4,3.14,52.68,52.68,0,0,0,13.85-.06,51.58,51.58,0,0,0,27.36-12.77,56.22,56.22,0,0,0,16.78-28.81,63.68,63.68,0,0,0-23.29-64.75A56.21,56.21,0,0,0,184,289.65a51.61,51.61,0,0,0-29.21,7.58A52.47,52.47,0,0,0,144.07,306a54.53,54.53,0,0,0-7.56,10.31,60.42,60.42,0,0,0-7.71,29.78c0,1.4.07,2.73.12,4s.17,2.48.35,3.61A67.2,67.2,0,0,0,131.39,364c.32,1.17.64,2,.82,2.62S132.48,367.52,132.48,367.52Z" transform="translate(-25.93 -33.89)" style="fill: #263238"/>
      </g>
      <path d="M123.35,370.81s-.55-1.41-1.41-4.15a75.65,75.65,0,0,1-2.63-12.26c-.22-1.35-.28-2.79-.44-4.3s-.19-3.1-.17-4.76a71.94,71.94,0,0,1,9.08-35.59,65.88,65.88,0,0,1,9-12.36,62.47,62.47,0,0,1,12.81-10.52,61.71,61.71,0,0,1,35-9.13,67.23,67.23,0,0,1,37.49,13.78A76.18,76.18,0,0,1,250,369a67.24,67.24,0,0,1-20.13,34.51A61.77,61.77,0,0,1,197,418.8a63.06,63.06,0,0,1-16.58,0,65.29,65.29,0,0,1-14.82-3.79A72,72,0,0,1,136,393.39c-1.07-1.26-2-2.57-2.89-3.77s-1.71-2.42-2.4-3.6a75.34,75.34,0,0,1-5.78-11.13c-1.08-2.66-1.55-4.08-1.55-4.08s.15.34.42,1,.64,1.71,1.23,3a78.73,78.73,0,0,0,5.85,11.06c.7,1.18,1.57,2.32,2.41,3.57s1.83,2.5,2.91,3.76a70.71,70.71,0,0,0,7.41,7.78,69.77,69.77,0,0,0,22.19,13.69,65.85,65.85,0,0,0,14.75,3.73,62.18,62.18,0,0,0,16.46-.07,61.35,61.35,0,0,0,32.54-15.18,66.89,66.89,0,0,0,20-34.26,75.77,75.77,0,0,0-27.7-77,66.82,66.82,0,0,0-37.2-13.7,61.35,61.35,0,0,0-34.75,9,62.14,62.14,0,0,0-12.74,10.43,65.66,65.66,0,0,0-9,12.26A71.65,71.65,0,0,0,119,345.34c0,1.66.09,3.24.14,4.75s.21,2.94.42,4.28A79.4,79.4,0,0,0,122,366.63c.39,1.38.77,2.41,1,3.11S123.35,370.81,123.35,370.81Z" transform="translate(-25.93 -33.89)" style="fill: #263238"/>
      <g>
        <path d="M201.51,271.62c.19-.1,8-3,8.34,5.14s-7.92,6.82-7.95,6.59S201.51,271.62,201.51,271.62Z" transform="translate(-25.93 -33.89)" style="fill: #c58984"/>
        <path d="M204.27,280.15s.15.09.39.19a1.39,1.39,0,0,0,1.06,0c.85-.35,1.52-1.75,1.5-3.22a4.63,4.63,0,0,0-.48-2,1.66,1.66,0,0,0-1.12-1.05.73.73,0,0,0-.82.42c-.1.24,0,.4-.08.41s-.18-.13-.13-.47a.83.83,0,0,1,.3-.52,1.05,1.05,0,0,1,.77-.24,2,2,0,0,1,1.54,1.2,4.86,4.86,0,0,1,.59,2.26c0,1.65-.76,3.22-1.93,3.61a1.55,1.55,0,0,1-1.31-.16C204.29,280.35,204.24,280.17,204.27,280.15Z" transform="translate(-25.93 -33.89)" style="fill: #9c6664"/>
        <path d="M161.13,290.58c-.5-5.75-.55-17.67-.47-28.46a22.25,22.25,0,0,1,20.62-22l1.15-.09c12.45-.18,19.56,10.28,19.4,22.73l1.22,41-14,3.23a8.74,8.74,0,0,1-1.36.2l-13.29.9-.25-4.6S162.15,302.48,161.13,290.58Z" transform="translate(-25.93 -33.89)" style="fill: #c58984"/>
        <path d="M167,271.06a1.72,1.72,0,0,0,1.77,1.6,1.63,1.63,0,0,0,1.64-1.66,1.72,1.72,0,0,0-1.77-1.6A1.63,1.63,0,0,0,167,271.06Z" transform="translate(-25.93 -33.89)" style="fill: #263238"/>
        <path d="M184.87,268.93a1.71,1.71,0,0,0,1.77,1.59,1.63,1.63,0,0,0,1.64-1.66,1.72,1.72,0,0,0-1.77-1.6A1.64,1.64,0,0,0,184.87,268.93Z" transform="translate(-25.93 -33.89)" style="fill: #263238"/>
        <path d="M163.57,268.29c.23.21,1.45-.84,3.28-1s3.24.69,3.42.45-.15-.49-.77-.88a4.69,4.69,0,0,0-2.76-.63,4.5,4.5,0,0,0-2.59,1.05C163.62,267.79,163.46,268.2,163.57,268.29Z" transform="translate(-25.93 -33.89)" style="fill: #263238"/>
        <path d="M182,266.52c.24.19,1.39-.93,3.21-1.18s3.27.48,3.44.23-.18-.48-.82-.82a4.64,4.64,0,0,0-2.8-.46,4.48,4.48,0,0,0-2.51,1.21C182,266,181.83,266.43,182,266.52Z" transform="translate(-25.93 -33.89)" style="fill: #263238"/>
        <path d="M176,280.85a11.74,11.74,0,0,0-3-.32c-.47,0-.92-.07-1-.39a2.49,2.49,0,0,1,.21-1.41c.36-1.16.73-2.38,1.12-3.66,1.55-5.21,2.63-9.47,2.42-9.54s-1.63,4.12-3.18,9.33l-1.06,3.67a2.72,2.72,0,0,0-.11,1.86,1.17,1.17,0,0,0,.82.62,3.4,3.4,0,0,0,.81.06A12.31,12.31,0,0,0,176,280.85Z" transform="translate(-25.93 -33.89)" style="fill: #263238"/>
        <path d="M181.5,281.72c-.3,0-.16,2-1.75,3.52S176,286.72,176,287c0,.12.5.35,1.4.31a5,5,0,0,0,3.12-1.35,4.35,4.35,0,0,0,1.34-2.95C181.89,282.17,181.64,281.7,181.5,281.72Z" transform="translate(-25.93 -33.89)" style="fill: #263238"/>
        <path d="M180.68,259.25c.26.47,2-.05,4.2-.13s4,.23,4.19-.26c.09-.23-.28-.65-1-1a7.36,7.36,0,0,0-6.39.3C180.9,258.58,180.57,259,180.68,259.25Z" transform="translate(-25.93 -33.89)" style="fill: #263238"/>
        <path d="M163.55,263.36c.36.39,1.59-.14,3.1-.27s2.82.08,3.09-.38c.11-.22-.12-.62-.71-1a4.48,4.48,0,0,0-5,.52C163.54,262.72,163.4,263.16,163.55,263.36Z" transform="translate(-25.93 -33.89)" style="fill: #263238"/>
        <path d="M193,266.27c.05.07-.47.53-1.24.88a2.56,2.56,0,0,1-1.47.35c0-.09.6-.31,1.34-.65A5.28,5.28,0,0,1,193,266.27Z" transform="translate(-25.93 -33.89)" style="fill: #9c6664"/>
        <path d="M194.37,268a4.93,4.93,0,0,1-1.78.15,4.84,4.84,0,0,1-1.77-.17,4.85,4.85,0,0,1,1.77-.15A5.15,5.15,0,0,1,194.37,268Z" transform="translate(-25.93 -33.89)" style="fill: #9c6664"/>
        <path d="M180.83,252.79c0,.05-.57.21-1.44.62s-2,1.06-3.35,1.73a9.52,9.52,0,0,1-3.65,1.08,4.63,4.63,0,0,1-1.16-.08.93.93,0,0,1-.41-.13c0-.06.6.08,1.55,0a10.83,10.83,0,0,0,3.53-1.14c1.31-.66,2.48-1.31,3.4-1.66A4.44,4.44,0,0,1,180.83,252.79Z" transform="translate(-25.93 -33.89)" style="fill: #9c6664"/>
        <path d="M178.4,252.65a8.8,8.8,0,0,1-3.56,1.43,9,9,0,0,1-3.83.08c0-.1,1.72,0,3.76-.4A37.6,37.6,0,0,0,178.4,252.65Z" transform="translate(-25.93 -33.89)" style="fill: #9c6664"/>
        <path d="M183.82,282.05c-.08,0-.4-.64-1.19-.91a3.46,3.46,0,0,0-1.49,0s.11-.18.4-.29a1.7,1.7,0,0,1,1.19,0,1.76,1.76,0,0,1,1,.73C183.84,281.84,183.86,282,183.82,282.05Z" transform="translate(-25.93 -33.89)" style="fill: #9c6664"/>
        <path d="M185.35,281.59c-.09,0-.31-.74-1.12-1.18a3.78,3.78,0,0,0-1.58-.36s.16-.15.49-.2a2.07,2.07,0,0,1,1.25.28,2,2,0,0,1,.88.94C185.4,281.37,185.39,281.58,185.35,281.59Z" transform="translate(-25.93 -33.89)" style="fill: #9c6664"/>
        <path d="M203.85,250.18a5.8,5.8,0,0,0-3.48-7.38c.76-1.15-.29-2.72-1.55-3.27s-2.73-.57-4-1.18a20.11,20.11,0,0,1-2.4-1.71,7.92,7.92,0,0,0-7.94-.51c-.58-1.87-2.71-2.9-4.66-2.85a13.74,13.74,0,0,0-5.55,1.77,13.56,13.56,0,0,0-6-2,7.31,7.31,0,0,0-5.76,2.19,5,5,0,0,0-.68,5.89,5.21,5.21,0,0,0-2.65,9.61,4.52,4.52,0,0,0,.46,5.1c1.18,1.38,1.9,0,1.9,0l2.95-4.35a18.7,18.7,0,0,0,3.42-.08,12.94,12.94,0,0,0,5.42-1.41,19.3,19.3,0,0,0,2.84-2.26,30.57,30.57,0,0,1,3-2.3,12.85,12.85,0,0,1,10.84.41c3.38,1.66,6.19,6.47,6.8,10.56A117.21,117.21,0,0,1,198.35,273c0,1.64.25,3.7,1.81,4.22a2,2,0,0,0,2.69-1.83,36.58,36.58,0,0,0,.06-4.14l1.23-.17c.92-5.57.18-10.62-.58-16.21a21.44,21.44,0,0,0-.7-3.22A4,4,0,0,0,203.85,250.18Z" transform="translate(-25.93 -33.89)" style="fill: #263238"/>
        <path d="M193.28,244.09a13.63,13.63,0,0,0-8-3.28,12.51,12.51,0,0,0-7.17,1.39A8.46,8.46,0,0,0,173.8,248l-8.67,2.34a10.34,10.34,0,0,0,13.33-3.12,9.56,9.56,0,0,0,9,0,10.46,10.46,0,0,0,9.18,4.69A10,10,0,0,0,193.28,244.09Z" transform="translate(-25.93 -33.89)" style="fill: #263238"/>
        <path d="M168.41,251.31a1.62,1.62,0,0,1-.74-.11,4.27,4.27,0,0,1-1.78-1.13,4.17,4.17,0,0,1-1.14-3,4.45,4.45,0,0,1,1.95-3.51l.08.46a4.4,4.4,0,0,1-2.68-1.92,4.13,4.13,0,0,1,.31-5,4.07,4.07,0,0,1,3.89-1.5,2.59,2.59,0,0,1,1.47.79,2.16,2.16,0,0,1,.55,1.13,1.26,1.26,0,0,1-.19,1,2.76,2.76,0,0,0,0-1,2.2,2.2,0,0,0-1.88-1.6,3.75,3.75,0,0,0-3.46,1.44,3.7,3.7,0,0,0-.25,4.44,4,4,0,0,0,2.36,1.7l.58.14-.5.32a4,4,0,0,0-1.78,3.11,3.88,3.88,0,0,0,.94,2.75A5.28,5.28,0,0,0,168.41,251.31Z" transform="translate(-25.93 -33.89)" style="fill: #fff"/>
        <path d="M203.44,254.54a7.47,7.47,0,0,1-6.68,1c0-.15,1.54.06,3.38-.23S203.36,254.4,203.44,254.54Z" transform="translate(-25.93 -33.89)" style="fill: #fff"/>
        <path d="M204.25,257a6.69,6.69,0,0,1-6.65,1.85,31.45,31.45,0,0,0,3.44-.51A32,32,0,0,0,204.25,257Z" transform="translate(-25.93 -33.89)" style="fill: #fff"/>
        <path d="M174.19,303.45a27.73,27.73,0,0,0,15.2-5.56s-2.94,9-14.91,8.78Z" transform="translate(-25.93 -33.89)" style="fill: #9c6664"/>
      </g>
      <g>
        <g>
          <path d="M212.87,312.45l-6.9-2.11-.88-5.61a1.8,1.8,0,0,0-2.05-1.68L172,307.41a1.8,1.8,0,0,0-1.52,2.1v4.38l-24.25,10.19s-2.73,10.79-2,20.12c.57,7.2,3.13,48.36,3.13,48.36s17.11,16.81,37.16,17.28a58.86,58.86,0,0,0,40.9-15.7c0-.48,4.6-49.67,4.6-49.67L232.48,321Z" transform="translate(-25.93 -33.89)" style="fill: #ff725e"/>
          <path d="M147.31,392.56l-1.13-68.48s-12.25,9.34-14.86,41.89C131.32,366,138.57,384.78,147.31,392.56Z" transform="translate(-25.93 -33.89)" style="fill: #ff725e"/>
          <path d="M228.88,319.5s11.27,3.44,14.55,12.55,27.32,46,29.16,49.32c5.57,10,.31,24.07-8.08,26.5s-44.27-15.24-45-17.33a21.52,21.52,0,0,1-.5-5.87l2.21-14.34,6.16,1.41Z" transform="translate(-25.93 -33.89)" style="fill: #ff725e"/>
          <g style="opacity: 0.30000000000000004">
            <path d="M215.37,388.22c-.49-.91-.42-3.51-1-4.39-.89-1.45-2.7-.86-4.09-1.83l-6.49-4.49a5.11,5.11,0,0,0-2.28-1.08,3.69,3.69,0,0,0-3.06,1.45,17,17,0,0,0-1.79,3c-.53,1-1.13.6-2.24.72a14.57,14.57,0,0,1-3.66.26,4,4,0,0,0-3.45,1.65c-.87,1-1.49,2.24-2.42,3.19-2.26,2.32-5.84,2.62-9.08,2.54s-6.66-.38-9.52,1.15c-3.58,1.91-5.2,6.08-6.54,9.91l.54,1.89c3.85,1.66,9.21,1,13.22-.2s8.06-2.79,12.23-2.45c4.42.35,8.93,2.82,13.07,1.23,2.39-.92,4.14-3.05,6.46-4.13,3.07-1.43,6.65-.84,10-.48s7.15.34,9.66-1.95C221.29,393.08,217.22,391.64,215.37,388.22Z" transform="translate(-25.93 -33.89)"/>
          </g>
          <path d="M229.63,396.5a1.38,1.38,0,0,1-.3-.1l-.86-.34-3.21-1.34-11.53-4.94-.15-.07,0-.16c.9-6.32,2-14,3.17-22.21,0-.22.06-.43.09-.62l0-.28.27.06c10.6,2.24,20,5,26.76,7,3.37,1,6.09,1.93,7.95,2.57l2.15.76a6.79,6.79,0,0,1,.73.29A4.23,4.23,0,0,1,254,377l-2.17-.67c-1.88-.58-4.61-1.42-8-2.41-6.77-2-16.18-4.63-26.76-6.86l.31-.22c0,.2,0,.41-.09.62-1.21,8.24-2.33,15.88-3.26,22.2l-.12-.23,11.44,5.11,3.18,1.46.82.39A1.09,1.09,0,0,1,229.63,396.5Z" transform="translate(-25.93 -33.89)" style="fill: #263238"/>
          <path d="M234.45,371.51a9.37,9.37,0,0,1-1.55-1.79,44.2,44.2,0,0,1-3.14-4.78,44.76,44.76,0,0,1-2.5-5.13,9.24,9.24,0,0,1-.75-2.25,13.37,13.37,0,0,1,1.08,2.1c.63,1.31,1.53,3.1,2.63,5s2.17,3.61,3,4.82A12.84,12.84,0,0,1,234.45,371.51Z" transform="translate(-25.93 -33.89)" style="fill: #263238"/>
          <path d="M228.85,321.65a29.74,29.74,0,0,1-.8,3.14,60.34,60.34,0,0,0-1.46,7.65,59.41,59.41,0,0,0-.4,7.77,28.18,28.18,0,0,1,0,3.24,3.2,3.2,0,0,1-.17-.86c-.08-.55-.16-1.36-.22-2.37a43.88,43.88,0,0,1,.26-7.85,44.44,44.44,0,0,1,1.62-7.68,23.79,23.79,0,0,1,.78-2.25A3.18,3.18,0,0,1,228.85,321.65Z" transform="translate(-25.93 -33.89)" style="fill: #263238"/>
          <path d="M153.94,394.6c-.14,0-1.64-9.72-3.35-21.75s-3-21.81-2.83-21.83,1.64,9.72,3.35,21.76S154.08,394.58,153.94,394.6Z" transform="translate(-25.93 -33.89)" style="fill: #263238"/>
          <path d="M184.08,358.82l13.92.75,18.37,11.55-2.07,13.47a98.56,98.56,0,0,1-9.7-3.65c-1.68-.93-1.55-4-1.55-4l-2.27,1.25s-1.26,3.14-2.23,5.84-3.82,1-3.82,1l-.36-2.83c-1.45,1.51-3.66.2-3.66.2l-1-10.45,3.91-5-4.57.46a27.79,27.79,0,0,0-5.35,4.36c-2.7,2.8-6.66-.22-6.66-.22l7.86-9-1.29.58s-5.11,3.56-7.25,3.67-2.59-2.49-2.59-2.49Z" transform="translate(-25.93 -33.89)" style="fill: #c58984"/>
          <polygon points="155.42 336.91 174.61 361.61 136.75 357.8 115.77 331.5 155.42 336.91" style="fill: #263238"/>
          <path d="M162.65,391.89h-.08l-21.34-26.76,40.14,5.48h.08L201,395.75Zm-20.49-26.24,20.62,25.85,37.32,3.76L181.24,371Z" transform="translate(-25.93 -33.89)" style="fill: #263238"/>
          <path d="M154.45,399.25a15.67,15.67,0,0,0,7.27,3.25l16.67-5,12.78-5.23a1,1,0,0,0,.64-1l2.07-1.9s.08-1.33-2-1.87-7.6,1.71-7.9,1.88-4.77,1-4.77,1a65.63,65.63,0,0,1,8.89-3.76s1.21-4.89-3.71-3.76A49,49,0,0,0,174.07,387l-3.48,1.71-1.67-.64,1.06-2s5.13-5.62,5.19-5.87,1.37-2,.08-2.74-4.45-.38-5.92,1.26-6.67,7.22-6.67,7.22a6.78,6.78,0,0,0-2.26-.11c-1.71.1-4.08-1.8-4.3-2.4s-.4-3.71-2.13-5.48-4.65-2.54-5.28-1.26c-.1.21-.43.57.12,2.09a9.21,9.21,0,0,0,1.05,2.2l.4,7.05,1.86,4-1.39.08S149,395.15,154.45,399.25Z" transform="translate(-25.93 -33.89)" style="fill: #c58984"/>
          <path d="M204.51,370.92a13.72,13.72,0,0,0-2.74-.34,7,7,0,0,0-2.86.67,7.11,7.11,0,0,0-2.74,2.28,8.2,8.2,0,0,0-1.36,3.33,16.77,16.77,0,0,0-.25,3,23.32,23.32,0,0,1,0,2.82,11.84,11.84,0,0,1-.37-2.81,14.66,14.66,0,0,1,.15-3.08,8.36,8.36,0,0,1,1.4-3.55,7.54,7.54,0,0,1,3-2.42,7.07,7.07,0,0,1,3.06-.6,6.5,6.5,0,0,1,2.06.37A2,2,0,0,1,204.51,370.92Z" transform="translate(-25.93 -33.89)" style="fill: #9c6664"/>
          <path d="M198.85,366.22c0,.15-1.27,0-2.76.27s-2.63.76-2.7.63a5.74,5.74,0,0,1,5.46-.9Z" transform="translate(-25.93 -33.89)" style="fill: #9c6664"/>
          <path d="M178.74,369.61a14.65,14.65,0,0,1,1.56-2.15c1-1.3,2.47-3.09,4.13-5.1l.07-.08.1,0,1.48-.14c2.94-.27,5.62-.38,7.56-.4a16.44,16.44,0,0,1,3.14.11,21.65,21.65,0,0,1-3.13.26c-1.93.11-4.59.28-7.53.55l-1.46.14.17-.09c-1.67,2-3.17,3.75-4.26,5A14.72,14.72,0,0,1,178.74,369.61Z" transform="translate(-25.93 -33.89)" style="fill: #9c6664"/>
          <path d="M206.89,310.76a8.17,8.17,0,0,1-1.25.83,37.71,37.71,0,0,1-3.62,1.9,46,46,0,0,1-13,3.74,44.8,44.8,0,0,1-7.43.39,29,29,0,0,1-6-.69,11.9,11.9,0,0,1-3.79-1.58,7.55,7.55,0,0,1-.89-.68c-.19-.18-.28-.27-.27-.29s.44.32,1.26.8a13.05,13.05,0,0,0,3.77,1.39,31.83,31.83,0,0,0,6,.57,46.28,46.28,0,0,0,7.35-.43,50.09,50.09,0,0,0,12.87-3.56c1.57-.68,2.82-1.3,3.68-1.74A8.67,8.67,0,0,1,206.89,310.76Z" transform="translate(-25.93 -33.89)" style="fill: #263238"/>
        </g>
        <path d="M227,327.2a4.72,4.72,0,0,1-.47-.24,11.46,11.46,0,0,0-1.36-.67,12.9,12.9,0,0,0-5.69-1,23.67,23.67,0,0,0-8.83,2.44,27.47,27.47,0,0,0-9.78,7.12,17.28,17.28,0,0,0-3.32,6.18,13.49,13.49,0,0,0-.08,7.51,11.29,11.29,0,0,0,4.81,6.33,8.54,8.54,0,0,0,8.19.53,8.47,8.47,0,0,0,3.39-2.78,6.94,6.94,0,0,0,1.25-4.26,9.18,9.18,0,0,0-1.3-4.4,11.27,11.27,0,0,0-3.25-3.42,18.18,18.18,0,0,0-19-.43,74.85,74.85,0,0,0-8.44,5.78,31.75,31.75,0,0,1-8.75,4.89,16.34,16.34,0,0,1-9.64.1,15.88,15.88,0,0,1-7.74-5.06,16.56,16.56,0,0,1-3.64-8,12,12,0,0,1,0-4.26,6.58,6.58,0,0,1,1.94-3.67,4.43,4.43,0,0,1,3.85-1,5.5,5.5,0,0,1,3.29,2,6.15,6.15,0,0,1,1.19,3.51,7.72,7.72,0,0,1-.69,3.48,11.27,11.27,0,0,1-4.45,4.73,15.68,15.68,0,0,1-5.44,2.05,17.75,17.75,0,0,1-5.06.14,17,17,0,0,1-4.13-1,15.6,15.6,0,0,1-5-3,10.15,10.15,0,0,1-1.09-1.07c-.23-.25-.34-.39-.34-.39s.48.53,1.5,1.38a16.2,16.2,0,0,0,5,2.88,16.86,16.86,0,0,0,4.09.93,17.19,17.19,0,0,0,5-.18,15.34,15.34,0,0,0,5.32-2,10.87,10.87,0,0,0,4.29-4.6,6.61,6.61,0,0,0-.48-6.6,5.09,5.09,0,0,0-3.05-1.85,4,4,0,0,0-3.49.93,6.12,6.12,0,0,0-1.78,3.44,11.52,11.52,0,0,0,0,4.1,16.21,16.21,0,0,0,3.56,7.79,15.43,15.43,0,0,0,7.51,4.88,15.83,15.83,0,0,0,9.34-.1,31.47,31.47,0,0,0,8.6-4.82,75.83,75.83,0,0,1,8.5-5.83,18.69,18.69,0,0,1,19.51.47,11.84,11.84,0,0,1,3.4,3.58,9.65,9.65,0,0,1,1.36,4.65,7.58,7.58,0,0,1-1.34,4.55,9,9,0,0,1-3.6,2.94,9,9,0,0,1-8.63-.58,11.71,11.71,0,0,1-5-6.59,13.9,13.9,0,0,1,.12-7.76,17.41,17.41,0,0,1,3.42-6.29,27.62,27.62,0,0,1,9.94-7.16,23.94,23.94,0,0,1,8.94-2.38,12.74,12.74,0,0,1,5.74,1.08,9,9,0,0,1,1.35.72Z" transform="translate(-25.93 -33.89)" style="fill: #fff"/>
        <path d="M250,346.51a3.58,3.58,0,0,1-.57.86,20.84,20.84,0,0,1-1.84,2.14,27.62,27.62,0,0,1-3.13,2.77,29,29,0,0,1-9.11,4.63,27.57,27.57,0,0,1-4.09.89,20.16,20.16,0,0,1-2.81.22,3.76,3.76,0,0,1-1,0c0-.1,1.46-.13,3.78-.54a30.76,30.76,0,0,0,4-1,30.88,30.88,0,0,0,9-4.55,31.52,31.52,0,0,0,3.16-2.65C249,347.61,249.9,346.45,250,346.51Z" transform="translate(-25.93 -33.89)" style="fill: #fff"/>
        <path d="M263.74,371.77a20.75,20.75,0,0,1-2.19-.44,16.67,16.67,0,0,0-10.4,1.46c-1.23.61-1.93,1.1-2,1a6.1,6.1,0,0,1,1.81-1.36A14.74,14.74,0,0,1,261.63,371,6.18,6.18,0,0,1,263.74,371.77Z" transform="translate(-25.93 -33.89)" style="fill: #fff"/>
        <path d="M236.92,399.51a2.43,2.43,0,0,1-.25-.53,16.85,16.85,0,0,1-.54-1.6,16.58,16.58,0,0,1-.58-6.17,12.64,12.64,0,0,1,1.15-4.16A10.52,10.52,0,0,1,238,385a11.62,11.62,0,0,1,1.87-1.76A9.84,9.84,0,0,1,245,381.3a7.93,7.93,0,0,1,2.93.33,5,5,0,0,1,2.56,1.68,2.41,2.41,0,0,1,.45,1.56,2.52,2.52,0,0,1-.63,1.47,5,5,0,0,1-2.56,1.52,9.52,9.52,0,0,1-5.47-.43,9.86,9.86,0,0,1-4-2.87,9,9,0,0,1-1.87-3.89,9.8,9.8,0,0,1,.7-6.13,6.37,6.37,0,0,1,1.27-1.89,17,17,0,0,0-1.08,2,9.77,9.77,0,0,0-.53,6,8.88,8.88,0,0,0,1.84,3.7,9.53,9.53,0,0,0,3.88,2.69,9,9,0,0,0,5.17.38A4.44,4.44,0,0,0,249.9,386a1.89,1.89,0,0,0,.15-2.4,4.42,4.42,0,0,0-2.29-1.49,7.49,7.49,0,0,0-2.73-.31,9.53,9.53,0,0,0-4.88,1.82,11,11,0,0,0-1.8,1.67,10.21,10.21,0,0,0-1.26,1.94,12.81,12.81,0,0,0-1.18,4,17.53,17.53,0,0,0,.42,6.08C236.67,398.74,237,399.49,236.92,399.51Z" transform="translate(-25.93 -33.89)" style="fill: #fff"/>
        <path d="M149.06,365.42a17.56,17.56,0,0,1-2.38-.82,45.4,45.4,0,0,0-5.8-1.68,46.59,46.59,0,0,0-6-.85,17.49,17.49,0,0,1-2.51-.22,9.74,9.74,0,0,1,2.52-.15,32.34,32.34,0,0,1,11.9,2.55A9.85,9.85,0,0,1,149.06,365.42Z" transform="translate(-25.93 -33.89)" style="fill: #fff"/>
        <path d="M219,392.14a2.09,2.09,0,0,1-.45.35l-1.35.92c-.58.4-1.3.89-2.18,1.38s-1.84,1.13-3,1.68-2.36,1.24-3.74,1.82-2.84,1.2-4.41,1.8A72.7,72.7,0,0,1,193.4,403a75.48,75.48,0,0,1-10.86,1.16c-1.68,0-3.27.05-4.77,0s-2.87-.17-4.14-.28-2.4-.29-3.4-.41-1.85-.29-2.54-.43l-1.6-.32a1.94,1.94,0,0,1-.55-.15,2.23,2.23,0,0,1,.57.05l1.61.22c.7.11,1.55.24,2.55.34s2.13.27,3.39.33,2.64.2,4.13.21,3.07,0,4.73,0a78.84,78.84,0,0,0,10.78-1.19,75,75,0,0,0,10.46-2.84c1.56-.58,3.05-1.12,4.4-1.75s2.61-1.18,3.74-1.74,2.12-1.14,3-1.61,1.62-.92,2.22-1.3l1.4-.84A3,3,0,0,1,219,392.14Z" transform="translate(-25.93 -33.89)" style="fill: #fff"/>
      </g>
      <g style="opacity: 0.30000000000000004">
        <path d="M257.29,376.55c-1.9-2.35-5.11-3.1-8.08-3.63-5.1-.92-10.32-2.07-15.49-2.55,6.91,3.12,15.48,3.69,22,7.93.5.32,1.12.68,1.64.4C258.11,378.31,257.81,377.19,257.29,376.55Z" transform="translate(-25.93 -33.89)"/>
      </g>
      <g style="opacity: 0.30000000000000004">
        <path d="M201.75,313.44c.6-.26-9.09,6.46-14.56,6.86a22.64,22.64,0,0,1-15.4-4.69S184.58,321,201.75,313.44Z" transform="translate(-25.93 -33.89)"/>
      </g>
    </g>
  </g>
</svg>
