<?xml version="1.0" encoding="utf-8"?>
<!-- Generator: Adobe Illustrator 23.0.0, SVG Export Plug-In . SVG Version: 6.00 Build 0)  -->
<svg version="1.0" xmlns="http://www.w3.org/2000/svg" xmlns:xlink="http://www.w3.org/1999/xlink" x="0px" y="0px"
	 viewBox="0 0 500 500" style="enable-background:new 0 0 500 500;" xml:space="preserve">
<g id="Background_Complete">
</g>
<g id="Background_Simple" style="display:none;">
	<g style="display:inline;">
		<path style="fill:#2A9D8F;" d="M430.6,106.7l-1.7-3.8c-14.3-32.1-44.7-54.1-79.5-56.3c-4.5-0.3-8.9-0.2-13.4,0.2
			c-32.2,2.8-62.4,23-77.5,51.9c-8.9,17-13.3,37.3-27.7,49.9c-18.7,16.4-46.7,13.4-71.1,9.6c-24.4-3.8-52.4-6.7-71,9.7
			c-11.7,10.3-17,26.4-18.1,42c-3,41.4,21,81.7,55.1,104.5s76.8,29.9,117.6,26.9c57.2-4.2,114.2-28.4,152.1-72.2
			C433.3,225.4,449.6,161.4,430.6,106.7z"/>
	</g>
</g>
<g id="Desk">
</g>
<g id="Character_1">
</g>
<g id="Character_2">
	<path style="fill:#2A9D8F;" d="M47,263.5c0-8.2,0-16.4,0-24.7c0.2-1.3,0.6-2.5,0.7-3.8c0.9-16,4.2-31.5,8.9-46.7
		c12.9-41.4,37.2-75.3,71.3-101.4c46-35.2,98.5-47.7,155.5-38.7c38.3,6,72.3,21.8,101.3,48.2c29.6,27,50.8,59,61.7,97.7
		c8.9,31.6,10.2,63.4,4.3,95.6c-6.9,37.6-23.6,70.6-48.9,98.8c-38.3,42.7-87,64.9-144.3,67.2c-37.1,1.5-72-7-104.6-24.9
		c-2.5-1.4-4.6-1.6-7.4-0.7c-25.3,8.3-50.6,16.3-75.9,24.5c-6.3,2-12.2,1.8-17-2.9c-2.4-2.3-3.7-5.7-5.5-8.5c0-2.1,0-4.2,0-6.4
		c0.2-0.2,0.5-0.3,0.5-0.6c8.2-25.8,16.3-51.7,24.7-77.5c1.4-4.2,1.2-7.5-1-11.5c-10.7-19.5-18-40.3-21.2-62.4
		C49.1,277.8,48.1,270.6,47,263.5z M87.6,415.4c18.4-5.9,36-11.3,53.3-17.3c8.3-2.9,15.4-2.3,23,2.3c20.4,12.4,42.7,19.9,66.5,22.4
		C279,427.9,322.5,416,360,384c30.7-26.2,51.1-58.7,59.1-98.6c6.7-33.4,3.9-66-8.3-97.6c-17-44.2-48.2-76.1-90.7-95.4
		C272,70.6,223,71.2,175.3,95.6c-43.2,22.1-73.1,55.7-88.1,102.2c-8.2,25.4-10.3,51.3-6.6,77.7c3.3,23.2,10.9,45,23.1,65
		c3.5,5.7,4.2,11.4,2.1,17.8c-5,15.1-9.6,30.3-14.4,45.4C90.3,407.3,89.1,410.9,87.6,415.4z"/>
	<path style="fill:#2A9D8F;" d="M191,250.6c0.1,10.9-9.1,20-20,20c-10.8-0.1-19.7-9-19.8-19.8c-0.1-10.9,9.1-20,20-20
		C182,230.9,191,239.9,191,250.6z"/>
	<path style="fill:#2A9D8F;" d="M251.2,230.9c10.9,0.3,19.7,9.7,19.3,20.6c-0.4,10.8-9.6,19.4-20.4,19.1c-10.9-0.3-19.7-9.7-19.3-20.6
		C231.3,239.2,240.5,230.6,251.2,230.9z"/>
	<path style="fill:#2A9D8F;" d="M350.1,250.6c0.1,10.9-9,20-19.9,20c-10.8,0-19.7-9-19.8-19.7c-0.1-10.9,9-20,19.9-20
		C341.1,230.9,350.1,239.8,350.1,250.6z"/>
</g>
</svg>
